G04 #@! TF.FileFunction,Legend,Top*
%FSLAX46Y46*%
G04 Gerber Fmt 4.6, Leading zero omitted, Abs format (unit mm)*
G04 Created by KiCad (PCBNEW 4.0.6) date 2017 May 30, Tuesday 14:38:27*
%MOMM*%
%LPD*%
G01*
G04 APERTURE LIST*
%ADD10C,0.100000*%
%ADD11C,0.200000*%
%ADD12C,0.300000*%
%ADD13C,0.120000*%
%ADD14C,0.381000*%
%ADD15C,0.010000*%
%ADD16C,0.400000*%
%ADD17C,0.304800*%
%ADD18C,0.150000*%
G04 APERTURE END LIST*
D10*
D11*
X109500000Y-129000000D02*
X109500000Y-124000000D01*
X120000000Y-129000000D02*
X109500000Y-129000000D01*
X120000000Y-124000000D02*
X120000000Y-129000000D01*
X109500000Y-124000000D02*
X120000000Y-124000000D01*
D12*
X111782143Y-128285714D02*
X111853571Y-128071428D01*
X111853571Y-127714285D01*
X111782143Y-127571428D01*
X111710714Y-127499999D01*
X111567857Y-127428571D01*
X111425000Y-127428571D01*
X111282143Y-127499999D01*
X111210714Y-127571428D01*
X111139286Y-127714285D01*
X111067857Y-127999999D01*
X110996429Y-128142857D01*
X110925000Y-128214285D01*
X110782143Y-128285714D01*
X110639286Y-128285714D01*
X110496429Y-128214285D01*
X110425000Y-128142857D01*
X110353571Y-127999999D01*
X110353571Y-127642857D01*
X110425000Y-127428571D01*
X111710714Y-125928571D02*
X111782143Y-126000000D01*
X111853571Y-126214286D01*
X111853571Y-126357143D01*
X111782143Y-126571428D01*
X111639286Y-126714286D01*
X111496429Y-126785714D01*
X111210714Y-126857143D01*
X110996429Y-126857143D01*
X110710714Y-126785714D01*
X110567857Y-126714286D01*
X110425000Y-126571428D01*
X110353571Y-126357143D01*
X110353571Y-126214286D01*
X110425000Y-126000000D01*
X110496429Y-125928571D01*
X111853571Y-124571428D02*
X111853571Y-125285714D01*
X110353571Y-125285714D01*
X114332143Y-128321428D02*
X114403571Y-128107142D01*
X114403571Y-127749999D01*
X114332143Y-127607142D01*
X114260714Y-127535713D01*
X114117857Y-127464285D01*
X113975000Y-127464285D01*
X113832143Y-127535713D01*
X113760714Y-127607142D01*
X113689286Y-127749999D01*
X113617857Y-128035713D01*
X113546429Y-128178571D01*
X113475000Y-128249999D01*
X113332143Y-128321428D01*
X113189286Y-128321428D01*
X113046429Y-128249999D01*
X112975000Y-128178571D01*
X112903571Y-128035713D01*
X112903571Y-127678571D01*
X112975000Y-127464285D01*
X114403571Y-126821428D02*
X112903571Y-126821428D01*
X112903571Y-126464285D01*
X112975000Y-126250000D01*
X113117857Y-126107142D01*
X113260714Y-126035714D01*
X113546429Y-125964285D01*
X113760714Y-125964285D01*
X114046429Y-126035714D01*
X114189286Y-126107142D01*
X114332143Y-126250000D01*
X114403571Y-126464285D01*
X114403571Y-126821428D01*
X113975000Y-125392857D02*
X113975000Y-124678571D01*
X114403571Y-125535714D02*
X112903571Y-125035714D01*
X114403571Y-124535714D01*
X116953571Y-127357142D02*
X116239286Y-127857142D01*
X116953571Y-128214285D02*
X115453571Y-128214285D01*
X115453571Y-127642857D01*
X115525000Y-127499999D01*
X115596429Y-127428571D01*
X115739286Y-127357142D01*
X115953571Y-127357142D01*
X116096429Y-127428571D01*
X116167857Y-127499999D01*
X116239286Y-127642857D01*
X116239286Y-128214285D01*
X116167857Y-126714285D02*
X116167857Y-126214285D01*
X116953571Y-125999999D02*
X116953571Y-126714285D01*
X115453571Y-126714285D01*
X115453571Y-125999999D01*
X116167857Y-124857142D02*
X116167857Y-125357142D01*
X116953571Y-125357142D02*
X115453571Y-125357142D01*
X115453571Y-124642856D01*
X118075000Y-127642857D02*
X118003571Y-127785714D01*
X118003571Y-128000000D01*
X118075000Y-128214285D01*
X118217857Y-128357143D01*
X118360714Y-128428571D01*
X118646429Y-128500000D01*
X118860714Y-128500000D01*
X119146429Y-128428571D01*
X119289286Y-128357143D01*
X119432143Y-128214285D01*
X119503571Y-128000000D01*
X119503571Y-127857143D01*
X119432143Y-127642857D01*
X119360714Y-127571428D01*
X118860714Y-127571428D01*
X118860714Y-127857143D01*
X119503571Y-126928571D02*
X118003571Y-126928571D01*
X119503571Y-126071428D01*
X118003571Y-126071428D01*
X119503571Y-125357142D02*
X118003571Y-125357142D01*
X118003571Y-124999999D01*
X118075000Y-124785714D01*
X118217857Y-124642856D01*
X118360714Y-124571428D01*
X118646429Y-124499999D01*
X118860714Y-124499999D01*
X119146429Y-124571428D01*
X119289286Y-124642856D01*
X119432143Y-124785714D01*
X119503571Y-124999999D01*
X119503571Y-125357142D01*
X79964287Y-49353571D02*
X79964287Y-47853571D01*
X80535715Y-47853571D01*
X80678573Y-47925000D01*
X80750001Y-47996429D01*
X80821430Y-48139286D01*
X80821430Y-48353571D01*
X80750001Y-48496429D01*
X80678573Y-48567857D01*
X80535715Y-48639286D01*
X79964287Y-48639286D01*
X81964287Y-48567857D02*
X82178573Y-48639286D01*
X82250001Y-48710714D01*
X82321430Y-48853571D01*
X82321430Y-49067857D01*
X82250001Y-49210714D01*
X82178573Y-49282143D01*
X82035715Y-49353571D01*
X81464287Y-49353571D01*
X81464287Y-47853571D01*
X81964287Y-47853571D01*
X82107144Y-47925000D01*
X82178573Y-47996429D01*
X82250001Y-48139286D01*
X82250001Y-48282143D01*
X82178573Y-48425000D01*
X82107144Y-48496429D01*
X81964287Y-48567857D01*
X81464287Y-48567857D01*
X82821430Y-48353571D02*
X83178573Y-49353571D01*
X83535715Y-48353571D01*
X84035715Y-47996429D02*
X84107144Y-47925000D01*
X84250001Y-47853571D01*
X84607144Y-47853571D01*
X84750001Y-47925000D01*
X84821430Y-47996429D01*
X84892858Y-48139286D01*
X84892858Y-48282143D01*
X84821430Y-48496429D01*
X83964287Y-49353571D01*
X84892858Y-49353571D01*
X86464286Y-47853571D02*
X87321429Y-47853571D01*
X86892858Y-49353571D02*
X86892858Y-47853571D01*
X88392857Y-49282143D02*
X88250000Y-49353571D01*
X87964286Y-49353571D01*
X87821429Y-49282143D01*
X87750000Y-49139286D01*
X87750000Y-48567857D01*
X87821429Y-48425000D01*
X87964286Y-48353571D01*
X88250000Y-48353571D01*
X88392857Y-48425000D01*
X88464286Y-48567857D01*
X88464286Y-48710714D01*
X87750000Y-48853571D01*
X89035714Y-49282143D02*
X89178571Y-49353571D01*
X89464286Y-49353571D01*
X89607143Y-49282143D01*
X89678571Y-49139286D01*
X89678571Y-49067857D01*
X89607143Y-48925000D01*
X89464286Y-48853571D01*
X89250000Y-48853571D01*
X89107143Y-48782143D01*
X89035714Y-48639286D01*
X89035714Y-48567857D01*
X89107143Y-48425000D01*
X89250000Y-48353571D01*
X89464286Y-48353571D01*
X89607143Y-48425000D01*
X90107143Y-48353571D02*
X90678572Y-48353571D01*
X90321429Y-47853571D02*
X90321429Y-49139286D01*
X90392857Y-49282143D01*
X90535715Y-49353571D01*
X90678572Y-49353571D01*
X92250000Y-48925000D02*
X92964286Y-48925000D01*
X92107143Y-49353571D02*
X92607143Y-47853571D01*
X93107143Y-49353571D01*
X94250000Y-49353571D02*
X94250000Y-47853571D01*
X94250000Y-49282143D02*
X94107143Y-49353571D01*
X93821429Y-49353571D01*
X93678571Y-49282143D01*
X93607143Y-49210714D01*
X93535714Y-49067857D01*
X93535714Y-48639286D01*
X93607143Y-48496429D01*
X93678571Y-48425000D01*
X93821429Y-48353571D01*
X94107143Y-48353571D01*
X94250000Y-48425000D01*
X95607143Y-49353571D02*
X95607143Y-48567857D01*
X95535714Y-48425000D01*
X95392857Y-48353571D01*
X95107143Y-48353571D01*
X94964286Y-48425000D01*
X95607143Y-49282143D02*
X95464286Y-49353571D01*
X95107143Y-49353571D01*
X94964286Y-49282143D01*
X94892857Y-49139286D01*
X94892857Y-48996429D01*
X94964286Y-48853571D01*
X95107143Y-48782143D01*
X95464286Y-48782143D01*
X95607143Y-48710714D01*
X96321429Y-48353571D02*
X96321429Y-49853571D01*
X96321429Y-48425000D02*
X96464286Y-48353571D01*
X96750000Y-48353571D01*
X96892857Y-48425000D01*
X96964286Y-48496429D01*
X97035715Y-48639286D01*
X97035715Y-49067857D01*
X96964286Y-49210714D01*
X96892857Y-49282143D01*
X96750000Y-49353571D01*
X96464286Y-49353571D01*
X96321429Y-49282143D01*
X97464286Y-48353571D02*
X98035715Y-48353571D01*
X97678572Y-47853571D02*
X97678572Y-49139286D01*
X97750000Y-49282143D01*
X97892858Y-49353571D01*
X98035715Y-49353571D01*
X99107143Y-49282143D02*
X98964286Y-49353571D01*
X98678572Y-49353571D01*
X98535715Y-49282143D01*
X98464286Y-49139286D01*
X98464286Y-48567857D01*
X98535715Y-48425000D01*
X98678572Y-48353571D01*
X98964286Y-48353571D01*
X99107143Y-48425000D01*
X99178572Y-48567857D01*
X99178572Y-48710714D01*
X98464286Y-48853571D01*
X99821429Y-49353571D02*
X99821429Y-48353571D01*
X99821429Y-48639286D02*
X99892857Y-48496429D01*
X99964286Y-48425000D01*
X100107143Y-48353571D01*
X100250000Y-48353571D01*
X87678572Y-51903571D02*
X87178572Y-51189286D01*
X86821429Y-51903571D02*
X86821429Y-50403571D01*
X87392857Y-50403571D01*
X87535715Y-50475000D01*
X87607143Y-50546429D01*
X87678572Y-50689286D01*
X87678572Y-50903571D01*
X87607143Y-51046429D01*
X87535715Y-51117857D01*
X87392857Y-51189286D01*
X86821429Y-51189286D01*
X88892857Y-51832143D02*
X88750000Y-51903571D01*
X88464286Y-51903571D01*
X88321429Y-51832143D01*
X88250000Y-51689286D01*
X88250000Y-51117857D01*
X88321429Y-50975000D01*
X88464286Y-50903571D01*
X88750000Y-50903571D01*
X88892857Y-50975000D01*
X88964286Y-51117857D01*
X88964286Y-51260714D01*
X88250000Y-51403571D01*
X89464286Y-50903571D02*
X89821429Y-51903571D01*
X90178571Y-50903571D01*
X90750000Y-51760714D02*
X90821428Y-51832143D01*
X90750000Y-51903571D01*
X90678571Y-51832143D01*
X90750000Y-51760714D01*
X90750000Y-51903571D01*
X92535714Y-51475000D02*
X93250000Y-51475000D01*
X92392857Y-51903571D02*
X92892857Y-50403571D01*
X93392857Y-51903571D01*
X83500000Y-52953571D02*
X84357143Y-52953571D01*
X83928572Y-54453571D02*
X83928572Y-52953571D01*
X84857143Y-54453571D02*
X84857143Y-53453571D01*
X84857143Y-52953571D02*
X84785714Y-53025000D01*
X84857143Y-53096429D01*
X84928571Y-53025000D01*
X84857143Y-52953571D01*
X84857143Y-53096429D01*
X85571429Y-54453571D02*
X85571429Y-53453571D01*
X85571429Y-53596429D02*
X85642857Y-53525000D01*
X85785715Y-53453571D01*
X86000000Y-53453571D01*
X86142857Y-53525000D01*
X86214286Y-53667857D01*
X86214286Y-54453571D01*
X86214286Y-53667857D02*
X86285715Y-53525000D01*
X86428572Y-53453571D01*
X86642857Y-53453571D01*
X86785715Y-53525000D01*
X86857143Y-53667857D01*
X86857143Y-54453571D01*
X87785715Y-54453571D02*
X87642857Y-54382143D01*
X87571429Y-54310714D01*
X87500000Y-54167857D01*
X87500000Y-53739286D01*
X87571429Y-53596429D01*
X87642857Y-53525000D01*
X87785715Y-53453571D01*
X88000000Y-53453571D01*
X88142857Y-53525000D01*
X88214286Y-53596429D01*
X88285715Y-53739286D01*
X88285715Y-54167857D01*
X88214286Y-54310714D01*
X88142857Y-54382143D01*
X88000000Y-54453571D01*
X87785715Y-54453571D01*
X88928572Y-53453571D02*
X88928572Y-54453571D01*
X88928572Y-53596429D02*
X89000000Y-53525000D01*
X89142858Y-53453571D01*
X89357143Y-53453571D01*
X89500000Y-53525000D01*
X89571429Y-53667857D01*
X89571429Y-54453571D01*
X91428572Y-54453571D02*
X91428572Y-52953571D01*
X91428572Y-53667857D02*
X92285715Y-53667857D01*
X92285715Y-54453571D02*
X92285715Y-52953571D01*
X93571429Y-54382143D02*
X93428572Y-54453571D01*
X93142858Y-54453571D01*
X93000001Y-54382143D01*
X92928572Y-54239286D01*
X92928572Y-53667857D01*
X93000001Y-53525000D01*
X93142858Y-53453571D01*
X93428572Y-53453571D01*
X93571429Y-53525000D01*
X93642858Y-53667857D01*
X93642858Y-53810714D01*
X92928572Y-53953571D01*
X94285715Y-54453571D02*
X94285715Y-53453571D01*
X94285715Y-52953571D02*
X94214286Y-53025000D01*
X94285715Y-53096429D01*
X94357143Y-53025000D01*
X94285715Y-52953571D01*
X94285715Y-53096429D01*
X95000001Y-54453571D02*
X95000001Y-53453571D01*
X95000001Y-53596429D02*
X95071429Y-53525000D01*
X95214287Y-53453571D01*
X95428572Y-53453571D01*
X95571429Y-53525000D01*
X95642858Y-53667857D01*
X95642858Y-54453571D01*
X95642858Y-53667857D02*
X95714287Y-53525000D01*
X95857144Y-53453571D01*
X96071429Y-53453571D01*
X96214287Y-53525000D01*
X96285715Y-53667857D01*
X96285715Y-54453571D01*
X84821430Y-57003571D02*
X84821430Y-55503571D01*
X85321430Y-56575000D01*
X85821430Y-55503571D01*
X85821430Y-57003571D01*
X87178573Y-57003571D02*
X87178573Y-56217857D01*
X87107144Y-56075000D01*
X86964287Y-56003571D01*
X86678573Y-56003571D01*
X86535716Y-56075000D01*
X87178573Y-56932143D02*
X87035716Y-57003571D01*
X86678573Y-57003571D01*
X86535716Y-56932143D01*
X86464287Y-56789286D01*
X86464287Y-56646429D01*
X86535716Y-56503571D01*
X86678573Y-56432143D01*
X87035716Y-56432143D01*
X87178573Y-56360714D01*
X87750002Y-56003571D02*
X88107145Y-57003571D01*
X88464287Y-56003571D02*
X88107145Y-57003571D01*
X87964287Y-57360714D01*
X87892859Y-57432143D01*
X87750002Y-57503571D01*
X90107144Y-55646429D02*
X90178573Y-55575000D01*
X90321430Y-55503571D01*
X90678573Y-55503571D01*
X90821430Y-55575000D01*
X90892859Y-55646429D01*
X90964287Y-55789286D01*
X90964287Y-55932143D01*
X90892859Y-56146429D01*
X90035716Y-57003571D01*
X90964287Y-57003571D01*
X91892858Y-55503571D02*
X92035715Y-55503571D01*
X92178572Y-55575000D01*
X92250001Y-55646429D01*
X92321430Y-55789286D01*
X92392858Y-56075000D01*
X92392858Y-56432143D01*
X92321430Y-56717857D01*
X92250001Y-56860714D01*
X92178572Y-56932143D01*
X92035715Y-57003571D01*
X91892858Y-57003571D01*
X91750001Y-56932143D01*
X91678572Y-56860714D01*
X91607144Y-56717857D01*
X91535715Y-56432143D01*
X91535715Y-56075000D01*
X91607144Y-55789286D01*
X91678572Y-55646429D01*
X91750001Y-55575000D01*
X91892858Y-55503571D01*
X93821429Y-57003571D02*
X92964286Y-57003571D01*
X93392858Y-57003571D02*
X93392858Y-55503571D01*
X93250001Y-55717857D01*
X93107143Y-55860714D01*
X92964286Y-55932143D01*
X94321429Y-55503571D02*
X95321429Y-55503571D01*
X94678572Y-57003571D01*
D11*
X107000000Y-105000000D02*
X107000000Y-32000000D01*
X116000000Y-106000000D02*
X108000000Y-106000000D01*
X117000000Y-32000000D02*
X117000000Y-105000000D01*
X108000000Y-31000000D02*
X116000000Y-31000000D01*
X117000000Y-32000000D02*
G75*
G03X118000000Y-31000000I0J1000000D01*
G01*
X118000000Y-31000000D02*
G75*
G03X117000000Y-30000000I-1000000J0D01*
G01*
X117000000Y-30000000D02*
G75*
G03X116000000Y-31000000I0J-1000000D01*
G01*
X106000000Y-31000000D02*
G75*
G03X107000000Y-32000000I1000000J0D01*
G01*
X107000000Y-30000000D02*
G75*
G03X106000000Y-31000000I0J-1000000D01*
G01*
X108000000Y-31000000D02*
G75*
G03X107000000Y-30000000I-1000000J0D01*
G01*
X116000000Y-106000000D02*
G75*
G03X117000000Y-107000000I1000000J0D01*
G01*
X117000000Y-107000000D02*
G75*
G03X118000000Y-106000000I0J1000000D01*
G01*
X118000000Y-106000000D02*
G75*
G03X117000000Y-105000000I-1000000J0D01*
G01*
X107000000Y-105000000D02*
G75*
G03X106000000Y-106000000I0J-1000000D01*
G01*
X107000000Y-107000000D02*
G75*
G03X108000000Y-106000000I0J1000000D01*
G01*
X106000000Y-106000000D02*
G75*
G03X107000000Y-107000000I1000000J0D01*
G01*
D13*
X92750000Y-145300000D02*
G75*
G03X92750000Y-145300000I-1600000J0D01*
G01*
X91150000Y-154050000D02*
X97325000Y-154050000D01*
X97325000Y-154050000D02*
X97325000Y-138950000D01*
X97325000Y-138950000D02*
X96500000Y-138950000D01*
X91150000Y-154050000D02*
X84975000Y-154050000D01*
X84975000Y-154050000D02*
X84975000Y-138950000D01*
X84975000Y-138950000D02*
X85800000Y-138950000D01*
X91825000Y-138950000D02*
X90475000Y-138950000D01*
X94300000Y-135825000D02*
X94300000Y-134675000D01*
X93700000Y-135825000D02*
X93700000Y-134675000D01*
X88600000Y-135825000D02*
X88600000Y-134675000D01*
X88000000Y-135825000D02*
X88000000Y-134675000D01*
X96500000Y-138000000D02*
X97100000Y-137700000D01*
X97100000Y-137700000D02*
X97100000Y-138300000D01*
X97100000Y-138300000D02*
X96500000Y-138000000D01*
X131750000Y-145300000D02*
G75*
G03X131750000Y-145300000I-1600000J0D01*
G01*
X130150000Y-154050000D02*
X136325000Y-154050000D01*
X136325000Y-154050000D02*
X136325000Y-138950000D01*
X136325000Y-138950000D02*
X135500000Y-138950000D01*
X130150000Y-154050000D02*
X123975000Y-154050000D01*
X123975000Y-154050000D02*
X123975000Y-138950000D01*
X123975000Y-138950000D02*
X124800000Y-138950000D01*
X130825000Y-138950000D02*
X129475000Y-138950000D01*
X133300000Y-135825000D02*
X133300000Y-134675000D01*
X132700000Y-135825000D02*
X132700000Y-134675000D01*
X127600000Y-135825000D02*
X127600000Y-134675000D01*
X127000000Y-135825000D02*
X127000000Y-134675000D01*
X135500000Y-138000000D02*
X136100000Y-137700000D01*
X136100000Y-137700000D02*
X136100000Y-138300000D01*
X136100000Y-138300000D02*
X135500000Y-138000000D01*
D14*
X81800480Y-112500000D02*
G75*
G03X81800480Y-112500000I-1300480J0D01*
G01*
X84000120Y-112500000D02*
G75*
G03X84000120Y-112500000I-3500120J0D01*
G01*
X76900820Y-108900820D02*
X84099180Y-108900820D01*
X84099180Y-108900820D02*
X84099180Y-116099180D01*
X84099180Y-116099180D02*
X76900820Y-116099180D01*
X76900820Y-116099180D02*
X76900820Y-108900820D01*
D13*
X101900000Y-122120000D02*
X103100000Y-122120000D01*
X103100000Y-123880000D02*
X101900000Y-123880000D01*
X101900000Y-118120000D02*
X103100000Y-118120000D01*
X103100000Y-119880000D02*
X101900000Y-119880000D01*
X82000000Y-99020000D02*
X84000000Y-99020000D01*
X84000000Y-101980000D02*
X82000000Y-101980000D01*
X91500000Y-99020000D02*
X93500000Y-99020000D01*
X93500000Y-101980000D02*
X91500000Y-101980000D01*
X107250000Y-145300000D02*
G75*
G03X107250000Y-145300000I-1600000J0D01*
G01*
X105650000Y-154050000D02*
X111825000Y-154050000D01*
X111825000Y-154050000D02*
X111825000Y-138950000D01*
X111825000Y-138950000D02*
X111000000Y-138950000D01*
X105650000Y-154050000D02*
X99475000Y-154050000D01*
X99475000Y-154050000D02*
X99475000Y-138950000D01*
X99475000Y-138950000D02*
X100300000Y-138950000D01*
X106325000Y-138950000D02*
X104975000Y-138950000D01*
X108800000Y-135825000D02*
X108800000Y-134675000D01*
X108200000Y-135825000D02*
X108200000Y-134675000D01*
X103100000Y-135825000D02*
X103100000Y-134675000D01*
X102500000Y-135825000D02*
X102500000Y-134675000D01*
X111000000Y-138000000D02*
X111600000Y-137700000D01*
X111600000Y-137700000D02*
X111600000Y-138300000D01*
X111600000Y-138300000D02*
X111000000Y-138000000D01*
D14*
X119300480Y-139000000D02*
G75*
G03X119300480Y-139000000I-1300480J0D01*
G01*
X121500120Y-139000000D02*
G75*
G03X121500120Y-139000000I-3500120J0D01*
G01*
X121599180Y-142599180D02*
X114400820Y-142599180D01*
X114400820Y-142599180D02*
X114400820Y-135400820D01*
X114400820Y-135400820D02*
X121599180Y-135400820D01*
X121599180Y-135400820D02*
X121599180Y-142599180D01*
D15*
G36*
X96375400Y-46851400D02*
X83650000Y-46851400D01*
X83650000Y-41876372D01*
X83875838Y-41876372D01*
X83875882Y-42294934D01*
X83876175Y-42711398D01*
X83876718Y-43122652D01*
X83877510Y-43525584D01*
X83878551Y-43917083D01*
X83879843Y-44294037D01*
X83881383Y-44653334D01*
X83883174Y-44991862D01*
X83885213Y-45306511D01*
X83887503Y-45594169D01*
X83890042Y-45851723D01*
X83892830Y-46076062D01*
X83895868Y-46264075D01*
X83899156Y-46412650D01*
X83902693Y-46518674D01*
X83906479Y-46579038D01*
X83909079Y-46592320D01*
X83923429Y-46595769D01*
X83960331Y-46598971D01*
X84021292Y-46601932D01*
X84107819Y-46604660D01*
X84221419Y-46607164D01*
X84363598Y-46609449D01*
X84535863Y-46611525D01*
X84739722Y-46613397D01*
X84976681Y-46615075D01*
X85248247Y-46616565D01*
X85555926Y-46617874D01*
X85901226Y-46619011D01*
X86285653Y-46619983D01*
X86710715Y-46620798D01*
X87177917Y-46621462D01*
X87688768Y-46621984D01*
X88244773Y-46622371D01*
X88847440Y-46622630D01*
X89498275Y-46622769D01*
X90016339Y-46622800D01*
X96093119Y-46622800D01*
X96132659Y-46566348D01*
X96137620Y-46555564D01*
X96142153Y-46536551D01*
X96146277Y-46507128D01*
X96150012Y-46465112D01*
X96153376Y-46408323D01*
X96156387Y-46334579D01*
X96159067Y-46241699D01*
X96161431Y-46127501D01*
X96163501Y-45989805D01*
X96165295Y-45826427D01*
X96166831Y-45635188D01*
X96168128Y-45413906D01*
X96169206Y-45160399D01*
X96170084Y-44872486D01*
X96170779Y-44547986D01*
X96171312Y-44184717D01*
X96171700Y-43780498D01*
X96171964Y-43333147D01*
X96172121Y-42840483D01*
X96172191Y-42300324D01*
X96172200Y-42002698D01*
X96172174Y-41439335D01*
X96172086Y-40924572D01*
X96171913Y-40456206D01*
X96171635Y-40032037D01*
X96171233Y-39649863D01*
X96170686Y-39307484D01*
X96169974Y-39002698D01*
X96169076Y-38733304D01*
X96167972Y-38497101D01*
X96166642Y-38291888D01*
X96165065Y-38115464D01*
X96163221Y-37965628D01*
X96161090Y-37840178D01*
X96158651Y-37736913D01*
X96155884Y-37653633D01*
X96152769Y-37588136D01*
X96149286Y-37538221D01*
X96145414Y-37501688D01*
X96141132Y-37476334D01*
X96136421Y-37459958D01*
X96131261Y-37450360D01*
X96130163Y-37449050D01*
X96124308Y-37444034D01*
X96114895Y-37439393D01*
X96100020Y-37435112D01*
X96077776Y-37431176D01*
X96046256Y-37427570D01*
X96003555Y-37424281D01*
X95947766Y-37421293D01*
X95876984Y-37418593D01*
X95789302Y-37416165D01*
X95682813Y-37413996D01*
X95555612Y-37412070D01*
X95405793Y-37410374D01*
X95231450Y-37408892D01*
X95030675Y-37407611D01*
X94801564Y-37406516D01*
X94542210Y-37405593D01*
X94250707Y-37404826D01*
X93925148Y-37404202D01*
X93563628Y-37403705D01*
X93164240Y-37403323D01*
X92725079Y-37403039D01*
X92244237Y-37402840D01*
X91719810Y-37402711D01*
X91149890Y-37402638D01*
X90532572Y-37402605D01*
X90013843Y-37402600D01*
X89326219Y-37402654D01*
X88687887Y-37402823D01*
X88097342Y-37403114D01*
X87553075Y-37403535D01*
X87053579Y-37404092D01*
X86597347Y-37404794D01*
X86182873Y-37405648D01*
X85808648Y-37406662D01*
X85473166Y-37407843D01*
X85174920Y-37409198D01*
X84912403Y-37410735D01*
X84684106Y-37412462D01*
X84488525Y-37414387D01*
X84324150Y-37416516D01*
X84189475Y-37418857D01*
X84082993Y-37421418D01*
X84003197Y-37424206D01*
X83948580Y-37427229D01*
X83917634Y-37430495D01*
X83909079Y-37433080D01*
X83905130Y-37462034D01*
X83901431Y-37538677D01*
X83897981Y-37659896D01*
X83894780Y-37822579D01*
X83891829Y-38023615D01*
X83889128Y-38259893D01*
X83886676Y-38528300D01*
X83884474Y-38825725D01*
X83882521Y-39149056D01*
X83880818Y-39495181D01*
X83879364Y-39860990D01*
X83878160Y-40243370D01*
X83877205Y-40639210D01*
X83876500Y-41045398D01*
X83876044Y-41458822D01*
X83875838Y-41876372D01*
X83650000Y-41876372D01*
X83650000Y-37174000D01*
X96375400Y-37174000D01*
X96375400Y-46851400D01*
X96375400Y-46851400D01*
G37*
X96375400Y-46851400D02*
X83650000Y-46851400D01*
X83650000Y-41876372D01*
X83875838Y-41876372D01*
X83875882Y-42294934D01*
X83876175Y-42711398D01*
X83876718Y-43122652D01*
X83877510Y-43525584D01*
X83878551Y-43917083D01*
X83879843Y-44294037D01*
X83881383Y-44653334D01*
X83883174Y-44991862D01*
X83885213Y-45306511D01*
X83887503Y-45594169D01*
X83890042Y-45851723D01*
X83892830Y-46076062D01*
X83895868Y-46264075D01*
X83899156Y-46412650D01*
X83902693Y-46518674D01*
X83906479Y-46579038D01*
X83909079Y-46592320D01*
X83923429Y-46595769D01*
X83960331Y-46598971D01*
X84021292Y-46601932D01*
X84107819Y-46604660D01*
X84221419Y-46607164D01*
X84363598Y-46609449D01*
X84535863Y-46611525D01*
X84739722Y-46613397D01*
X84976681Y-46615075D01*
X85248247Y-46616565D01*
X85555926Y-46617874D01*
X85901226Y-46619011D01*
X86285653Y-46619983D01*
X86710715Y-46620798D01*
X87177917Y-46621462D01*
X87688768Y-46621984D01*
X88244773Y-46622371D01*
X88847440Y-46622630D01*
X89498275Y-46622769D01*
X90016339Y-46622800D01*
X96093119Y-46622800D01*
X96132659Y-46566348D01*
X96137620Y-46555564D01*
X96142153Y-46536551D01*
X96146277Y-46507128D01*
X96150012Y-46465112D01*
X96153376Y-46408323D01*
X96156387Y-46334579D01*
X96159067Y-46241699D01*
X96161431Y-46127501D01*
X96163501Y-45989805D01*
X96165295Y-45826427D01*
X96166831Y-45635188D01*
X96168128Y-45413906D01*
X96169206Y-45160399D01*
X96170084Y-44872486D01*
X96170779Y-44547986D01*
X96171312Y-44184717D01*
X96171700Y-43780498D01*
X96171964Y-43333147D01*
X96172121Y-42840483D01*
X96172191Y-42300324D01*
X96172200Y-42002698D01*
X96172174Y-41439335D01*
X96172086Y-40924572D01*
X96171913Y-40456206D01*
X96171635Y-40032037D01*
X96171233Y-39649863D01*
X96170686Y-39307484D01*
X96169974Y-39002698D01*
X96169076Y-38733304D01*
X96167972Y-38497101D01*
X96166642Y-38291888D01*
X96165065Y-38115464D01*
X96163221Y-37965628D01*
X96161090Y-37840178D01*
X96158651Y-37736913D01*
X96155884Y-37653633D01*
X96152769Y-37588136D01*
X96149286Y-37538221D01*
X96145414Y-37501688D01*
X96141132Y-37476334D01*
X96136421Y-37459958D01*
X96131261Y-37450360D01*
X96130163Y-37449050D01*
X96124308Y-37444034D01*
X96114895Y-37439393D01*
X96100020Y-37435112D01*
X96077776Y-37431176D01*
X96046256Y-37427570D01*
X96003555Y-37424281D01*
X95947766Y-37421293D01*
X95876984Y-37418593D01*
X95789302Y-37416165D01*
X95682813Y-37413996D01*
X95555612Y-37412070D01*
X95405793Y-37410374D01*
X95231450Y-37408892D01*
X95030675Y-37407611D01*
X94801564Y-37406516D01*
X94542210Y-37405593D01*
X94250707Y-37404826D01*
X93925148Y-37404202D01*
X93563628Y-37403705D01*
X93164240Y-37403323D01*
X92725079Y-37403039D01*
X92244237Y-37402840D01*
X91719810Y-37402711D01*
X91149890Y-37402638D01*
X90532572Y-37402605D01*
X90013843Y-37402600D01*
X89326219Y-37402654D01*
X88687887Y-37402823D01*
X88097342Y-37403114D01*
X87553075Y-37403535D01*
X87053579Y-37404092D01*
X86597347Y-37404794D01*
X86182873Y-37405648D01*
X85808648Y-37406662D01*
X85473166Y-37407843D01*
X85174920Y-37409198D01*
X84912403Y-37410735D01*
X84684106Y-37412462D01*
X84488525Y-37414387D01*
X84324150Y-37416516D01*
X84189475Y-37418857D01*
X84082993Y-37421418D01*
X84003197Y-37424206D01*
X83948580Y-37427229D01*
X83917634Y-37430495D01*
X83909079Y-37433080D01*
X83905130Y-37462034D01*
X83901431Y-37538677D01*
X83897981Y-37659896D01*
X83894780Y-37822579D01*
X83891829Y-38023615D01*
X83889128Y-38259893D01*
X83886676Y-38528300D01*
X83884474Y-38825725D01*
X83882521Y-39149056D01*
X83880818Y-39495181D01*
X83879364Y-39860990D01*
X83878160Y-40243370D01*
X83877205Y-40639210D01*
X83876500Y-41045398D01*
X83876044Y-41458822D01*
X83875838Y-41876372D01*
X83650000Y-41876372D01*
X83650000Y-37174000D01*
X96375400Y-37174000D01*
X96375400Y-46851400D01*
G36*
X85053350Y-44545449D02*
X85225911Y-44556652D01*
X85355313Y-44575764D01*
X85448929Y-44605480D01*
X85514129Y-44648495D01*
X85558288Y-44707504D01*
X85571103Y-44734727D01*
X85597891Y-44851157D01*
X85584843Y-44963422D01*
X85533909Y-45056010D01*
X85530211Y-45060048D01*
X85478011Y-45115613D01*
X85529312Y-45162040D01*
X85588065Y-45246738D01*
X85613875Y-45353807D01*
X85606954Y-45467123D01*
X85567509Y-45570567D01*
X85523288Y-45626044D01*
X85464733Y-45671503D01*
X85396128Y-45702662D01*
X85307077Y-45721863D01*
X85187183Y-45731452D01*
X85045346Y-45733800D01*
X84767600Y-45733800D01*
X84767600Y-45225800D01*
X85021600Y-45225800D01*
X85021600Y-45530600D01*
X85130248Y-45530600D01*
X85212933Y-45521384D01*
X85282778Y-45498502D01*
X85295348Y-45491059D01*
X85341133Y-45431541D01*
X85348999Y-45355553D01*
X85317717Y-45281764D01*
X85309763Y-45272250D01*
X85255698Y-45238836D01*
X85167154Y-45226133D01*
X85144663Y-45225800D01*
X85021600Y-45225800D01*
X84767600Y-45225800D01*
X84767600Y-44768600D01*
X85021600Y-44768600D01*
X85021600Y-45022600D01*
X85117548Y-45022600D01*
X85197506Y-45012095D01*
X85264735Y-44986462D01*
X85269948Y-44983059D01*
X85314855Y-44926778D01*
X85324321Y-44858277D01*
X85295920Y-44799080D01*
X85253766Y-44780962D01*
X85181983Y-44770044D01*
X85143520Y-44768600D01*
X85021600Y-44768600D01*
X84767600Y-44768600D01*
X84767600Y-44533607D01*
X85053350Y-44545449D01*
X85053350Y-44545449D01*
G37*
X85053350Y-44545449D02*
X85225911Y-44556652D01*
X85355313Y-44575764D01*
X85448929Y-44605480D01*
X85514129Y-44648495D01*
X85558288Y-44707504D01*
X85571103Y-44734727D01*
X85597891Y-44851157D01*
X85584843Y-44963422D01*
X85533909Y-45056010D01*
X85530211Y-45060048D01*
X85478011Y-45115613D01*
X85529312Y-45162040D01*
X85588065Y-45246738D01*
X85613875Y-45353807D01*
X85606954Y-45467123D01*
X85567509Y-45570567D01*
X85523288Y-45626044D01*
X85464733Y-45671503D01*
X85396128Y-45702662D01*
X85307077Y-45721863D01*
X85187183Y-45731452D01*
X85045346Y-45733800D01*
X84767600Y-45733800D01*
X84767600Y-45225800D01*
X85021600Y-45225800D01*
X85021600Y-45530600D01*
X85130248Y-45530600D01*
X85212933Y-45521384D01*
X85282778Y-45498502D01*
X85295348Y-45491059D01*
X85341133Y-45431541D01*
X85348999Y-45355553D01*
X85317717Y-45281764D01*
X85309763Y-45272250D01*
X85255698Y-45238836D01*
X85167154Y-45226133D01*
X85144663Y-45225800D01*
X85021600Y-45225800D01*
X84767600Y-45225800D01*
X84767600Y-44768600D01*
X85021600Y-44768600D01*
X85021600Y-45022600D01*
X85117548Y-45022600D01*
X85197506Y-45012095D01*
X85264735Y-44986462D01*
X85269948Y-44983059D01*
X85314855Y-44926778D01*
X85324321Y-44858277D01*
X85295920Y-44799080D01*
X85253766Y-44780962D01*
X85181983Y-44770044D01*
X85143520Y-44768600D01*
X85021600Y-44768600D01*
X84767600Y-44768600D01*
X84767600Y-44533607D01*
X85053350Y-44545449D01*
G36*
X86418600Y-44768600D02*
X85936000Y-44768600D01*
X85936000Y-45022600D01*
X86342400Y-45022600D01*
X86342400Y-45251200D01*
X85936000Y-45251200D01*
X85936000Y-45505200D01*
X86444000Y-45505200D01*
X86444000Y-45733800D01*
X85682000Y-45733800D01*
X85682000Y-44540000D01*
X86418600Y-44540000D01*
X86418600Y-44768600D01*
X86418600Y-44768600D01*
G37*
X86418600Y-44768600D02*
X85936000Y-44768600D01*
X85936000Y-45022600D01*
X86342400Y-45022600D01*
X86342400Y-45251200D01*
X85936000Y-45251200D01*
X85936000Y-45505200D01*
X86444000Y-45505200D01*
X86444000Y-45733800D01*
X85682000Y-45733800D01*
X85682000Y-44540000D01*
X86418600Y-44540000D01*
X86418600Y-44768600D01*
G36*
X86755150Y-44540141D02*
X86919742Y-44543699D01*
X87043724Y-44555797D01*
X87136920Y-44578881D01*
X87209154Y-44615394D01*
X87270248Y-44667782D01*
X87270943Y-44668507D01*
X87314531Y-44720828D01*
X87337016Y-44773614D01*
X87345037Y-44847057D01*
X87345700Y-44895857D01*
X87342549Y-44985327D01*
X87328223Y-45044876D01*
X87295412Y-45095236D01*
X87262922Y-45130583D01*
X87180144Y-45215988D01*
X87281972Y-45450764D01*
X87324972Y-45552303D01*
X87358992Y-45637195D01*
X87379636Y-45694206D01*
X87383800Y-45710997D01*
X87360650Y-45724603D01*
X87299353Y-45730020D01*
X87251397Y-45728777D01*
X87118995Y-45721100D01*
X87018702Y-45486150D01*
X86971888Y-45378974D01*
X86937691Y-45310426D01*
X86909848Y-45271971D01*
X86882096Y-45255075D01*
X86848174Y-45251204D01*
X86846304Y-45251200D01*
X86774200Y-45251200D01*
X86774200Y-45733800D01*
X86494800Y-45733800D01*
X86494800Y-44768600D01*
X86774200Y-44768600D01*
X86774200Y-45022600D01*
X86899759Y-45022600D01*
X86983295Y-45017567D01*
X87034041Y-44998510D01*
X87064859Y-44966148D01*
X87097855Y-44910233D01*
X87095789Y-44869987D01*
X87056921Y-44822734D01*
X87053600Y-44819400D01*
X86989028Y-44780974D01*
X86892161Y-44768610D01*
X86888500Y-44768600D01*
X86774200Y-44768600D01*
X86494800Y-44768600D01*
X86494800Y-44540000D01*
X86755150Y-44540141D01*
X86755150Y-44540141D01*
G37*
X86755150Y-44540141D02*
X86919742Y-44543699D01*
X87043724Y-44555797D01*
X87136920Y-44578881D01*
X87209154Y-44615394D01*
X87270248Y-44667782D01*
X87270943Y-44668507D01*
X87314531Y-44720828D01*
X87337016Y-44773614D01*
X87345037Y-44847057D01*
X87345700Y-44895857D01*
X87342549Y-44985327D01*
X87328223Y-45044876D01*
X87295412Y-45095236D01*
X87262922Y-45130583D01*
X87180144Y-45215988D01*
X87281972Y-45450764D01*
X87324972Y-45552303D01*
X87358992Y-45637195D01*
X87379636Y-45694206D01*
X87383800Y-45710997D01*
X87360650Y-45724603D01*
X87299353Y-45730020D01*
X87251397Y-45728777D01*
X87118995Y-45721100D01*
X87018702Y-45486150D01*
X86971888Y-45378974D01*
X86937691Y-45310426D01*
X86909848Y-45271971D01*
X86882096Y-45255075D01*
X86848174Y-45251204D01*
X86846304Y-45251200D01*
X86774200Y-45251200D01*
X86774200Y-45733800D01*
X86494800Y-45733800D01*
X86494800Y-44768600D01*
X86774200Y-44768600D01*
X86774200Y-45022600D01*
X86899759Y-45022600D01*
X86983295Y-45017567D01*
X87034041Y-44998510D01*
X87064859Y-44966148D01*
X87097855Y-44910233D01*
X87095789Y-44869987D01*
X87056921Y-44822734D01*
X87053600Y-44819400D01*
X86989028Y-44780974D01*
X86892161Y-44768610D01*
X86888500Y-44768600D01*
X86774200Y-44768600D01*
X86494800Y-44768600D01*
X86494800Y-44540000D01*
X86755150Y-44540141D01*
G36*
X88310706Y-44543544D02*
X88327732Y-44558012D01*
X88318372Y-44589865D01*
X88281735Y-44645794D01*
X88216929Y-44732492D01*
X88166584Y-44798850D01*
X88102953Y-44885567D01*
X88053066Y-44958514D01*
X88023725Y-45007477D01*
X88018800Y-45020783D01*
X88030525Y-45051468D01*
X88062756Y-45117767D01*
X88111077Y-45211028D01*
X88171070Y-45322601D01*
X88196600Y-45369067D01*
X88259879Y-45485061D01*
X88313228Y-45585711D01*
X88352243Y-45662483D01*
X88372521Y-45706848D01*
X88374400Y-45713552D01*
X88351447Y-45724583D01*
X88291995Y-45729748D01*
X88228536Y-45728717D01*
X88082672Y-45721100D01*
X87952414Y-45484326D01*
X87822155Y-45247552D01*
X87768077Y-45316301D01*
X87736988Y-45367500D01*
X87720265Y-45431631D01*
X87714258Y-45525110D01*
X87714000Y-45559425D01*
X87714000Y-45733800D01*
X87460000Y-45733800D01*
X87460000Y-44540000D01*
X87712022Y-44540000D01*
X87726700Y-44984500D01*
X87888411Y-44762250D01*
X88050123Y-44540000D01*
X88201060Y-44540000D01*
X88268185Y-44539770D01*
X88310706Y-44543544D01*
X88310706Y-44543544D01*
G37*
X88310706Y-44543544D02*
X88327732Y-44558012D01*
X88318372Y-44589865D01*
X88281735Y-44645794D01*
X88216929Y-44732492D01*
X88166584Y-44798850D01*
X88102953Y-44885567D01*
X88053066Y-44958514D01*
X88023725Y-45007477D01*
X88018800Y-45020783D01*
X88030525Y-45051468D01*
X88062756Y-45117767D01*
X88111077Y-45211028D01*
X88171070Y-45322601D01*
X88196600Y-45369067D01*
X88259879Y-45485061D01*
X88313228Y-45585711D01*
X88352243Y-45662483D01*
X88372521Y-45706848D01*
X88374400Y-45713552D01*
X88351447Y-45724583D01*
X88291995Y-45729748D01*
X88228536Y-45728717D01*
X88082672Y-45721100D01*
X87952414Y-45484326D01*
X87822155Y-45247552D01*
X87768077Y-45316301D01*
X87736988Y-45367500D01*
X87720265Y-45431631D01*
X87714258Y-45525110D01*
X87714000Y-45559425D01*
X87714000Y-45733800D01*
X87460000Y-45733800D01*
X87460000Y-44540000D01*
X87712022Y-44540000D01*
X87726700Y-44984500D01*
X87888411Y-44762250D01*
X88050123Y-44540000D01*
X88201060Y-44540000D01*
X88268185Y-44539770D01*
X88310706Y-44543544D01*
G36*
X89161800Y-44768600D02*
X88679200Y-44768600D01*
X88679200Y-45022600D01*
X89085600Y-45022600D01*
X89085600Y-45251200D01*
X88679200Y-45251200D01*
X88679200Y-45505200D01*
X89187200Y-45505200D01*
X89187200Y-45733800D01*
X88425200Y-45733800D01*
X88425200Y-44540000D01*
X89161800Y-44540000D01*
X89161800Y-44768600D01*
X89161800Y-44768600D01*
G37*
X89161800Y-44768600D02*
X88679200Y-44768600D01*
X88679200Y-45022600D01*
X89085600Y-45022600D01*
X89085600Y-45251200D01*
X88679200Y-45251200D01*
X88679200Y-45505200D01*
X89187200Y-45505200D01*
X89187200Y-45733800D01*
X88425200Y-45733800D01*
X88425200Y-44540000D01*
X89161800Y-44540000D01*
X89161800Y-44768600D01*
G36*
X89542800Y-45505200D02*
X90025400Y-45505200D01*
X90025400Y-45733800D01*
X89288800Y-45733800D01*
X89288800Y-44540000D01*
X89542800Y-44540000D01*
X89542800Y-45505200D01*
X89542800Y-45505200D01*
G37*
X89542800Y-45505200D02*
X90025400Y-45505200D01*
X90025400Y-45733800D01*
X89288800Y-45733800D01*
X89288800Y-44540000D01*
X89542800Y-44540000D01*
X89542800Y-45505200D01*
G36*
X90863600Y-44768600D02*
X90381000Y-44768600D01*
X90381000Y-45022600D01*
X90787400Y-45022600D01*
X90787400Y-45251200D01*
X90381000Y-45251200D01*
X90381000Y-45505200D01*
X90889000Y-45505200D01*
X90889000Y-45733800D01*
X90127000Y-45733800D01*
X90127000Y-44540000D01*
X90863600Y-44540000D01*
X90863600Y-44768600D01*
X90863600Y-44768600D01*
G37*
X90863600Y-44768600D02*
X90381000Y-44768600D01*
X90381000Y-45022600D01*
X90787400Y-45022600D01*
X90787400Y-45251200D01*
X90381000Y-45251200D01*
X90381000Y-45505200D01*
X90889000Y-45505200D01*
X90889000Y-45733800D01*
X90127000Y-45733800D01*
X90127000Y-44540000D01*
X90863600Y-44540000D01*
X90863600Y-44768600D01*
G36*
X91428311Y-45035172D02*
X91552602Y-44787586D01*
X91676894Y-44540000D01*
X91803647Y-44540000D01*
X91876012Y-44544560D01*
X91921900Y-44556219D01*
X91930400Y-44565308D01*
X91918563Y-44595233D01*
X91885929Y-44661028D01*
X91836815Y-44754401D01*
X91775536Y-44867064D01*
X91739900Y-44931229D01*
X91549400Y-45271841D01*
X91549400Y-45733800D01*
X91295400Y-45733800D01*
X91295400Y-45265700D01*
X91104900Y-44917736D01*
X91039621Y-44797593D01*
X90983981Y-44693463D01*
X90942158Y-44613302D01*
X90918329Y-44565069D01*
X90914400Y-44554886D01*
X90937325Y-44546583D01*
X90996235Y-44541180D01*
X91048367Y-44540000D01*
X91182335Y-44540000D01*
X91428311Y-45035172D01*
X91428311Y-45035172D01*
G37*
X91428311Y-45035172D02*
X91552602Y-44787586D01*
X91676894Y-44540000D01*
X91803647Y-44540000D01*
X91876012Y-44544560D01*
X91921900Y-44556219D01*
X91930400Y-44565308D01*
X91918563Y-44595233D01*
X91885929Y-44661028D01*
X91836815Y-44754401D01*
X91775536Y-44867064D01*
X91739900Y-44931229D01*
X91549400Y-45271841D01*
X91549400Y-45733800D01*
X91295400Y-45733800D01*
X91295400Y-45265700D01*
X91104900Y-44917736D01*
X91039621Y-44797593D01*
X90983981Y-44693463D01*
X90942158Y-44613302D01*
X90918329Y-44565069D01*
X90914400Y-44554886D01*
X90937325Y-44546583D01*
X90996235Y-44541180D01*
X91048367Y-44540000D01*
X91182335Y-44540000D01*
X91428311Y-45035172D01*
G36*
X92692400Y-45505200D02*
X93175000Y-45505200D01*
X93175000Y-45733800D01*
X92438400Y-45733800D01*
X92438400Y-44540000D01*
X92692400Y-44540000D01*
X92692400Y-45505200D01*
X92692400Y-45505200D01*
G37*
X92692400Y-45505200D02*
X93175000Y-45505200D01*
X93175000Y-45733800D01*
X92438400Y-45733800D01*
X92438400Y-44540000D01*
X92692400Y-44540000D01*
X92692400Y-45505200D01*
G36*
X94061442Y-45092450D02*
X94107513Y-45254123D01*
X94149444Y-45401109D01*
X94185053Y-45525772D01*
X94212158Y-45620477D01*
X94228578Y-45677589D01*
X94232006Y-45689350D01*
X94233143Y-45715109D01*
X94209769Y-45728528D01*
X94151311Y-45733392D01*
X94107853Y-45733800D01*
X93970483Y-45733800D01*
X93939220Y-45594100D01*
X93907956Y-45454400D01*
X93582819Y-45454400D01*
X93501595Y-45733800D01*
X93376397Y-45733800D01*
X93304262Y-45730318D01*
X93258460Y-45721432D01*
X93250066Y-45714750D01*
X93256251Y-45685871D01*
X93274221Y-45615101D01*
X93302105Y-45509480D01*
X93338032Y-45376046D01*
X93379047Y-45225800D01*
X93636294Y-45225800D01*
X93735847Y-45225800D01*
X93798562Y-45221496D01*
X93832698Y-45210768D01*
X93834819Y-45206750D01*
X93828511Y-45174373D01*
X93812441Y-45106929D01*
X93789959Y-45018427D01*
X93787734Y-45009900D01*
X93741228Y-44832100D01*
X93710488Y-44946400D01*
X93686126Y-45037384D01*
X93663225Y-45123532D01*
X93658021Y-45143250D01*
X93636294Y-45225800D01*
X93379047Y-45225800D01*
X93380129Y-45221837D01*
X93408793Y-45117850D01*
X93568654Y-44540000D01*
X93904095Y-44540000D01*
X94061442Y-45092450D01*
X94061442Y-45092450D01*
G37*
X94061442Y-45092450D02*
X94107513Y-45254123D01*
X94149444Y-45401109D01*
X94185053Y-45525772D01*
X94212158Y-45620477D01*
X94228578Y-45677589D01*
X94232006Y-45689350D01*
X94233143Y-45715109D01*
X94209769Y-45728528D01*
X94151311Y-45733392D01*
X94107853Y-45733800D01*
X93970483Y-45733800D01*
X93939220Y-45594100D01*
X93907956Y-45454400D01*
X93582819Y-45454400D01*
X93501595Y-45733800D01*
X93376397Y-45733800D01*
X93304262Y-45730318D01*
X93258460Y-45721432D01*
X93250066Y-45714750D01*
X93256251Y-45685871D01*
X93274221Y-45615101D01*
X93302105Y-45509480D01*
X93338032Y-45376046D01*
X93379047Y-45225800D01*
X93636294Y-45225800D01*
X93735847Y-45225800D01*
X93798562Y-45221496D01*
X93832698Y-45210768D01*
X93834819Y-45206750D01*
X93828511Y-45174373D01*
X93812441Y-45106929D01*
X93789959Y-45018427D01*
X93787734Y-45009900D01*
X93741228Y-44832100D01*
X93710488Y-44946400D01*
X93686126Y-45037384D01*
X93663225Y-45123532D01*
X93658021Y-45143250D01*
X93636294Y-45225800D01*
X93379047Y-45225800D01*
X93380129Y-45221837D01*
X93408793Y-45117850D01*
X93568654Y-44540000D01*
X93904095Y-44540000D01*
X94061442Y-45092450D01*
G36*
X94720546Y-44547554D02*
X94878280Y-44571508D01*
X94994554Y-44613796D01*
X95072985Y-44676352D01*
X95117193Y-44761111D01*
X95130800Y-44867786D01*
X95116130Y-44985631D01*
X95083784Y-45049634D01*
X95055758Y-45088713D01*
X95052610Y-45120626D01*
X95076061Y-45165171D01*
X95096484Y-45195692D01*
X95145232Y-45306698D01*
X95153349Y-45424742D01*
X95124060Y-45537427D01*
X95060592Y-45632358D01*
X94966171Y-45697139D01*
X94965959Y-45697228D01*
X94878488Y-45718713D01*
X94741506Y-45730849D01*
X94598215Y-45733800D01*
X94318000Y-45733800D01*
X94318000Y-45225800D01*
X94572000Y-45225800D01*
X94572000Y-45530600D01*
X94686300Y-45530600D01*
X94784377Y-45518979D01*
X94849753Y-45481422D01*
X94851400Y-45479800D01*
X94896253Y-45408802D01*
X94896100Y-45339628D01*
X94856324Y-45280560D01*
X94782306Y-45239878D01*
X94686300Y-45225800D01*
X94572000Y-45225800D01*
X94318000Y-45225800D01*
X94318000Y-44768600D01*
X94572000Y-44768600D01*
X94572000Y-45022600D01*
X94667948Y-45022600D01*
X94747906Y-45012095D01*
X94815135Y-44986462D01*
X94820348Y-44983059D01*
X94870611Y-44927288D01*
X94876447Y-44869575D01*
X94843166Y-44818303D01*
X94776080Y-44781857D01*
X94684485Y-44768600D01*
X94572000Y-44768600D01*
X94318000Y-44768600D01*
X94318000Y-44540000D01*
X94517733Y-44540000D01*
X94720546Y-44547554D01*
X94720546Y-44547554D01*
G37*
X94720546Y-44547554D02*
X94878280Y-44571508D01*
X94994554Y-44613796D01*
X95072985Y-44676352D01*
X95117193Y-44761111D01*
X95130800Y-44867786D01*
X95116130Y-44985631D01*
X95083784Y-45049634D01*
X95055758Y-45088713D01*
X95052610Y-45120626D01*
X95076061Y-45165171D01*
X95096484Y-45195692D01*
X95145232Y-45306698D01*
X95153349Y-45424742D01*
X95124060Y-45537427D01*
X95060592Y-45632358D01*
X94966171Y-45697139D01*
X94965959Y-45697228D01*
X94878488Y-45718713D01*
X94741506Y-45730849D01*
X94598215Y-45733800D01*
X94318000Y-45733800D01*
X94318000Y-45225800D01*
X94572000Y-45225800D01*
X94572000Y-45530600D01*
X94686300Y-45530600D01*
X94784377Y-45518979D01*
X94849753Y-45481422D01*
X94851400Y-45479800D01*
X94896253Y-45408802D01*
X94896100Y-45339628D01*
X94856324Y-45280560D01*
X94782306Y-45239878D01*
X94686300Y-45225800D01*
X94572000Y-45225800D01*
X94318000Y-45225800D01*
X94318000Y-44768600D01*
X94572000Y-44768600D01*
X94572000Y-45022600D01*
X94667948Y-45022600D01*
X94747906Y-45012095D01*
X94815135Y-44986462D01*
X94820348Y-44983059D01*
X94870611Y-44927288D01*
X94876447Y-44869575D01*
X94843166Y-44818303D01*
X94776080Y-44781857D01*
X94684485Y-44768600D01*
X94572000Y-44768600D01*
X94318000Y-44768600D01*
X94318000Y-44540000D01*
X94517733Y-44540000D01*
X94720546Y-44547554D01*
G36*
X88905359Y-39142077D02*
X89373804Y-39211113D01*
X89490207Y-39234748D01*
X89879178Y-39336079D01*
X90274618Y-39472100D01*
X90667956Y-39638283D01*
X91050621Y-39830103D01*
X91414043Y-40043031D01*
X91749652Y-40272542D01*
X92048876Y-40514109D01*
X92221818Y-40677490D01*
X92398937Y-40857000D01*
X92971800Y-40857000D01*
X92971800Y-44032000D01*
X92717800Y-44032000D01*
X92717800Y-41085600D01*
X92204697Y-41085600D01*
X92023098Y-40924976D01*
X91623082Y-40595735D01*
X91205534Y-40298826D01*
X90776384Y-40037533D01*
X90341560Y-39815142D01*
X89906992Y-39634936D01*
X89478609Y-39500200D01*
X89427418Y-39487123D01*
X88913407Y-39383419D01*
X88394070Y-39327273D01*
X87866931Y-39318736D01*
X87329514Y-39357855D01*
X86779343Y-39444681D01*
X86328089Y-39548593D01*
X86031534Y-39632756D01*
X85738186Y-39728603D01*
X85464187Y-39830532D01*
X85239824Y-39926360D01*
X85148417Y-39966598D01*
X85075573Y-39994887D01*
X85032526Y-40007028D01*
X85026040Y-40006307D01*
X85019996Y-39998719D01*
X85022403Y-39989944D01*
X85039478Y-39976365D01*
X85077434Y-39954364D01*
X85142486Y-39920324D01*
X85240848Y-39870629D01*
X85371060Y-39805496D01*
X85692286Y-39653876D01*
X86018419Y-39516625D01*
X86338652Y-39397704D01*
X86642180Y-39301079D01*
X86918196Y-39230711D01*
X86964700Y-39221024D01*
X87433512Y-39147881D01*
X87922021Y-39110390D01*
X88417034Y-39108479D01*
X88905359Y-39142077D01*
X88905359Y-39142077D01*
G37*
X88905359Y-39142077D02*
X89373804Y-39211113D01*
X89490207Y-39234748D01*
X89879178Y-39336079D01*
X90274618Y-39472100D01*
X90667956Y-39638283D01*
X91050621Y-39830103D01*
X91414043Y-40043031D01*
X91749652Y-40272542D01*
X92048876Y-40514109D01*
X92221818Y-40677490D01*
X92398937Y-40857000D01*
X92971800Y-40857000D01*
X92971800Y-44032000D01*
X92717800Y-44032000D01*
X92717800Y-41085600D01*
X92204697Y-41085600D01*
X92023098Y-40924976D01*
X91623082Y-40595735D01*
X91205534Y-40298826D01*
X90776384Y-40037533D01*
X90341560Y-39815142D01*
X89906992Y-39634936D01*
X89478609Y-39500200D01*
X89427418Y-39487123D01*
X88913407Y-39383419D01*
X88394070Y-39327273D01*
X87866931Y-39318736D01*
X87329514Y-39357855D01*
X86779343Y-39444681D01*
X86328089Y-39548593D01*
X86031534Y-39632756D01*
X85738186Y-39728603D01*
X85464187Y-39830532D01*
X85239824Y-39926360D01*
X85148417Y-39966598D01*
X85075573Y-39994887D01*
X85032526Y-40007028D01*
X85026040Y-40006307D01*
X85019996Y-39998719D01*
X85022403Y-39989944D01*
X85039478Y-39976365D01*
X85077434Y-39954364D01*
X85142486Y-39920324D01*
X85240848Y-39870629D01*
X85371060Y-39805496D01*
X85692286Y-39653876D01*
X86018419Y-39516625D01*
X86338652Y-39397704D01*
X86642180Y-39301079D01*
X86918196Y-39230711D01*
X86964700Y-39221024D01*
X87433512Y-39147881D01*
X87922021Y-39110390D01*
X88417034Y-39108479D01*
X88905359Y-39142077D01*
G36*
X93759742Y-40186464D02*
X93773472Y-40234700D01*
X93780217Y-40275821D01*
X93786087Y-40343263D01*
X93791133Y-40439795D01*
X93795405Y-40568191D01*
X93798956Y-40731223D01*
X93801835Y-40931663D01*
X93804092Y-41172283D01*
X93805780Y-41455856D01*
X93806949Y-41785153D01*
X93807561Y-42095250D01*
X93810000Y-43828800D01*
X93657600Y-43828800D01*
X93657600Y-42140950D01*
X93657803Y-41785312D01*
X93658500Y-41476751D01*
X93659819Y-41211543D01*
X93661890Y-40985965D01*
X93664842Y-40796295D01*
X93668803Y-40638810D01*
X93673903Y-40509788D01*
X93680270Y-40405506D01*
X93688035Y-40322240D01*
X93697326Y-40256269D01*
X93708272Y-40203869D01*
X93721003Y-40161318D01*
X93726790Y-40145800D01*
X93740632Y-40144114D01*
X93759742Y-40186464D01*
X93759742Y-40186464D01*
G37*
X93759742Y-40186464D02*
X93773472Y-40234700D01*
X93780217Y-40275821D01*
X93786087Y-40343263D01*
X93791133Y-40439795D01*
X93795405Y-40568191D01*
X93798956Y-40731223D01*
X93801835Y-40931663D01*
X93804092Y-41172283D01*
X93805780Y-41455856D01*
X93806949Y-41785153D01*
X93807561Y-42095250D01*
X93810000Y-43828800D01*
X93657600Y-43828800D01*
X93657600Y-42140950D01*
X93657803Y-41785312D01*
X93658500Y-41476751D01*
X93659819Y-41211543D01*
X93661890Y-40985965D01*
X93664842Y-40796295D01*
X93668803Y-40638810D01*
X93673903Y-40509788D01*
X93680270Y-40405506D01*
X93688035Y-40322240D01*
X93697326Y-40256269D01*
X93708272Y-40203869D01*
X93721003Y-40161318D01*
X93726790Y-40145800D01*
X93740632Y-40144114D01*
X93759742Y-40186464D01*
G36*
X94939621Y-40160688D02*
X94967735Y-40225592D01*
X94987723Y-40283674D01*
X94995993Y-40313043D01*
X95003103Y-40350080D01*
X95009137Y-40398566D01*
X95014183Y-40462283D01*
X95018324Y-40545012D01*
X95021647Y-40650533D01*
X95024237Y-40782629D01*
X95026180Y-40945080D01*
X95027560Y-41141667D01*
X95028464Y-41376172D01*
X95028976Y-41652376D01*
X95029183Y-41974060D01*
X95029200Y-42118824D01*
X95029200Y-43828800D01*
X94826000Y-43828800D01*
X94826000Y-42093424D01*
X94826106Y-41749415D01*
X94826479Y-41452471D01*
X94827203Y-41198857D01*
X94828361Y-40984838D01*
X94830034Y-40806680D01*
X94832306Y-40660647D01*
X94835260Y-40543005D01*
X94838979Y-40450019D01*
X94843545Y-40377955D01*
X94849041Y-40323076D01*
X94855550Y-40281650D01*
X94863156Y-40249940D01*
X94867171Y-40237216D01*
X94894033Y-40168309D01*
X94916618Y-40142197D01*
X94939621Y-40160688D01*
X94939621Y-40160688D01*
G37*
X94939621Y-40160688D02*
X94967735Y-40225592D01*
X94987723Y-40283674D01*
X94995993Y-40313043D01*
X95003103Y-40350080D01*
X95009137Y-40398566D01*
X95014183Y-40462283D01*
X95018324Y-40545012D01*
X95021647Y-40650533D01*
X95024237Y-40782629D01*
X95026180Y-40945080D01*
X95027560Y-41141667D01*
X95028464Y-41376172D01*
X95028976Y-41652376D01*
X95029183Y-41974060D01*
X95029200Y-42118824D01*
X95029200Y-43828800D01*
X94826000Y-43828800D01*
X94826000Y-42093424D01*
X94826106Y-41749415D01*
X94826479Y-41452471D01*
X94827203Y-41198857D01*
X94828361Y-40984838D01*
X94830034Y-40806680D01*
X94832306Y-40660647D01*
X94835260Y-40543005D01*
X94838979Y-40450019D01*
X94843545Y-40377955D01*
X94849041Y-40323076D01*
X94855550Y-40281650D01*
X94863156Y-40249940D01*
X94867171Y-40237216D01*
X94894033Y-40168309D01*
X94916618Y-40142197D01*
X94939621Y-40160688D01*
G36*
X85387504Y-41347377D02*
X85493058Y-41357663D01*
X85571820Y-41374678D01*
X85592561Y-41383496D01*
X85611716Y-41399654D01*
X85598139Y-41413313D01*
X85545115Y-41428127D01*
X85489763Y-41439441D01*
X85398912Y-41457173D01*
X85321680Y-41472505D01*
X85285537Y-41479883D01*
X85251936Y-41496473D01*
X85231205Y-41537021D01*
X85217220Y-41614285D01*
X85215908Y-41624933D01*
X85206707Y-41729404D01*
X85200788Y-41849955D01*
X85199620Y-41915649D01*
X85199400Y-42072598D01*
X85053350Y-42100799D01*
X84962553Y-42118530D01*
X84884404Y-42134134D01*
X84849592Y-42141323D01*
X84798099Y-42138620D01*
X84779216Y-42120636D01*
X84776169Y-42083030D01*
X84777715Y-42006738D01*
X84783416Y-41903625D01*
X84790742Y-41809003D01*
X84802197Y-41685720D01*
X84813247Y-41601925D01*
X84827145Y-41546440D01*
X84847148Y-41508084D01*
X84876509Y-41475679D01*
X84891873Y-41461637D01*
X84968167Y-41409855D01*
X85059110Y-41369105D01*
X85077755Y-41363432D01*
X85163087Y-41349608D01*
X85271925Y-41344474D01*
X85387504Y-41347377D01*
X85387504Y-41347377D01*
G37*
X85387504Y-41347377D02*
X85493058Y-41357663D01*
X85571820Y-41374678D01*
X85592561Y-41383496D01*
X85611716Y-41399654D01*
X85598139Y-41413313D01*
X85545115Y-41428127D01*
X85489763Y-41439441D01*
X85398912Y-41457173D01*
X85321680Y-41472505D01*
X85285537Y-41479883D01*
X85251936Y-41496473D01*
X85231205Y-41537021D01*
X85217220Y-41614285D01*
X85215908Y-41624933D01*
X85206707Y-41729404D01*
X85200788Y-41849955D01*
X85199620Y-41915649D01*
X85199400Y-42072598D01*
X85053350Y-42100799D01*
X84962553Y-42118530D01*
X84884404Y-42134134D01*
X84849592Y-42141323D01*
X84798099Y-42138620D01*
X84779216Y-42120636D01*
X84776169Y-42083030D01*
X84777715Y-42006738D01*
X84783416Y-41903625D01*
X84790742Y-41809003D01*
X84802197Y-41685720D01*
X84813247Y-41601925D01*
X84827145Y-41546440D01*
X84847148Y-41508084D01*
X84876509Y-41475679D01*
X84891873Y-41461637D01*
X84968167Y-41409855D01*
X85059110Y-41369105D01*
X85077755Y-41363432D01*
X85163087Y-41349608D01*
X85271925Y-41344474D01*
X85387504Y-41347377D01*
G36*
X87600139Y-41356956D02*
X87704427Y-41366873D01*
X87785737Y-41382107D01*
X87833223Y-41400889D01*
X87841000Y-41412397D01*
X87817840Y-41425276D01*
X87756432Y-41441749D01*
X87668887Y-41458712D01*
X87645887Y-41462425D01*
X87552939Y-41477552D01*
X87482129Y-41490355D01*
X87446087Y-41498514D01*
X87444057Y-41499475D01*
X87439989Y-41525934D01*
X87433965Y-41592821D01*
X87426817Y-41689841D01*
X87419816Y-41799317D01*
X87402292Y-42092444D01*
X87227474Y-42122422D01*
X87135903Y-42137454D01*
X87062911Y-42148212D01*
X87024097Y-42152398D01*
X87023850Y-42152400D01*
X87011466Y-42135561D01*
X87005234Y-42081992D01*
X87004956Y-41987116D01*
X87010432Y-41846353D01*
X87010489Y-41845217D01*
X87018764Y-41722962D01*
X87029850Y-41617726D01*
X87042290Y-41540797D01*
X87054522Y-41503588D01*
X87127597Y-41445972D01*
X87235566Y-41398202D01*
X87362712Y-41365751D01*
X87483718Y-41354124D01*
X87600139Y-41356956D01*
X87600139Y-41356956D01*
G37*
X87600139Y-41356956D02*
X87704427Y-41366873D01*
X87785737Y-41382107D01*
X87833223Y-41400889D01*
X87841000Y-41412397D01*
X87817840Y-41425276D01*
X87756432Y-41441749D01*
X87668887Y-41458712D01*
X87645887Y-41462425D01*
X87552939Y-41477552D01*
X87482129Y-41490355D01*
X87446087Y-41498514D01*
X87444057Y-41499475D01*
X87439989Y-41525934D01*
X87433965Y-41592821D01*
X87426817Y-41689841D01*
X87419816Y-41799317D01*
X87402292Y-42092444D01*
X87227474Y-42122422D01*
X87135903Y-42137454D01*
X87062911Y-42148212D01*
X87024097Y-42152398D01*
X87023850Y-42152400D01*
X87011466Y-42135561D01*
X87005234Y-42081992D01*
X87004956Y-41987116D01*
X87010432Y-41846353D01*
X87010489Y-41845217D01*
X87018764Y-41722962D01*
X87029850Y-41617726D01*
X87042290Y-41540797D01*
X87054522Y-41503588D01*
X87127597Y-41445972D01*
X87235566Y-41398202D01*
X87362712Y-41365751D01*
X87483718Y-41354124D01*
X87600139Y-41356956D01*
G36*
X92147295Y-41351635D02*
X92208711Y-41364567D01*
X92273697Y-41387206D01*
X92290516Y-41407551D01*
X92258418Y-41426327D01*
X92176649Y-41444254D01*
X92116514Y-41453178D01*
X92031010Y-41466894D01*
X91972306Y-41486928D01*
X91934576Y-41522246D01*
X91911989Y-41581816D01*
X91898718Y-41674605D01*
X91889370Y-41802614D01*
X91880003Y-41928384D01*
X91869671Y-42011607D01*
X91856695Y-42060531D01*
X91839393Y-42083403D01*
X91831443Y-42086948D01*
X91789682Y-42096515D01*
X91718312Y-42110765D01*
X91634302Y-42126562D01*
X91554621Y-42140770D01*
X91496237Y-42150252D01*
X91477357Y-42152400D01*
X91473971Y-42128669D01*
X91473460Y-42063979D01*
X91475712Y-41968084D01*
X91480614Y-41850736D01*
X91480889Y-41845217D01*
X91490239Y-41708060D01*
X91502616Y-41598712D01*
X91516875Y-41525656D01*
X91527518Y-41500460D01*
X91607317Y-41437438D01*
X91722936Y-41388302D01*
X91860634Y-41355796D01*
X92006667Y-41342660D01*
X92147295Y-41351635D01*
X92147295Y-41351635D01*
G37*
X92147295Y-41351635D02*
X92208711Y-41364567D01*
X92273697Y-41387206D01*
X92290516Y-41407551D01*
X92258418Y-41426327D01*
X92176649Y-41444254D01*
X92116514Y-41453178D01*
X92031010Y-41466894D01*
X91972306Y-41486928D01*
X91934576Y-41522246D01*
X91911989Y-41581816D01*
X91898718Y-41674605D01*
X91889370Y-41802614D01*
X91880003Y-41928384D01*
X91869671Y-42011607D01*
X91856695Y-42060531D01*
X91839393Y-42083403D01*
X91831443Y-42086948D01*
X91789682Y-42096515D01*
X91718312Y-42110765D01*
X91634302Y-42126562D01*
X91554621Y-42140770D01*
X91496237Y-42150252D01*
X91477357Y-42152400D01*
X91473971Y-42128669D01*
X91473460Y-42063979D01*
X91475712Y-41968084D01*
X91480614Y-41850736D01*
X91480889Y-41845217D01*
X91490239Y-41708060D01*
X91502616Y-41598712D01*
X91516875Y-41525656D01*
X91527518Y-41500460D01*
X91607317Y-41437438D01*
X91722936Y-41388302D01*
X91860634Y-41355796D01*
X92006667Y-41342660D01*
X92147295Y-41351635D01*
G36*
X86453445Y-41343261D02*
X86582905Y-41352332D01*
X86666107Y-41366083D01*
X86702118Y-41383380D01*
X86690009Y-41403090D01*
X86628849Y-41424078D01*
X86534957Y-41442506D01*
X86441658Y-41459362D01*
X86369957Y-41475710D01*
X86332841Y-41488502D01*
X86330663Y-41490440D01*
X86325014Y-41521094D01*
X86317563Y-41591483D01*
X86309343Y-41690622D01*
X86302502Y-41789638D01*
X86284622Y-42072200D01*
X86127280Y-42099600D01*
X86021882Y-42118389D01*
X85951172Y-42126444D01*
X85908839Y-42116520D01*
X85888574Y-42081371D01*
X85884066Y-42013754D01*
X85889004Y-41906422D01*
X85893294Y-41830953D01*
X85901427Y-41699773D01*
X85910620Y-41608987D01*
X85922959Y-41548198D01*
X85940530Y-41507010D01*
X85964507Y-41475992D01*
X86061141Y-41403379D01*
X86190244Y-41359165D01*
X86356475Y-41342085D01*
X86453445Y-41343261D01*
X86453445Y-41343261D01*
G37*
X86453445Y-41343261D02*
X86582905Y-41352332D01*
X86666107Y-41366083D01*
X86702118Y-41383380D01*
X86690009Y-41403090D01*
X86628849Y-41424078D01*
X86534957Y-41442506D01*
X86441658Y-41459362D01*
X86369957Y-41475710D01*
X86332841Y-41488502D01*
X86330663Y-41490440D01*
X86325014Y-41521094D01*
X86317563Y-41591483D01*
X86309343Y-41690622D01*
X86302502Y-41789638D01*
X86284622Y-42072200D01*
X86127280Y-42099600D01*
X86021882Y-42118389D01*
X85951172Y-42126444D01*
X85908839Y-42116520D01*
X85888574Y-42081371D01*
X85884066Y-42013754D01*
X85889004Y-41906422D01*
X85893294Y-41830953D01*
X85901427Y-41699773D01*
X85910620Y-41608987D01*
X85922959Y-41548198D01*
X85940530Y-41507010D01*
X85964507Y-41475992D01*
X86061141Y-41403379D01*
X86190244Y-41359165D01*
X86356475Y-41342085D01*
X86453445Y-41343261D01*
G36*
X88691844Y-41344558D02*
X88819518Y-41354748D01*
X88901507Y-41368914D01*
X88936703Y-41386096D01*
X88923996Y-41405332D01*
X88862279Y-41425661D01*
X88799875Y-41438225D01*
X88709311Y-41453004D01*
X88635520Y-41463267D01*
X88598242Y-41466600D01*
X88574584Y-41490868D01*
X88554644Y-41559291D01*
X88539411Y-41665299D01*
X88529874Y-41802320D01*
X88526980Y-41940242D01*
X88526800Y-42070985D01*
X88365969Y-42098992D01*
X88259023Y-42118058D01*
X88187328Y-42126291D01*
X88144406Y-42116446D01*
X88123778Y-42081284D01*
X88118965Y-42013561D01*
X88123488Y-41906035D01*
X88127366Y-41832272D01*
X88134829Y-41701973D01*
X88143459Y-41611953D01*
X88155362Y-41551699D01*
X88172644Y-41510700D01*
X88197410Y-41478442D01*
X88198467Y-41477311D01*
X88295422Y-41403655D01*
X88423061Y-41359181D01*
X88586568Y-41342494D01*
X88691844Y-41344558D01*
X88691844Y-41344558D01*
G37*
X88691844Y-41344558D02*
X88819518Y-41354748D01*
X88901507Y-41368914D01*
X88936703Y-41386096D01*
X88923996Y-41405332D01*
X88862279Y-41425661D01*
X88799875Y-41438225D01*
X88709311Y-41453004D01*
X88635520Y-41463267D01*
X88598242Y-41466600D01*
X88574584Y-41490868D01*
X88554644Y-41559291D01*
X88539411Y-41665299D01*
X88529874Y-41802320D01*
X88526980Y-41940242D01*
X88526800Y-42070985D01*
X88365969Y-42098992D01*
X88259023Y-42118058D01*
X88187328Y-42126291D01*
X88144406Y-42116446D01*
X88123778Y-42081284D01*
X88118965Y-42013561D01*
X88123488Y-41906035D01*
X88127366Y-41832272D01*
X88134829Y-41701973D01*
X88143459Y-41611953D01*
X88155362Y-41551699D01*
X88172644Y-41510700D01*
X88197410Y-41478442D01*
X88198467Y-41477311D01*
X88295422Y-41403655D01*
X88423061Y-41359181D01*
X88586568Y-41342494D01*
X88691844Y-41344558D01*
G36*
X89815749Y-41344785D02*
X89948060Y-41353702D01*
X90035882Y-41366873D01*
X90077896Y-41383329D01*
X90072782Y-41402099D01*
X90019220Y-41422213D01*
X89942875Y-41438225D01*
X89852300Y-41453004D01*
X89778487Y-41463267D01*
X89741187Y-41466600D01*
X89716103Y-41490962D01*
X89695549Y-41560159D01*
X89680435Y-41668355D01*
X89671671Y-41809712D01*
X89669800Y-41924918D01*
X89669800Y-42070985D01*
X89508969Y-42098992D01*
X89395836Y-42117388D01*
X89323454Y-42124641D01*
X89282882Y-42120159D01*
X89265179Y-42103346D01*
X89261541Y-42082550D01*
X89260569Y-41988421D01*
X89263444Y-41871488D01*
X89269274Y-41750838D01*
X89277171Y-41645561D01*
X89284895Y-41582105D01*
X89299478Y-41523070D01*
X89326909Y-41481096D01*
X89379505Y-41442508D01*
X89441434Y-41408321D01*
X89511752Y-41373413D01*
X89570810Y-41352484D01*
X89634878Y-41342772D01*
X89720226Y-41341516D01*
X89815749Y-41344785D01*
X89815749Y-41344785D01*
G37*
X89815749Y-41344785D02*
X89948060Y-41353702D01*
X90035882Y-41366873D01*
X90077896Y-41383329D01*
X90072782Y-41402099D01*
X90019220Y-41422213D01*
X89942875Y-41438225D01*
X89852300Y-41453004D01*
X89778487Y-41463267D01*
X89741187Y-41466600D01*
X89716103Y-41490962D01*
X89695549Y-41560159D01*
X89680435Y-41668355D01*
X89671671Y-41809712D01*
X89669800Y-41924918D01*
X89669800Y-42070985D01*
X89508969Y-42098992D01*
X89395836Y-42117388D01*
X89323454Y-42124641D01*
X89282882Y-42120159D01*
X89265179Y-42103346D01*
X89261541Y-42082550D01*
X89260569Y-41988421D01*
X89263444Y-41871488D01*
X89269274Y-41750838D01*
X89277171Y-41645561D01*
X89284895Y-41582105D01*
X89299478Y-41523070D01*
X89326909Y-41481096D01*
X89379505Y-41442508D01*
X89441434Y-41408321D01*
X89511752Y-41373413D01*
X89570810Y-41352484D01*
X89634878Y-41342772D01*
X89720226Y-41341516D01*
X89815749Y-41344785D01*
G36*
X91047750Y-41337802D02*
X91125683Y-41357201D01*
X91178670Y-41376063D01*
X91193800Y-41387689D01*
X91170717Y-41400585D01*
X91109880Y-41416801D01*
X91023898Y-41433046D01*
X91013819Y-41434635D01*
X90923142Y-41450395D01*
X90853508Y-41465712D01*
X90819009Y-41477452D01*
X90818211Y-41478121D01*
X90805378Y-41513390D01*
X90792033Y-41586437D01*
X90779745Y-41684282D01*
X90770086Y-41793948D01*
X90764626Y-41902453D01*
X90764143Y-41924979D01*
X90762000Y-42065859D01*
X90583728Y-42096429D01*
X90491296Y-42111622D01*
X90417395Y-42122566D01*
X90377413Y-42126990D01*
X90376643Y-42127000D01*
X90363923Y-42109930D01*
X90357801Y-42055638D01*
X90358059Y-41959496D01*
X90363202Y-41840136D01*
X90370600Y-41721623D01*
X90378890Y-41619901D01*
X90386981Y-41546884D01*
X90392885Y-41516286D01*
X90442477Y-41452158D01*
X90531147Y-41397725D01*
X90647609Y-41356063D01*
X90780573Y-41330248D01*
X90918753Y-41323357D01*
X91047750Y-41337802D01*
X91047750Y-41337802D01*
G37*
X91047750Y-41337802D02*
X91125683Y-41357201D01*
X91178670Y-41376063D01*
X91193800Y-41387689D01*
X91170717Y-41400585D01*
X91109880Y-41416801D01*
X91023898Y-41433046D01*
X91013819Y-41434635D01*
X90923142Y-41450395D01*
X90853508Y-41465712D01*
X90819009Y-41477452D01*
X90818211Y-41478121D01*
X90805378Y-41513390D01*
X90792033Y-41586437D01*
X90779745Y-41684282D01*
X90770086Y-41793948D01*
X90764626Y-41902453D01*
X90764143Y-41924979D01*
X90762000Y-42065859D01*
X90583728Y-42096429D01*
X90491296Y-42111622D01*
X90417395Y-42122566D01*
X90377413Y-42126990D01*
X90376643Y-42127000D01*
X90363923Y-42109930D01*
X90357801Y-42055638D01*
X90358059Y-41959496D01*
X90363202Y-41840136D01*
X90370600Y-41721623D01*
X90378890Y-41619901D01*
X90386981Y-41546884D01*
X90392885Y-41516286D01*
X90442477Y-41452158D01*
X90531147Y-41397725D01*
X90647609Y-41356063D01*
X90780573Y-41330248D01*
X90918753Y-41323357D01*
X91047750Y-41337802D01*
G36*
X94042756Y-40515419D02*
X94059882Y-40523868D01*
X94072163Y-40541462D01*
X94080232Y-40575380D01*
X94084720Y-40632806D01*
X94086261Y-40720918D01*
X94085486Y-40846900D01*
X94083628Y-40979545D01*
X94076700Y-41428500D01*
X94012249Y-41436016D01*
X93956766Y-41435338D01*
X93929699Y-41425432D01*
X93923771Y-41395254D01*
X93918657Y-41322928D01*
X93914702Y-41217106D01*
X93912249Y-41086438D01*
X93911600Y-40969784D01*
X93912121Y-40808893D01*
X93914119Y-40691692D01*
X93918247Y-40611075D01*
X93925159Y-40559939D01*
X93935506Y-40531180D01*
X93949942Y-40517693D01*
X93953278Y-40516241D01*
X94012581Y-40509938D01*
X94042756Y-40515419D01*
X94042756Y-40515419D01*
G37*
X94042756Y-40515419D02*
X94059882Y-40523868D01*
X94072163Y-40541462D01*
X94080232Y-40575380D01*
X94084720Y-40632806D01*
X94086261Y-40720918D01*
X94085486Y-40846900D01*
X94083628Y-40979545D01*
X94076700Y-41428500D01*
X94012249Y-41436016D01*
X93956766Y-41435338D01*
X93929699Y-41425432D01*
X93923771Y-41395254D01*
X93918657Y-41322928D01*
X93914702Y-41217106D01*
X93912249Y-41086438D01*
X93911600Y-40969784D01*
X93912121Y-40808893D01*
X93914119Y-40691692D01*
X93918247Y-40611075D01*
X93925159Y-40559939D01*
X93935506Y-40531180D01*
X93949942Y-40517693D01*
X93953278Y-40516241D01*
X94012581Y-40509938D01*
X94042756Y-40515419D01*
G36*
X94362450Y-40516964D02*
X94379310Y-40533033D01*
X94391673Y-40561853D01*
X94400424Y-40611024D01*
X94406449Y-40688143D01*
X94410636Y-40800809D01*
X94413870Y-40956620D01*
X94413893Y-40957956D01*
X94415690Y-41127154D01*
X94413667Y-41252111D01*
X94406537Y-41339325D01*
X94393009Y-41395293D01*
X94371795Y-41426512D01*
X94341605Y-41439478D01*
X94318000Y-41441200D01*
X94263689Y-41422882D01*
X94244266Y-41406072D01*
X94231954Y-41367224D01*
X94224172Y-41284457D01*
X94220815Y-41155606D01*
X94221775Y-40978510D01*
X94222106Y-40957956D01*
X94225337Y-40801797D01*
X94229513Y-40688839D01*
X94235522Y-40611484D01*
X94244249Y-40562134D01*
X94256582Y-40533190D01*
X94273406Y-40517055D01*
X94273550Y-40516964D01*
X94328209Y-40502542D01*
X94362450Y-40516964D01*
X94362450Y-40516964D01*
G37*
X94362450Y-40516964D02*
X94379310Y-40533033D01*
X94391673Y-40561853D01*
X94400424Y-40611024D01*
X94406449Y-40688143D01*
X94410636Y-40800809D01*
X94413870Y-40956620D01*
X94413893Y-40957956D01*
X94415690Y-41127154D01*
X94413667Y-41252111D01*
X94406537Y-41339325D01*
X94393009Y-41395293D01*
X94371795Y-41426512D01*
X94341605Y-41439478D01*
X94318000Y-41441200D01*
X94263689Y-41422882D01*
X94244266Y-41406072D01*
X94231954Y-41367224D01*
X94224172Y-41284457D01*
X94220815Y-41155606D01*
X94221775Y-40978510D01*
X94222106Y-40957956D01*
X94225337Y-40801797D01*
X94229513Y-40688839D01*
X94235522Y-40611484D01*
X94244249Y-40562134D01*
X94256582Y-40533190D01*
X94273406Y-40517055D01*
X94273550Y-40516964D01*
X94328209Y-40502542D01*
X94362450Y-40516964D01*
G36*
X94665987Y-40524896D02*
X94684485Y-40541314D01*
X94700438Y-40565799D01*
X94711654Y-40607353D01*
X94718877Y-40673836D01*
X94722855Y-40773108D01*
X94724332Y-40913029D01*
X94724400Y-40962084D01*
X94722680Y-41103679D01*
X94717921Y-41227409D01*
X94710722Y-41323470D01*
X94701683Y-41382061D01*
X94698106Y-41392069D01*
X94656278Y-41427816D01*
X94596213Y-41441998D01*
X94544160Y-41429332D01*
X94538133Y-41424266D01*
X94529663Y-41390787D01*
X94523868Y-41317037D01*
X94520589Y-41213464D01*
X94519668Y-41090517D01*
X94520946Y-40958646D01*
X94524263Y-40828300D01*
X94529462Y-40709927D01*
X94536385Y-40613978D01*
X94544871Y-40550901D01*
X94551679Y-40531880D01*
X94607104Y-40503132D01*
X94665987Y-40524896D01*
X94665987Y-40524896D01*
G37*
X94665987Y-40524896D02*
X94684485Y-40541314D01*
X94700438Y-40565799D01*
X94711654Y-40607353D01*
X94718877Y-40673836D01*
X94722855Y-40773108D01*
X94724332Y-40913029D01*
X94724400Y-40962084D01*
X94722680Y-41103679D01*
X94717921Y-41227409D01*
X94710722Y-41323470D01*
X94701683Y-41382061D01*
X94698106Y-41392069D01*
X94656278Y-41427816D01*
X94596213Y-41441998D01*
X94544160Y-41429332D01*
X94538133Y-41424266D01*
X94529663Y-41390787D01*
X94523868Y-41317037D01*
X94520589Y-41213464D01*
X94519668Y-41090517D01*
X94520946Y-40958646D01*
X94524263Y-40828300D01*
X94529462Y-40709927D01*
X94536385Y-40613978D01*
X94544871Y-40550901D01*
X94551679Y-40531880D01*
X94607104Y-40503132D01*
X94665987Y-40524896D01*
G36*
X94329284Y-39039539D02*
X94359504Y-39097650D01*
X94403183Y-39190560D01*
X94457497Y-39312134D01*
X94519625Y-39456237D01*
X94568345Y-39572263D01*
X94642705Y-39752108D01*
X94699305Y-39891918D01*
X94740285Y-39998397D01*
X94767782Y-40078249D01*
X94783936Y-40138180D01*
X94790885Y-40184894D01*
X94790768Y-40225095D01*
X94786954Y-40257549D01*
X94772258Y-40326462D01*
X94754899Y-40368431D01*
X94746915Y-40374400D01*
X94724672Y-40356168D01*
X94724400Y-40352817D01*
X94715099Y-40323974D01*
X94689070Y-40255323D01*
X94649118Y-40153949D01*
X94598048Y-40026937D01*
X94538669Y-39881372D01*
X94512288Y-39817284D01*
X94300177Y-39303333D01*
X94124938Y-39699116D01*
X94052472Y-39860151D01*
X93997033Y-39976819D01*
X93956923Y-40051979D01*
X93930446Y-40088486D01*
X93915905Y-40089198D01*
X93911600Y-40058364D01*
X93920601Y-40025218D01*
X93945341Y-39953723D01*
X93982426Y-39852589D01*
X94028462Y-39730526D01*
X94080055Y-39596242D01*
X94133809Y-39458449D01*
X94186330Y-39325856D01*
X94234225Y-39207173D01*
X94274098Y-39111109D01*
X94302556Y-39046375D01*
X94315346Y-39022363D01*
X94329284Y-39039539D01*
X94329284Y-39039539D01*
G37*
X94329284Y-39039539D02*
X94359504Y-39097650D01*
X94403183Y-39190560D01*
X94457497Y-39312134D01*
X94519625Y-39456237D01*
X94568345Y-39572263D01*
X94642705Y-39752108D01*
X94699305Y-39891918D01*
X94740285Y-39998397D01*
X94767782Y-40078249D01*
X94783936Y-40138180D01*
X94790885Y-40184894D01*
X94790768Y-40225095D01*
X94786954Y-40257549D01*
X94772258Y-40326462D01*
X94754899Y-40368431D01*
X94746915Y-40374400D01*
X94724672Y-40356168D01*
X94724400Y-40352817D01*
X94715099Y-40323974D01*
X94689070Y-40255323D01*
X94649118Y-40153949D01*
X94598048Y-40026937D01*
X94538669Y-39881372D01*
X94512288Y-39817284D01*
X94300177Y-39303333D01*
X94124938Y-39699116D01*
X94052472Y-39860151D01*
X93997033Y-39976819D01*
X93956923Y-40051979D01*
X93930446Y-40088486D01*
X93915905Y-40089198D01*
X93911600Y-40058364D01*
X93920601Y-40025218D01*
X93945341Y-39953723D01*
X93982426Y-39852589D01*
X94028462Y-39730526D01*
X94080055Y-39596242D01*
X94133809Y-39458449D01*
X94186330Y-39325856D01*
X94234225Y-39207173D01*
X94274098Y-39111109D01*
X94302556Y-39046375D01*
X94315346Y-39022363D01*
X94329284Y-39039539D01*
G36*
X88361748Y-38405022D02*
X88427755Y-38437554D01*
X88520909Y-38486395D01*
X88632703Y-38547143D01*
X88685259Y-38576316D01*
X89013058Y-38759432D01*
X88996423Y-38848105D01*
X88979780Y-38907822D01*
X88948778Y-38953817D01*
X88891894Y-38999101D01*
X88826977Y-39039439D01*
X88779393Y-39064641D01*
X88759239Y-39057774D01*
X88750777Y-39013693D01*
X88741673Y-38984558D01*
X88717353Y-38954276D01*
X88671260Y-38918123D01*
X88596838Y-38871375D01*
X88487532Y-38809306D01*
X88402792Y-38762917D01*
X88062885Y-38578278D01*
X87705031Y-38738361D01*
X87581267Y-38792721D01*
X87474560Y-38837684D01*
X87393100Y-38869950D01*
X87345078Y-38886219D01*
X87335855Y-38887122D01*
X87335116Y-38866829D01*
X87364256Y-38850323D01*
X87430490Y-38816713D01*
X87525547Y-38769931D01*
X87641160Y-38713907D01*
X87769057Y-38652572D01*
X87900970Y-38589859D01*
X88028629Y-38529697D01*
X88143765Y-38476019D01*
X88238108Y-38432757D01*
X88303389Y-38403840D01*
X88331338Y-38393200D01*
X88331393Y-38393200D01*
X88361748Y-38405022D01*
X88361748Y-38405022D01*
G37*
X88361748Y-38405022D02*
X88427755Y-38437554D01*
X88520909Y-38486395D01*
X88632703Y-38547143D01*
X88685259Y-38576316D01*
X89013058Y-38759432D01*
X88996423Y-38848105D01*
X88979780Y-38907822D01*
X88948778Y-38953817D01*
X88891894Y-38999101D01*
X88826977Y-39039439D01*
X88779393Y-39064641D01*
X88759239Y-39057774D01*
X88750777Y-39013693D01*
X88741673Y-38984558D01*
X88717353Y-38954276D01*
X88671260Y-38918123D01*
X88596838Y-38871375D01*
X88487532Y-38809306D01*
X88402792Y-38762917D01*
X88062885Y-38578278D01*
X87705031Y-38738361D01*
X87581267Y-38792721D01*
X87474560Y-38837684D01*
X87393100Y-38869950D01*
X87345078Y-38886219D01*
X87335855Y-38887122D01*
X87335116Y-38866829D01*
X87364256Y-38850323D01*
X87430490Y-38816713D01*
X87525547Y-38769931D01*
X87641160Y-38713907D01*
X87769057Y-38652572D01*
X87900970Y-38589859D01*
X88028629Y-38529697D01*
X88143765Y-38476019D01*
X88238108Y-38432757D01*
X88303389Y-38403840D01*
X88331338Y-38393200D01*
X88331393Y-38393200D01*
X88361748Y-38405022D01*
D13*
X107135000Y-125670000D02*
X103265000Y-125670000D01*
X103265000Y-125670000D02*
X103265000Y-128330000D01*
X103265000Y-128330000D02*
X107135000Y-128330000D01*
X107135000Y-128330000D02*
X107135000Y-125670000D01*
X107770000Y-125670000D02*
X108465000Y-125670000D01*
X108465000Y-125670000D02*
X108465000Y-127000000D01*
D14*
X143300480Y-112500000D02*
G75*
G03X143300480Y-112500000I-1300480J0D01*
G01*
X145500120Y-112500000D02*
G75*
G03X145500120Y-112500000I-3500120J0D01*
G01*
X138400820Y-108900820D02*
X145599180Y-108900820D01*
X145599180Y-108900820D02*
X145599180Y-116099180D01*
X145599180Y-116099180D02*
X138400820Y-116099180D01*
X138400820Y-116099180D02*
X138400820Y-108900820D01*
D16*
X87864286Y-126357143D02*
X88864286Y-129357143D01*
X89864286Y-126357143D01*
X90864287Y-129357143D02*
X90864287Y-126357143D01*
X92292858Y-129357143D02*
X92292858Y-126357143D01*
X94007143Y-129357143D01*
X94007143Y-126357143D01*
X124864286Y-126357143D02*
X125864286Y-129357143D01*
X126864286Y-126357143D01*
X128435715Y-126357143D02*
X129007144Y-126357143D01*
X129292858Y-126500000D01*
X129578572Y-126785714D01*
X129721430Y-127357143D01*
X129721430Y-128357143D01*
X129578572Y-128928571D01*
X129292858Y-129214286D01*
X129007144Y-129357143D01*
X128435715Y-129357143D01*
X128150001Y-129214286D01*
X127864287Y-128928571D01*
X127721430Y-128357143D01*
X127721430Y-127357143D01*
X127864287Y-126785714D01*
X128150001Y-126500000D01*
X128435715Y-126357143D01*
X131007144Y-126357143D02*
X131007144Y-128785714D01*
X131150001Y-129071429D01*
X131292858Y-129214286D01*
X131578572Y-129357143D01*
X132150001Y-129357143D01*
X132435715Y-129214286D01*
X132578572Y-129071429D01*
X132721429Y-128785714D01*
X132721429Y-126357143D01*
X133721429Y-126357143D02*
X135435715Y-126357143D01*
X134578572Y-129357143D02*
X134578572Y-126357143D01*
D17*
X76653715Y-118289749D02*
X76653715Y-116765749D01*
X76653715Y-117491463D02*
X77524572Y-117491463D01*
X77524572Y-118289749D02*
X77524572Y-116765749D01*
X78032572Y-116765749D02*
X78540572Y-118289749D01*
X79048572Y-116765749D01*
X81008001Y-116765749D02*
X81298287Y-116765749D01*
X81443429Y-116838320D01*
X81588572Y-116983463D01*
X81661144Y-117273749D01*
X81661144Y-117781749D01*
X81588572Y-118072034D01*
X81443429Y-118217177D01*
X81298287Y-118289749D01*
X81008001Y-118289749D01*
X80862858Y-118217177D01*
X80717715Y-118072034D01*
X80645144Y-117781749D01*
X80645144Y-117273749D01*
X80717715Y-116983463D01*
X80862858Y-116838320D01*
X81008001Y-116765749D01*
X82314286Y-116765749D02*
X82314286Y-117999463D01*
X82386858Y-118144606D01*
X82459429Y-118217177D01*
X82604572Y-118289749D01*
X82894858Y-118289749D01*
X83040000Y-118217177D01*
X83112572Y-118144606D01*
X83185143Y-117999463D01*
X83185143Y-116765749D01*
X83693143Y-116765749D02*
X84564000Y-116765749D01*
X84128571Y-118289749D02*
X84128571Y-116765749D01*
D18*
X102333334Y-125152381D02*
X102000000Y-124676190D01*
X101761905Y-125152381D02*
X101761905Y-124152381D01*
X102142858Y-124152381D01*
X102238096Y-124200000D01*
X102285715Y-124247619D01*
X102333334Y-124342857D01*
X102333334Y-124485714D01*
X102285715Y-124580952D01*
X102238096Y-124628571D01*
X102142858Y-124676190D01*
X101761905Y-124676190D01*
X103285715Y-125152381D02*
X102714286Y-125152381D01*
X103000000Y-125152381D02*
X103000000Y-124152381D01*
X102904762Y-124295238D01*
X102809524Y-124390476D01*
X102714286Y-124438095D01*
X102333334Y-121152381D02*
X102000000Y-120676190D01*
X101761905Y-121152381D02*
X101761905Y-120152381D01*
X102142858Y-120152381D01*
X102238096Y-120200000D01*
X102285715Y-120247619D01*
X102333334Y-120342857D01*
X102333334Y-120485714D01*
X102285715Y-120580952D01*
X102238096Y-120628571D01*
X102142858Y-120676190D01*
X101761905Y-120676190D01*
X102714286Y-120247619D02*
X102761905Y-120200000D01*
X102857143Y-120152381D01*
X103095239Y-120152381D01*
X103190477Y-120200000D01*
X103238096Y-120247619D01*
X103285715Y-120342857D01*
X103285715Y-120438095D01*
X103238096Y-120580952D01*
X102666667Y-121152381D01*
X103285715Y-121152381D01*
X82833334Y-103252381D02*
X82500000Y-102776190D01*
X82261905Y-103252381D02*
X82261905Y-102252381D01*
X82642858Y-102252381D01*
X82738096Y-102300000D01*
X82785715Y-102347619D01*
X82833334Y-102442857D01*
X82833334Y-102585714D01*
X82785715Y-102680952D01*
X82738096Y-102728571D01*
X82642858Y-102776190D01*
X82261905Y-102776190D01*
X83166667Y-102252381D02*
X83785715Y-102252381D01*
X83452381Y-102633333D01*
X83595239Y-102633333D01*
X83690477Y-102680952D01*
X83738096Y-102728571D01*
X83785715Y-102823810D01*
X83785715Y-103061905D01*
X83738096Y-103157143D01*
X83690477Y-103204762D01*
X83595239Y-103252381D01*
X83309524Y-103252381D01*
X83214286Y-103204762D01*
X83166667Y-103157143D01*
X92333334Y-103252381D02*
X92000000Y-102776190D01*
X91761905Y-103252381D02*
X91761905Y-102252381D01*
X92142858Y-102252381D01*
X92238096Y-102300000D01*
X92285715Y-102347619D01*
X92333334Y-102442857D01*
X92333334Y-102585714D01*
X92285715Y-102680952D01*
X92238096Y-102728571D01*
X92142858Y-102776190D01*
X91761905Y-102776190D01*
X93190477Y-102585714D02*
X93190477Y-103252381D01*
X92952381Y-102204762D02*
X92714286Y-102919048D01*
X93333334Y-102919048D01*
X121984381Y-85904762D02*
X122984381Y-85666667D01*
X122270095Y-85476190D01*
X122984381Y-85285714D01*
X121984381Y-85047619D01*
X122317714Y-84238095D02*
X122984381Y-84238095D01*
X121936762Y-84476191D02*
X122651048Y-84714286D01*
X122651048Y-84095238D01*
X104673810Y-129952381D02*
X104673810Y-128952381D01*
X105102381Y-129047619D02*
X105150000Y-129000000D01*
X105245238Y-128952381D01*
X105483334Y-128952381D01*
X105578572Y-129000000D01*
X105626191Y-129047619D01*
X105673810Y-129142857D01*
X105673810Y-129238095D01*
X105626191Y-129380952D01*
X105054762Y-129952381D01*
X105673810Y-129952381D01*
X106673810Y-129857143D02*
X106626191Y-129904762D01*
X106483334Y-129952381D01*
X106388096Y-129952381D01*
X106245238Y-129904762D01*
X106150000Y-129809524D01*
X106102381Y-129714286D01*
X106054762Y-129523810D01*
X106054762Y-129380952D01*
X106102381Y-129190476D01*
X106150000Y-129095238D01*
X106245238Y-129000000D01*
X106388096Y-128952381D01*
X106483334Y-128952381D01*
X106626191Y-129000000D01*
X106673810Y-129047619D01*
D17*
X115169715Y-134589109D02*
X115169715Y-133065109D01*
X115169715Y-133790823D02*
X116040572Y-133790823D01*
X116040572Y-134589109D02*
X116040572Y-133065109D01*
X116548572Y-133065109D02*
X117056572Y-134589109D01*
X117564572Y-133065109D01*
X119233715Y-134589109D02*
X119233715Y-133065109D01*
X119959429Y-134589109D02*
X119959429Y-133065109D01*
X120830286Y-134589109D01*
X120830286Y-133065109D01*
X116113143Y-144490029D02*
X115387429Y-144490029D01*
X115387429Y-142966029D01*
X116621143Y-143691743D02*
X117129143Y-143691743D01*
X117346857Y-144490029D02*
X116621143Y-144490029D01*
X116621143Y-142966029D01*
X117346857Y-142966029D01*
X118000000Y-144490029D02*
X118000000Y-142966029D01*
X118508000Y-144054600D01*
X119016000Y-142966029D01*
X119016000Y-144490029D01*
X120032000Y-142966029D02*
X120322286Y-142966029D01*
X120467428Y-143038600D01*
X120612571Y-143183743D01*
X120685143Y-143474029D01*
X120685143Y-143982029D01*
X120612571Y-144272314D01*
X120467428Y-144417457D01*
X120322286Y-144490029D01*
X120032000Y-144490029D01*
X119886857Y-144417457D01*
X119741714Y-144272314D01*
X119669143Y-143982029D01*
X119669143Y-143474029D01*
X119741714Y-143183743D01*
X119886857Y-143038600D01*
X120032000Y-142966029D01*
X137718286Y-117491463D02*
X137936000Y-117564034D01*
X138008572Y-117636606D01*
X138081143Y-117781749D01*
X138081143Y-117999463D01*
X138008572Y-118144606D01*
X137936000Y-118217177D01*
X137790858Y-118289749D01*
X137210286Y-118289749D01*
X137210286Y-116765749D01*
X137718286Y-116765749D01*
X137863429Y-116838320D01*
X137936000Y-116910891D01*
X138008572Y-117056034D01*
X138008572Y-117201177D01*
X137936000Y-117346320D01*
X137863429Y-117418891D01*
X137718286Y-117491463D01*
X137210286Y-117491463D01*
X138661715Y-117854320D02*
X139387429Y-117854320D01*
X138516572Y-118289749D02*
X139024572Y-116765749D01*
X139532572Y-118289749D01*
X140040572Y-118289749D02*
X140040572Y-116765749D01*
X140911429Y-118289749D01*
X140911429Y-116765749D01*
X141637143Y-118289749D02*
X141637143Y-116765749D01*
X142000000Y-116765749D01*
X142217715Y-116838320D01*
X142362857Y-116983463D01*
X142435429Y-117128606D01*
X142508000Y-117418891D01*
X142508000Y-117636606D01*
X142435429Y-117926891D01*
X142362857Y-118072034D01*
X142217715Y-118217177D01*
X142000000Y-118289749D01*
X141637143Y-118289749D01*
X143959429Y-116838320D02*
X143814286Y-116765749D01*
X143596572Y-116765749D01*
X143378857Y-116838320D01*
X143233715Y-116983463D01*
X143161143Y-117128606D01*
X143088572Y-117418891D01*
X143088572Y-117636606D01*
X143161143Y-117926891D01*
X143233715Y-118072034D01*
X143378857Y-118217177D01*
X143596572Y-118289749D01*
X143741715Y-118289749D01*
X143959429Y-118217177D01*
X144032000Y-118144606D01*
X144032000Y-117636606D01*
X143741715Y-117636606D01*
X144612572Y-117854320D02*
X145338286Y-117854320D01*
X144467429Y-118289749D02*
X144975429Y-116765749D01*
X145483429Y-118289749D01*
X145991429Y-118289749D02*
X145991429Y-116765749D01*
X146572001Y-116765749D01*
X146717143Y-116838320D01*
X146789715Y-116910891D01*
X146862286Y-117056034D01*
X146862286Y-117273749D01*
X146789715Y-117418891D01*
X146717143Y-117491463D01*
X146572001Y-117564034D01*
X145991429Y-117564034D01*
X140113143Y-108388829D02*
X139387429Y-108388829D01*
X139387429Y-106864829D01*
X140621143Y-107590543D02*
X141129143Y-107590543D01*
X141346857Y-108388829D02*
X140621143Y-108388829D01*
X140621143Y-106864829D01*
X141346857Y-106864829D01*
X142000000Y-108388829D02*
X142000000Y-106864829D01*
X142508000Y-107953400D01*
X143016000Y-106864829D01*
X143016000Y-108388829D01*
X144032000Y-106864829D02*
X144322286Y-106864829D01*
X144467428Y-106937400D01*
X144612571Y-107082543D01*
X144685143Y-107372829D01*
X144685143Y-107880829D01*
X144612571Y-108171114D01*
X144467428Y-108316257D01*
X144322286Y-108388829D01*
X144032000Y-108388829D01*
X143886857Y-108316257D01*
X143741714Y-108171114D01*
X143669143Y-107880829D01*
X143669143Y-107372829D01*
X143741714Y-107082543D01*
X143886857Y-106937400D01*
X144032000Y-106864829D01*
D18*
X68666667Y-52452381D02*
X68333333Y-51976190D01*
X68095238Y-52452381D02*
X68095238Y-51452381D01*
X68476191Y-51452381D01*
X68571429Y-51500000D01*
X68619048Y-51547619D01*
X68666667Y-51642857D01*
X68666667Y-51785714D01*
X68619048Y-51880952D01*
X68571429Y-51928571D01*
X68476191Y-51976190D01*
X68095238Y-51976190D01*
X69095238Y-51928571D02*
X69428572Y-51928571D01*
X69571429Y-52452381D02*
X69095238Y-52452381D01*
X69095238Y-51452381D01*
X69571429Y-51452381D01*
X70333334Y-51928571D02*
X70000000Y-51928571D01*
X70000000Y-52452381D02*
X70000000Y-51452381D01*
X70476191Y-51452381D01*
X71000000Y-51452381D02*
X71000000Y-51690476D01*
X70761905Y-51595238D02*
X71000000Y-51690476D01*
X71238096Y-51595238D01*
X70857143Y-51880952D02*
X71000000Y-51690476D01*
X71142858Y-51880952D01*
X71761905Y-51452381D02*
X71761905Y-51690476D01*
X71523810Y-51595238D02*
X71761905Y-51690476D01*
X72000001Y-51595238D01*
X71619048Y-51880952D02*
X71761905Y-51690476D01*
X71904763Y-51880952D01*
X69166667Y-50952381D02*
X68833333Y-50476190D01*
X68595238Y-50952381D02*
X68595238Y-49952381D01*
X68976191Y-49952381D01*
X69071429Y-50000000D01*
X69119048Y-50047619D01*
X69166667Y-50142857D01*
X69166667Y-50285714D01*
X69119048Y-50380952D01*
X69071429Y-50428571D01*
X68976191Y-50476190D01*
X68595238Y-50476190D01*
X69595238Y-50428571D02*
X69928572Y-50428571D01*
X70071429Y-50952381D02*
X69595238Y-50952381D01*
X69595238Y-49952381D01*
X70071429Y-49952381D01*
X70833334Y-50428571D02*
X70500000Y-50428571D01*
X70500000Y-50952381D02*
X70500000Y-49952381D01*
X70976191Y-49952381D01*
X71500000Y-49952381D02*
X71500000Y-50190476D01*
X71261905Y-50095238D02*
X71500000Y-50190476D01*
X71738096Y-50095238D01*
X71357143Y-50380952D02*
X71500000Y-50190476D01*
X71642858Y-50380952D01*
X72261905Y-49952381D02*
X72261905Y-50190476D01*
X72023810Y-50095238D02*
X72261905Y-50190476D01*
X72500001Y-50095238D01*
X72119048Y-50380952D02*
X72261905Y-50190476D01*
X72404763Y-50380952D01*
M02*
