G04 #@! TF.FileFunction,Copper,L2,Bot,Signal*
%FSLAX46Y46*%
G04 Gerber Fmt 4.6, Leading zero omitted, Abs format (unit mm)*
G04 Created by KiCad (PCBNEW 4.0.6) date 2017 May 30, Tuesday 14:38:27*
%MOMM*%
%LPD*%
G01*
G04 APERTURE LIST*
%ADD10C,0.100000*%
%ADD11R,0.970000X1.270000*%
%ADD12R,3.750000X3.750000*%
%ADD13C,3.750000*%
%ADD14C,1.798320*%
%ADD15C,1.795780*%
%ADD16R,1.000000X1.000000*%
%ADD17O,1.000000X1.000000*%
%ADD18C,0.508000*%
%ADD19C,0.254000*%
%ADD20C,1.270000*%
G04 APERTURE END LIST*
D10*
D11*
X108860000Y-142500000D03*
X110140000Y-142500000D03*
D12*
X94000000Y-138000000D03*
D13*
X88300000Y-138000000D03*
X94000000Y-132500000D03*
X88300000Y-132500000D03*
D12*
X133000000Y-138000000D03*
D13*
X127300000Y-138000000D03*
X133000000Y-132500000D03*
X127300000Y-132500000D03*
D14*
X80500000Y-112500000D03*
D15*
X83040000Y-109960000D03*
X77960000Y-109960000D03*
X77960000Y-115040000D03*
X83040000Y-115040000D03*
D12*
X108500000Y-138000000D03*
D13*
X102800000Y-138000000D03*
X108500000Y-132500000D03*
X102800000Y-132500000D03*
D14*
X118000000Y-139000000D03*
D15*
X115460000Y-141540000D03*
X120540000Y-141540000D03*
X120540000Y-136460000D03*
X115460000Y-136460000D03*
D16*
X107770000Y-127000000D03*
D17*
X106500000Y-127000000D03*
X105230000Y-127000000D03*
X103960000Y-127000000D03*
D14*
X142000000Y-112500000D03*
D15*
X144540000Y-109960000D03*
X139460000Y-109960000D03*
X139460000Y-115040000D03*
X144540000Y-115040000D03*
D18*
X109000000Y-34000000D03*
X112000000Y-34000000D03*
X115000000Y-34000000D03*
X115000000Y-37000000D03*
X112000000Y-37000000D03*
X109000000Y-37000000D03*
X109000000Y-40000000D03*
X112000000Y-40000000D03*
X115000000Y-40000000D03*
X115000000Y-43000000D03*
X112000000Y-43000000D03*
X109000000Y-43000000D03*
X109000000Y-46000000D03*
X112000000Y-46000000D03*
X115000000Y-46000000D03*
X115000000Y-49000000D03*
X112000000Y-49000000D03*
X109000000Y-49000000D03*
X109000000Y-52000000D03*
X112000000Y-52000000D03*
X115000000Y-52000000D03*
X115000000Y-55000000D03*
X112000000Y-55000000D03*
X109000000Y-55000000D03*
X115000000Y-74000000D03*
X112000000Y-74000000D03*
X109000000Y-74000000D03*
X109000000Y-77000000D03*
X112000000Y-77000000D03*
X115000000Y-77000000D03*
X115000000Y-80000000D03*
X112000000Y-80000000D03*
X109000000Y-80000000D03*
X109000000Y-83000000D03*
X112000000Y-83000000D03*
X115000000Y-83000000D03*
X115000000Y-86000000D03*
X112000000Y-86000000D03*
X109000000Y-86000000D03*
X109000000Y-89000000D03*
X112000000Y-89000000D03*
X115000000Y-89000000D03*
X115000000Y-92000000D03*
X112000000Y-92000000D03*
X109000000Y-92000000D03*
X109000000Y-95000000D03*
X112000000Y-95000000D03*
X115000000Y-95000000D03*
X115000000Y-98000000D03*
X112000000Y-98000000D03*
X109000000Y-98000000D03*
X109000000Y-101000000D03*
X112000000Y-101000000D03*
X115000000Y-101000000D03*
X115000000Y-104000000D03*
X112000000Y-104000000D03*
X109000000Y-104000000D03*
X113500000Y-112000000D03*
X113500000Y-111000000D03*
X99000000Y-121000000D03*
X110500000Y-122000000D03*
X106500000Y-122000000D03*
X122000000Y-69000000D03*
X124000000Y-69000000D03*
X126000000Y-69000000D03*
X128000000Y-69000000D03*
X128000000Y-67000000D03*
X126000000Y-67000000D03*
X124000000Y-67000000D03*
X122000000Y-67000000D03*
X102000000Y-69000000D03*
X100000000Y-69000000D03*
X98000000Y-69000000D03*
X98000000Y-67000000D03*
X100000000Y-67000000D03*
X102000000Y-67000000D03*
X122000000Y-62000000D03*
X124000000Y-62000000D03*
X126000000Y-62000000D03*
X128000000Y-62000000D03*
X128000000Y-64000000D03*
X126000000Y-64000000D03*
X124000000Y-64000000D03*
X98000000Y-62000000D03*
X98000000Y-64000000D03*
X100000000Y-64000000D03*
X100000000Y-62000000D03*
X102000000Y-62000000D03*
X122000000Y-64000000D03*
X102000000Y-64000000D03*
X98000000Y-100500000D03*
D19*
X108500000Y-138000000D02*
X108500000Y-142140000D01*
X108500000Y-142140000D02*
X108860000Y-142500000D01*
D20*
X112000000Y-34000000D02*
X109000000Y-34000000D01*
X115000000Y-37000000D02*
X115000000Y-34000000D01*
X109000000Y-37000000D02*
X112000000Y-37000000D01*
X112000000Y-40000000D02*
X109000000Y-40000000D01*
X115000000Y-43000000D02*
X115000000Y-40000000D01*
X109000000Y-43000000D02*
X112000000Y-43000000D01*
X112000000Y-46000000D02*
X109000000Y-46000000D01*
X112000000Y-46000000D02*
X112000000Y-46000000D01*
X115000000Y-49000000D02*
X115000000Y-46000000D01*
X109000000Y-49000000D02*
X112000000Y-49000000D01*
X112000000Y-52000000D02*
X109000000Y-52000000D01*
X115000000Y-55000000D02*
X115000000Y-52000000D01*
X112000000Y-55000000D02*
X112000000Y-55000000D01*
X109000000Y-55000000D02*
X112000000Y-55000000D01*
X113000000Y-112000000D02*
X102000000Y-112000000D01*
X112000000Y-74000000D02*
X115000000Y-74000000D01*
X109000000Y-77000000D02*
X109000000Y-74000000D01*
X115000000Y-77000000D02*
X112000000Y-77000000D01*
X112000000Y-80000000D02*
X115000000Y-80000000D01*
X109000000Y-83000000D02*
X109000000Y-80000000D01*
X115000000Y-83000000D02*
X112000000Y-83000000D01*
X112000000Y-86000000D02*
X115000000Y-86000000D01*
X109000000Y-89000000D02*
X109000000Y-86000000D01*
X115000000Y-89000000D02*
X112000000Y-89000000D01*
X112000000Y-92000000D02*
X115000000Y-92000000D01*
X109000000Y-95000000D02*
X109000000Y-92000000D01*
X115000000Y-95000000D02*
X112000000Y-95000000D01*
X112000000Y-98000000D02*
X115000000Y-98000000D01*
X109000000Y-101000000D02*
X109000000Y-98000000D01*
X115000000Y-101000000D02*
X112000000Y-101000000D01*
X112000000Y-104000000D02*
X115000000Y-104000000D01*
X109000000Y-99000000D02*
X109000000Y-104000000D01*
X108000000Y-98000000D02*
X109000000Y-99000000D01*
X102000000Y-98000000D02*
X108000000Y-98000000D01*
X102000000Y-112000000D02*
X102000000Y-98000000D01*
D19*
X102000000Y-124000000D02*
X99000000Y-121000000D01*
X105000000Y-124000000D02*
X102000000Y-124000000D01*
X106500000Y-125500000D02*
X105000000Y-124000000D01*
X106500000Y-127000000D02*
X106500000Y-125500000D01*
X106500000Y-129000000D02*
X106500000Y-127000000D01*
X105500000Y-130000000D02*
X106500000Y-129000000D01*
X105500000Y-135300000D02*
X105500000Y-130000000D01*
X102800000Y-138000000D02*
X105500000Y-135300000D01*
X106500000Y-122000000D02*
X110500000Y-122000000D01*
D20*
X124000000Y-69000000D02*
X122000000Y-69000000D01*
X128000000Y-69000000D02*
X126000000Y-69000000D01*
X126000000Y-67000000D02*
X128000000Y-67000000D01*
X122000000Y-67000000D02*
X124000000Y-67000000D01*
X100000000Y-69000000D02*
X102000000Y-69000000D01*
X98000000Y-67000000D02*
X98000000Y-69000000D01*
X102000000Y-67000000D02*
X100000000Y-67000000D01*
X139460000Y-115040000D02*
X139460000Y-136540000D01*
X138000000Y-138000000D02*
X133000000Y-138000000D01*
X139460000Y-136540000D02*
X138000000Y-138000000D01*
X124000000Y-62000000D02*
X122000000Y-62000000D01*
X128000000Y-62000000D02*
X126000000Y-62000000D01*
X126000000Y-64000000D02*
X128000000Y-64000000D01*
X122000000Y-64000000D02*
X124000000Y-64000000D01*
X98000000Y-64000000D02*
X98000000Y-62000000D01*
X100000000Y-62000000D02*
X100000000Y-64000000D01*
X102000000Y-64000000D02*
X102000000Y-62000000D01*
D19*
X98000000Y-100500000D02*
X98000000Y-102000000D01*
X98000000Y-102000000D02*
X93500000Y-106500000D01*
X93500000Y-106500000D02*
X83000000Y-106500000D01*
G36*
X122373000Y-147873000D02*
X113627000Y-147873000D01*
X113627000Y-142618632D01*
X114560973Y-142618632D01*
X114647121Y-142874897D01*
X115219841Y-143084359D01*
X115829122Y-143058707D01*
X116272879Y-142874897D01*
X116359027Y-142618632D01*
X119640973Y-142618632D01*
X119727121Y-142874897D01*
X120299841Y-143084359D01*
X120909122Y-143058707D01*
X121352879Y-142874897D01*
X121439027Y-142618632D01*
X120540000Y-141719605D01*
X119640973Y-142618632D01*
X116359027Y-142618632D01*
X115460000Y-141719605D01*
X114560973Y-142618632D01*
X113627000Y-142618632D01*
X113627000Y-141299841D01*
X113915641Y-141299841D01*
X113941293Y-141909122D01*
X114125103Y-142352879D01*
X114381368Y-142439027D01*
X115280395Y-141540000D01*
X114381368Y-140640973D01*
X114125103Y-140727121D01*
X113915641Y-141299841D01*
X113627000Y-141299841D01*
X113627000Y-137538632D01*
X114560973Y-137538632D01*
X114647121Y-137794897D01*
X115219841Y-138004359D01*
X115829122Y-137978707D01*
X115960415Y-137924324D01*
X115704240Y-138541262D01*
X115703443Y-139454731D01*
X115967314Y-140093348D01*
X115700159Y-139995641D01*
X115090878Y-140021293D01*
X114647121Y-140205103D01*
X114560973Y-140461368D01*
X115460000Y-141360395D01*
X115474143Y-141346253D01*
X115653748Y-141525858D01*
X115639605Y-141540000D01*
X116538632Y-142439027D01*
X116794897Y-142352879D01*
X117004359Y-141780159D01*
X116978707Y-141170878D01*
X116924324Y-141039585D01*
X117541262Y-141295760D01*
X118454731Y-141296557D01*
X119093348Y-141032686D01*
X118995641Y-141299841D01*
X119021293Y-141909122D01*
X119205103Y-142352879D01*
X119461368Y-142439027D01*
X120360395Y-141540000D01*
X120719605Y-141540000D01*
X121618632Y-142439027D01*
X121874897Y-142352879D01*
X122084359Y-141780159D01*
X122058707Y-141170878D01*
X121874897Y-140727121D01*
X121618632Y-140640973D01*
X120719605Y-141540000D01*
X120360395Y-141540000D01*
X120346253Y-141525858D01*
X120525858Y-141346253D01*
X120540000Y-141360395D01*
X121439027Y-140461368D01*
X121352879Y-140205103D01*
X120780159Y-139995641D01*
X120170878Y-140021293D01*
X120039585Y-140075676D01*
X120295760Y-139458738D01*
X120296557Y-138545269D01*
X120032686Y-137906652D01*
X120299841Y-138004359D01*
X120909122Y-137978707D01*
X121352879Y-137794897D01*
X121439027Y-137538632D01*
X120540000Y-136639605D01*
X120525858Y-136653748D01*
X120346253Y-136474143D01*
X120360395Y-136460000D01*
X120719605Y-136460000D01*
X121618632Y-137359027D01*
X121874897Y-137272879D01*
X122084359Y-136700159D01*
X122058707Y-136090878D01*
X121874897Y-135647121D01*
X121618632Y-135560973D01*
X120719605Y-136460000D01*
X120360395Y-136460000D01*
X119461368Y-135560973D01*
X119205103Y-135647121D01*
X118995641Y-136219841D01*
X119021293Y-136829122D01*
X119075676Y-136960415D01*
X118458738Y-136704240D01*
X117545269Y-136703443D01*
X116906652Y-136967314D01*
X117004359Y-136700159D01*
X116978707Y-136090878D01*
X116794897Y-135647121D01*
X116538632Y-135560973D01*
X115639605Y-136460000D01*
X115653748Y-136474143D01*
X115474143Y-136653748D01*
X115460000Y-136639605D01*
X114560973Y-137538632D01*
X113627000Y-137538632D01*
X113627000Y-136219841D01*
X113915641Y-136219841D01*
X113941293Y-136829122D01*
X114125103Y-137272879D01*
X114381368Y-137359027D01*
X115280395Y-136460000D01*
X114381368Y-135560973D01*
X114125103Y-135647121D01*
X113915641Y-136219841D01*
X113627000Y-136219841D01*
X113627000Y-135381368D01*
X114560973Y-135381368D01*
X115460000Y-136280395D01*
X116359027Y-135381368D01*
X119640973Y-135381368D01*
X120540000Y-136280395D01*
X121439027Y-135381368D01*
X121352879Y-135125103D01*
X120780159Y-134915641D01*
X120170878Y-134941293D01*
X119727121Y-135125103D01*
X119640973Y-135381368D01*
X116359027Y-135381368D01*
X116272879Y-135125103D01*
X115700159Y-134915641D01*
X115090878Y-134941293D01*
X114647121Y-135125103D01*
X114560973Y-135381368D01*
X113627000Y-135381368D01*
X113627000Y-128127000D01*
X122373000Y-128127000D01*
X122373000Y-147873000D01*
X122373000Y-147873000D01*
G37*
X122373000Y-147873000D02*
X113627000Y-147873000D01*
X113627000Y-142618632D01*
X114560973Y-142618632D01*
X114647121Y-142874897D01*
X115219841Y-143084359D01*
X115829122Y-143058707D01*
X116272879Y-142874897D01*
X116359027Y-142618632D01*
X119640973Y-142618632D01*
X119727121Y-142874897D01*
X120299841Y-143084359D01*
X120909122Y-143058707D01*
X121352879Y-142874897D01*
X121439027Y-142618632D01*
X120540000Y-141719605D01*
X119640973Y-142618632D01*
X116359027Y-142618632D01*
X115460000Y-141719605D01*
X114560973Y-142618632D01*
X113627000Y-142618632D01*
X113627000Y-141299841D01*
X113915641Y-141299841D01*
X113941293Y-141909122D01*
X114125103Y-142352879D01*
X114381368Y-142439027D01*
X115280395Y-141540000D01*
X114381368Y-140640973D01*
X114125103Y-140727121D01*
X113915641Y-141299841D01*
X113627000Y-141299841D01*
X113627000Y-137538632D01*
X114560973Y-137538632D01*
X114647121Y-137794897D01*
X115219841Y-138004359D01*
X115829122Y-137978707D01*
X115960415Y-137924324D01*
X115704240Y-138541262D01*
X115703443Y-139454731D01*
X115967314Y-140093348D01*
X115700159Y-139995641D01*
X115090878Y-140021293D01*
X114647121Y-140205103D01*
X114560973Y-140461368D01*
X115460000Y-141360395D01*
X115474143Y-141346253D01*
X115653748Y-141525858D01*
X115639605Y-141540000D01*
X116538632Y-142439027D01*
X116794897Y-142352879D01*
X117004359Y-141780159D01*
X116978707Y-141170878D01*
X116924324Y-141039585D01*
X117541262Y-141295760D01*
X118454731Y-141296557D01*
X119093348Y-141032686D01*
X118995641Y-141299841D01*
X119021293Y-141909122D01*
X119205103Y-142352879D01*
X119461368Y-142439027D01*
X120360395Y-141540000D01*
X120719605Y-141540000D01*
X121618632Y-142439027D01*
X121874897Y-142352879D01*
X122084359Y-141780159D01*
X122058707Y-141170878D01*
X121874897Y-140727121D01*
X121618632Y-140640973D01*
X120719605Y-141540000D01*
X120360395Y-141540000D01*
X120346253Y-141525858D01*
X120525858Y-141346253D01*
X120540000Y-141360395D01*
X121439027Y-140461368D01*
X121352879Y-140205103D01*
X120780159Y-139995641D01*
X120170878Y-140021293D01*
X120039585Y-140075676D01*
X120295760Y-139458738D01*
X120296557Y-138545269D01*
X120032686Y-137906652D01*
X120299841Y-138004359D01*
X120909122Y-137978707D01*
X121352879Y-137794897D01*
X121439027Y-137538632D01*
X120540000Y-136639605D01*
X120525858Y-136653748D01*
X120346253Y-136474143D01*
X120360395Y-136460000D01*
X120719605Y-136460000D01*
X121618632Y-137359027D01*
X121874897Y-137272879D01*
X122084359Y-136700159D01*
X122058707Y-136090878D01*
X121874897Y-135647121D01*
X121618632Y-135560973D01*
X120719605Y-136460000D01*
X120360395Y-136460000D01*
X119461368Y-135560973D01*
X119205103Y-135647121D01*
X118995641Y-136219841D01*
X119021293Y-136829122D01*
X119075676Y-136960415D01*
X118458738Y-136704240D01*
X117545269Y-136703443D01*
X116906652Y-136967314D01*
X117004359Y-136700159D01*
X116978707Y-136090878D01*
X116794897Y-135647121D01*
X116538632Y-135560973D01*
X115639605Y-136460000D01*
X115653748Y-136474143D01*
X115474143Y-136653748D01*
X115460000Y-136639605D01*
X114560973Y-137538632D01*
X113627000Y-137538632D01*
X113627000Y-136219841D01*
X113915641Y-136219841D01*
X113941293Y-136829122D01*
X114125103Y-137272879D01*
X114381368Y-137359027D01*
X115280395Y-136460000D01*
X114381368Y-135560973D01*
X114125103Y-135647121D01*
X113915641Y-136219841D01*
X113627000Y-136219841D01*
X113627000Y-135381368D01*
X114560973Y-135381368D01*
X115460000Y-136280395D01*
X116359027Y-135381368D01*
X119640973Y-135381368D01*
X120540000Y-136280395D01*
X121439027Y-135381368D01*
X121352879Y-135125103D01*
X120780159Y-134915641D01*
X120170878Y-134941293D01*
X119727121Y-135125103D01*
X119640973Y-135381368D01*
X116359027Y-135381368D01*
X116272879Y-135125103D01*
X115700159Y-134915641D01*
X115090878Y-134941293D01*
X114647121Y-135125103D01*
X114560973Y-135381368D01*
X113627000Y-135381368D01*
X113627000Y-128127000D01*
X122373000Y-128127000D01*
X122373000Y-147873000D01*
G36*
X110873000Y-28873000D02*
X105000000Y-28873000D01*
X104950590Y-28883006D01*
X104908965Y-28911447D01*
X104881685Y-28953841D01*
X104873000Y-29000000D01*
X104873000Y-31707276D01*
X104569161Y-31402907D01*
X103876595Y-31115328D01*
X103126695Y-31114674D01*
X102433628Y-31401043D01*
X101902907Y-31930839D01*
X101615328Y-32623405D01*
X101614674Y-33373305D01*
X101901043Y-34066372D01*
X102430839Y-34597093D01*
X103123405Y-34884672D01*
X103873305Y-34885326D01*
X104566372Y-34598957D01*
X104873000Y-34292863D01*
X104873000Y-47707276D01*
X104569161Y-47402907D01*
X103876595Y-47115328D01*
X103126695Y-47114674D01*
X102433628Y-47401043D01*
X101902907Y-47930839D01*
X101615328Y-48623405D01*
X101614674Y-49373305D01*
X101901043Y-50066372D01*
X102430839Y-50597093D01*
X103123405Y-50884672D01*
X103873305Y-50885326D01*
X104566372Y-50598957D01*
X104873000Y-50292863D01*
X104873000Y-58873000D01*
X96000000Y-58873000D01*
X95950590Y-58883006D01*
X95908965Y-58911447D01*
X95881685Y-58953841D01*
X95873000Y-59000000D01*
X95873000Y-72000000D01*
X95883006Y-72049410D01*
X95911447Y-72091035D01*
X95953841Y-72118315D01*
X96000000Y-72127000D01*
X104873000Y-72127000D01*
X104873000Y-76707276D01*
X104569161Y-76402907D01*
X103876595Y-76115328D01*
X103126695Y-76114674D01*
X102433628Y-76401043D01*
X101902907Y-76930839D01*
X101615328Y-77623405D01*
X101614674Y-78373305D01*
X101901043Y-79066372D01*
X102430839Y-79597093D01*
X103123405Y-79884672D01*
X103873305Y-79885326D01*
X104566372Y-79598957D01*
X104873000Y-79292863D01*
X104873000Y-93000000D01*
X104883006Y-93049410D01*
X104911447Y-93091035D01*
X104953841Y-93118315D01*
X105000000Y-93127000D01*
X106000000Y-93127000D01*
X106049410Y-93116994D01*
X106091035Y-93088553D01*
X106118315Y-93046159D01*
X106127000Y-93000000D01*
X106127000Y-72127000D01*
X117873000Y-72127000D01*
X117873000Y-106873000D01*
X106127000Y-106873000D01*
X106127000Y-99000000D01*
X106116994Y-98950590D01*
X106088553Y-98908965D01*
X106046159Y-98881685D01*
X106000000Y-98873000D01*
X105000000Y-98873000D01*
X104950590Y-98883006D01*
X104908965Y-98911447D01*
X104881685Y-98953841D01*
X104873000Y-99000000D01*
X104873000Y-108000000D01*
X104883006Y-108049410D01*
X104911447Y-108091035D01*
X104953841Y-108118315D01*
X105000000Y-108127000D01*
X115873000Y-108127000D01*
X115873000Y-126873000D01*
X112500000Y-126873000D01*
X112450590Y-126883006D01*
X112408965Y-126911447D01*
X112381685Y-126953841D01*
X112373000Y-127000000D01*
X112373000Y-147873000D01*
X76127000Y-147873000D01*
X76127000Y-144370854D01*
X77114457Y-144370854D01*
X77590727Y-145523515D01*
X78471847Y-146406174D01*
X79623674Y-146884454D01*
X80870854Y-146885543D01*
X82023515Y-146409273D01*
X82711171Y-145722815D01*
X89014630Y-145722815D01*
X89338980Y-146507800D01*
X89939041Y-147108909D01*
X90723459Y-147434628D01*
X91572815Y-147435370D01*
X92357800Y-147111020D01*
X92958909Y-146510959D01*
X93284628Y-145726541D01*
X93284631Y-145722815D01*
X103514630Y-145722815D01*
X103838980Y-146507800D01*
X104439041Y-147108909D01*
X105223459Y-147434628D01*
X106072815Y-147435370D01*
X106857800Y-147111020D01*
X107458909Y-146510959D01*
X107784628Y-145726541D01*
X107785370Y-144877185D01*
X107461020Y-144092200D01*
X106860959Y-143491091D01*
X106076541Y-143165372D01*
X105227185Y-143164630D01*
X104442200Y-143488980D01*
X103841091Y-144089041D01*
X103515372Y-144873459D01*
X103514630Y-145722815D01*
X93284631Y-145722815D01*
X93285370Y-144877185D01*
X92961020Y-144092200D01*
X92360959Y-143491091D01*
X91576541Y-143165372D01*
X90727185Y-143164630D01*
X89942200Y-143488980D01*
X89341091Y-144089041D01*
X89015372Y-144873459D01*
X89014630Y-145722815D01*
X82711171Y-145722815D01*
X82906174Y-145528153D01*
X83384454Y-144376326D01*
X83385543Y-143129146D01*
X82909273Y-141976485D01*
X82028153Y-141093826D01*
X80876326Y-140615546D01*
X79629146Y-140614457D01*
X78476485Y-141090727D01*
X77593826Y-141971847D01*
X77115546Y-143123674D01*
X77114457Y-144370854D01*
X76127000Y-144370854D01*
X76127000Y-132997080D01*
X85789565Y-132997080D01*
X86170885Y-133919943D01*
X86876343Y-134626634D01*
X87798540Y-135009564D01*
X88797080Y-135010435D01*
X89719943Y-134629115D01*
X90426634Y-133923657D01*
X90809564Y-133001460D01*
X90809567Y-132997080D01*
X91489565Y-132997080D01*
X91870885Y-133919943D01*
X92576343Y-134626634D01*
X93498540Y-135009564D01*
X94497080Y-135010435D01*
X95419943Y-134629115D01*
X96126634Y-133923657D01*
X96509564Y-133001460D01*
X96510435Y-132002920D01*
X96129115Y-131080057D01*
X95423657Y-130373366D01*
X94501460Y-129990436D01*
X93502920Y-129989565D01*
X92580057Y-130370885D01*
X91873366Y-131076343D01*
X91490436Y-131998540D01*
X91489565Y-132997080D01*
X90809567Y-132997080D01*
X90810435Y-132002920D01*
X90429115Y-131080057D01*
X89723657Y-130373366D01*
X88801460Y-129990436D01*
X87802920Y-129989565D01*
X86880057Y-130370885D01*
X86173366Y-131076343D01*
X85790436Y-131998540D01*
X85789565Y-132997080D01*
X76127000Y-132997080D01*
X76127000Y-121176057D01*
X98110846Y-121176057D01*
X98245903Y-121502920D01*
X98495764Y-121753218D01*
X98803280Y-121880911D01*
X101461185Y-124538816D01*
X101609377Y-124637834D01*
X101708395Y-124703996D01*
X102000000Y-124762000D01*
X104684370Y-124762000D01*
X105738000Y-125815631D01*
X105738000Y-125978375D01*
X105664346Y-125929161D01*
X105230000Y-125842764D01*
X104795654Y-125929161D01*
X104595000Y-126063234D01*
X104394346Y-125929161D01*
X103960000Y-125842764D01*
X103525654Y-125929161D01*
X103157434Y-126175198D01*
X102911397Y-126543418D01*
X102825000Y-126977764D01*
X102825000Y-127022236D01*
X102911397Y-127456582D01*
X103157434Y-127824802D01*
X103525654Y-128070839D01*
X103960000Y-128157236D01*
X104394346Y-128070839D01*
X104595000Y-127936766D01*
X104795654Y-128070839D01*
X105230000Y-128157236D01*
X105664346Y-128070839D01*
X105738000Y-128021625D01*
X105738000Y-128684369D01*
X104961185Y-129461185D01*
X104796004Y-129708395D01*
X104738000Y-130000000D01*
X104738000Y-130888608D01*
X104223657Y-130373366D01*
X103301460Y-129990436D01*
X102302920Y-129989565D01*
X101380057Y-130370885D01*
X100673366Y-131076343D01*
X100290436Y-131998540D01*
X100289565Y-132997080D01*
X100670885Y-133919943D01*
X101376343Y-134626634D01*
X102298540Y-135009564D01*
X103297080Y-135010435D01*
X104219943Y-134629115D01*
X104738000Y-134111962D01*
X104738000Y-134984369D01*
X103958928Y-135763441D01*
X103301460Y-135490436D01*
X102302920Y-135489565D01*
X101380057Y-135870885D01*
X100673366Y-136576343D01*
X100290436Y-137498540D01*
X100289565Y-138497080D01*
X100670885Y-139419943D01*
X101376343Y-140126634D01*
X102298540Y-140509564D01*
X103297080Y-140510435D01*
X104219943Y-140129115D01*
X104926634Y-139423657D01*
X105309564Y-138501460D01*
X105310435Y-137502920D01*
X105036846Y-136840785D01*
X105752631Y-136125000D01*
X105977560Y-136125000D01*
X105977560Y-139875000D01*
X106021838Y-140110317D01*
X106160910Y-140326441D01*
X106373110Y-140471431D01*
X106625000Y-140522440D01*
X107738000Y-140522440D01*
X107738000Y-141813446D01*
X107727560Y-141865000D01*
X107727560Y-143135000D01*
X107771838Y-143370317D01*
X107910910Y-143586441D01*
X108123110Y-143731431D01*
X108375000Y-143782440D01*
X109345000Y-143782440D01*
X109505690Y-143752204D01*
X109655000Y-143782440D01*
X110625000Y-143782440D01*
X110860317Y-143738162D01*
X111076441Y-143599090D01*
X111221431Y-143386890D01*
X111272440Y-143135000D01*
X111272440Y-141865000D01*
X111228162Y-141629683D01*
X111089090Y-141413559D01*
X110876890Y-141268569D01*
X110625000Y-141217560D01*
X109655000Y-141217560D01*
X109494310Y-141247796D01*
X109345000Y-141217560D01*
X109262000Y-141217560D01*
X109262000Y-140522440D01*
X110375000Y-140522440D01*
X110610317Y-140478162D01*
X110826441Y-140339090D01*
X110971431Y-140126890D01*
X111022440Y-139875000D01*
X111022440Y-136125000D01*
X110978162Y-135889683D01*
X110839090Y-135673559D01*
X110626890Y-135528569D01*
X110375000Y-135477560D01*
X106625000Y-135477560D01*
X106389683Y-135521838D01*
X106173559Y-135660910D01*
X106028569Y-135873110D01*
X105977560Y-136125000D01*
X105752631Y-136125000D01*
X106038816Y-135838815D01*
X106157688Y-135660910D01*
X106203996Y-135591605D01*
X106262000Y-135300000D01*
X106262000Y-133656422D01*
X106370885Y-133919943D01*
X107076343Y-134626634D01*
X107998540Y-135009564D01*
X108997080Y-135010435D01*
X109919943Y-134629115D01*
X110626634Y-133923657D01*
X111009564Y-133001460D01*
X111010435Y-132002920D01*
X110629115Y-131080057D01*
X109923657Y-130373366D01*
X109001460Y-129990436D01*
X108002920Y-129989565D01*
X107080057Y-130370885D01*
X106373366Y-131076343D01*
X106262000Y-131344542D01*
X106262000Y-130315630D01*
X107038816Y-129538815D01*
X107203997Y-129291604D01*
X107262000Y-129000000D01*
X107262000Y-128145820D01*
X107270000Y-128147440D01*
X108270000Y-128147440D01*
X108505317Y-128103162D01*
X108721441Y-127964090D01*
X108866431Y-127751890D01*
X108917440Y-127500000D01*
X108917440Y-126500000D01*
X108873162Y-126264683D01*
X108734090Y-126048559D01*
X108521890Y-125903569D01*
X108270000Y-125852560D01*
X107270000Y-125852560D01*
X107262000Y-125854065D01*
X107262000Y-125500000D01*
X107203996Y-125208395D01*
X107038815Y-124961184D01*
X105538815Y-123461185D01*
X105291605Y-123296004D01*
X105000000Y-123238000D01*
X102315631Y-123238000D01*
X101253688Y-122176057D01*
X105610846Y-122176057D01*
X105745903Y-122502920D01*
X105995764Y-122753218D01*
X106322391Y-122888846D01*
X106676057Y-122889154D01*
X106983793Y-122762000D01*
X110016913Y-122762000D01*
X110322391Y-122888846D01*
X110676057Y-122889154D01*
X111002920Y-122754097D01*
X111253218Y-122504236D01*
X111388846Y-122177609D01*
X111389154Y-121823943D01*
X111254097Y-121497080D01*
X111004236Y-121246782D01*
X110677609Y-121111154D01*
X110323943Y-121110846D01*
X110016207Y-121238000D01*
X106983087Y-121238000D01*
X106677609Y-121111154D01*
X106323943Y-121110846D01*
X105997080Y-121245903D01*
X105746782Y-121495764D01*
X105611154Y-121822391D01*
X105610846Y-122176057D01*
X101253688Y-122176057D01*
X99880409Y-120802779D01*
X99754097Y-120497080D01*
X99504236Y-120246782D01*
X99177609Y-120111154D01*
X98823943Y-120110846D01*
X98497080Y-120245903D01*
X98246782Y-120495764D01*
X98111154Y-120822391D01*
X98110846Y-121176057D01*
X76127000Y-121176057D01*
X76127000Y-118127000D01*
X88000000Y-118127000D01*
X88049410Y-118116994D01*
X88091035Y-118088553D01*
X88118315Y-118046159D01*
X88127000Y-118000000D01*
X88127000Y-107262000D01*
X93500000Y-107262000D01*
X93791605Y-107203996D01*
X94038815Y-107038815D01*
X98538815Y-102538815D01*
X98703996Y-102291605D01*
X98762000Y-102000000D01*
X98762000Y-100983087D01*
X98888846Y-100677609D01*
X98889154Y-100323943D01*
X98754097Y-99997080D01*
X98504236Y-99746782D01*
X98177609Y-99611154D01*
X97823943Y-99610846D01*
X97497080Y-99745903D01*
X97246782Y-99995764D01*
X97111154Y-100322391D01*
X97110846Y-100676057D01*
X97238000Y-100983793D01*
X97238000Y-101684370D01*
X93184370Y-105738000D01*
X88127000Y-105738000D01*
X88127000Y-105000000D01*
X88116994Y-104950590D01*
X88088553Y-104908965D01*
X88046159Y-104881685D01*
X88000000Y-104873000D01*
X76127000Y-104873000D01*
X76127000Y-87620854D01*
X76864457Y-87620854D01*
X77340727Y-88773515D01*
X78221847Y-89656174D01*
X79373674Y-90134454D01*
X80620854Y-90135543D01*
X81773515Y-89659273D01*
X82656174Y-88778153D01*
X83134454Y-87626326D01*
X83135543Y-86379146D01*
X82659273Y-85226485D01*
X81778153Y-84343826D01*
X80626326Y-83865546D01*
X79379146Y-83864457D01*
X78226485Y-84340727D01*
X77343826Y-85221847D01*
X76865546Y-86373674D01*
X76864457Y-87620854D01*
X76127000Y-87620854D01*
X76127000Y-30620854D01*
X76864457Y-30620854D01*
X77340727Y-31773515D01*
X78221847Y-32656174D01*
X79373674Y-33134454D01*
X80620854Y-33135543D01*
X81773515Y-32659273D01*
X82656174Y-31778153D01*
X83134454Y-30626326D01*
X83135543Y-29379146D01*
X82659273Y-28226485D01*
X81778153Y-27343826D01*
X80626326Y-26865546D01*
X79379146Y-26864457D01*
X78226485Y-27340727D01*
X77343826Y-28221847D01*
X76865546Y-29373674D01*
X76864457Y-30620854D01*
X76127000Y-30620854D01*
X76127000Y-26127000D01*
X110873000Y-26127000D01*
X110873000Y-28873000D01*
X110873000Y-28873000D01*
G37*
X110873000Y-28873000D02*
X105000000Y-28873000D01*
X104950590Y-28883006D01*
X104908965Y-28911447D01*
X104881685Y-28953841D01*
X104873000Y-29000000D01*
X104873000Y-31707276D01*
X104569161Y-31402907D01*
X103876595Y-31115328D01*
X103126695Y-31114674D01*
X102433628Y-31401043D01*
X101902907Y-31930839D01*
X101615328Y-32623405D01*
X101614674Y-33373305D01*
X101901043Y-34066372D01*
X102430839Y-34597093D01*
X103123405Y-34884672D01*
X103873305Y-34885326D01*
X104566372Y-34598957D01*
X104873000Y-34292863D01*
X104873000Y-47707276D01*
X104569161Y-47402907D01*
X103876595Y-47115328D01*
X103126695Y-47114674D01*
X102433628Y-47401043D01*
X101902907Y-47930839D01*
X101615328Y-48623405D01*
X101614674Y-49373305D01*
X101901043Y-50066372D01*
X102430839Y-50597093D01*
X103123405Y-50884672D01*
X103873305Y-50885326D01*
X104566372Y-50598957D01*
X104873000Y-50292863D01*
X104873000Y-58873000D01*
X96000000Y-58873000D01*
X95950590Y-58883006D01*
X95908965Y-58911447D01*
X95881685Y-58953841D01*
X95873000Y-59000000D01*
X95873000Y-72000000D01*
X95883006Y-72049410D01*
X95911447Y-72091035D01*
X95953841Y-72118315D01*
X96000000Y-72127000D01*
X104873000Y-72127000D01*
X104873000Y-76707276D01*
X104569161Y-76402907D01*
X103876595Y-76115328D01*
X103126695Y-76114674D01*
X102433628Y-76401043D01*
X101902907Y-76930839D01*
X101615328Y-77623405D01*
X101614674Y-78373305D01*
X101901043Y-79066372D01*
X102430839Y-79597093D01*
X103123405Y-79884672D01*
X103873305Y-79885326D01*
X104566372Y-79598957D01*
X104873000Y-79292863D01*
X104873000Y-93000000D01*
X104883006Y-93049410D01*
X104911447Y-93091035D01*
X104953841Y-93118315D01*
X105000000Y-93127000D01*
X106000000Y-93127000D01*
X106049410Y-93116994D01*
X106091035Y-93088553D01*
X106118315Y-93046159D01*
X106127000Y-93000000D01*
X106127000Y-72127000D01*
X117873000Y-72127000D01*
X117873000Y-106873000D01*
X106127000Y-106873000D01*
X106127000Y-99000000D01*
X106116994Y-98950590D01*
X106088553Y-98908965D01*
X106046159Y-98881685D01*
X106000000Y-98873000D01*
X105000000Y-98873000D01*
X104950590Y-98883006D01*
X104908965Y-98911447D01*
X104881685Y-98953841D01*
X104873000Y-99000000D01*
X104873000Y-108000000D01*
X104883006Y-108049410D01*
X104911447Y-108091035D01*
X104953841Y-108118315D01*
X105000000Y-108127000D01*
X115873000Y-108127000D01*
X115873000Y-126873000D01*
X112500000Y-126873000D01*
X112450590Y-126883006D01*
X112408965Y-126911447D01*
X112381685Y-126953841D01*
X112373000Y-127000000D01*
X112373000Y-147873000D01*
X76127000Y-147873000D01*
X76127000Y-144370854D01*
X77114457Y-144370854D01*
X77590727Y-145523515D01*
X78471847Y-146406174D01*
X79623674Y-146884454D01*
X80870854Y-146885543D01*
X82023515Y-146409273D01*
X82711171Y-145722815D01*
X89014630Y-145722815D01*
X89338980Y-146507800D01*
X89939041Y-147108909D01*
X90723459Y-147434628D01*
X91572815Y-147435370D01*
X92357800Y-147111020D01*
X92958909Y-146510959D01*
X93284628Y-145726541D01*
X93284631Y-145722815D01*
X103514630Y-145722815D01*
X103838980Y-146507800D01*
X104439041Y-147108909D01*
X105223459Y-147434628D01*
X106072815Y-147435370D01*
X106857800Y-147111020D01*
X107458909Y-146510959D01*
X107784628Y-145726541D01*
X107785370Y-144877185D01*
X107461020Y-144092200D01*
X106860959Y-143491091D01*
X106076541Y-143165372D01*
X105227185Y-143164630D01*
X104442200Y-143488980D01*
X103841091Y-144089041D01*
X103515372Y-144873459D01*
X103514630Y-145722815D01*
X93284631Y-145722815D01*
X93285370Y-144877185D01*
X92961020Y-144092200D01*
X92360959Y-143491091D01*
X91576541Y-143165372D01*
X90727185Y-143164630D01*
X89942200Y-143488980D01*
X89341091Y-144089041D01*
X89015372Y-144873459D01*
X89014630Y-145722815D01*
X82711171Y-145722815D01*
X82906174Y-145528153D01*
X83384454Y-144376326D01*
X83385543Y-143129146D01*
X82909273Y-141976485D01*
X82028153Y-141093826D01*
X80876326Y-140615546D01*
X79629146Y-140614457D01*
X78476485Y-141090727D01*
X77593826Y-141971847D01*
X77115546Y-143123674D01*
X77114457Y-144370854D01*
X76127000Y-144370854D01*
X76127000Y-132997080D01*
X85789565Y-132997080D01*
X86170885Y-133919943D01*
X86876343Y-134626634D01*
X87798540Y-135009564D01*
X88797080Y-135010435D01*
X89719943Y-134629115D01*
X90426634Y-133923657D01*
X90809564Y-133001460D01*
X90809567Y-132997080D01*
X91489565Y-132997080D01*
X91870885Y-133919943D01*
X92576343Y-134626634D01*
X93498540Y-135009564D01*
X94497080Y-135010435D01*
X95419943Y-134629115D01*
X96126634Y-133923657D01*
X96509564Y-133001460D01*
X96510435Y-132002920D01*
X96129115Y-131080057D01*
X95423657Y-130373366D01*
X94501460Y-129990436D01*
X93502920Y-129989565D01*
X92580057Y-130370885D01*
X91873366Y-131076343D01*
X91490436Y-131998540D01*
X91489565Y-132997080D01*
X90809567Y-132997080D01*
X90810435Y-132002920D01*
X90429115Y-131080057D01*
X89723657Y-130373366D01*
X88801460Y-129990436D01*
X87802920Y-129989565D01*
X86880057Y-130370885D01*
X86173366Y-131076343D01*
X85790436Y-131998540D01*
X85789565Y-132997080D01*
X76127000Y-132997080D01*
X76127000Y-121176057D01*
X98110846Y-121176057D01*
X98245903Y-121502920D01*
X98495764Y-121753218D01*
X98803280Y-121880911D01*
X101461185Y-124538816D01*
X101609377Y-124637834D01*
X101708395Y-124703996D01*
X102000000Y-124762000D01*
X104684370Y-124762000D01*
X105738000Y-125815631D01*
X105738000Y-125978375D01*
X105664346Y-125929161D01*
X105230000Y-125842764D01*
X104795654Y-125929161D01*
X104595000Y-126063234D01*
X104394346Y-125929161D01*
X103960000Y-125842764D01*
X103525654Y-125929161D01*
X103157434Y-126175198D01*
X102911397Y-126543418D01*
X102825000Y-126977764D01*
X102825000Y-127022236D01*
X102911397Y-127456582D01*
X103157434Y-127824802D01*
X103525654Y-128070839D01*
X103960000Y-128157236D01*
X104394346Y-128070839D01*
X104595000Y-127936766D01*
X104795654Y-128070839D01*
X105230000Y-128157236D01*
X105664346Y-128070839D01*
X105738000Y-128021625D01*
X105738000Y-128684369D01*
X104961185Y-129461185D01*
X104796004Y-129708395D01*
X104738000Y-130000000D01*
X104738000Y-130888608D01*
X104223657Y-130373366D01*
X103301460Y-129990436D01*
X102302920Y-129989565D01*
X101380057Y-130370885D01*
X100673366Y-131076343D01*
X100290436Y-131998540D01*
X100289565Y-132997080D01*
X100670885Y-133919943D01*
X101376343Y-134626634D01*
X102298540Y-135009564D01*
X103297080Y-135010435D01*
X104219943Y-134629115D01*
X104738000Y-134111962D01*
X104738000Y-134984369D01*
X103958928Y-135763441D01*
X103301460Y-135490436D01*
X102302920Y-135489565D01*
X101380057Y-135870885D01*
X100673366Y-136576343D01*
X100290436Y-137498540D01*
X100289565Y-138497080D01*
X100670885Y-139419943D01*
X101376343Y-140126634D01*
X102298540Y-140509564D01*
X103297080Y-140510435D01*
X104219943Y-140129115D01*
X104926634Y-139423657D01*
X105309564Y-138501460D01*
X105310435Y-137502920D01*
X105036846Y-136840785D01*
X105752631Y-136125000D01*
X105977560Y-136125000D01*
X105977560Y-139875000D01*
X106021838Y-140110317D01*
X106160910Y-140326441D01*
X106373110Y-140471431D01*
X106625000Y-140522440D01*
X107738000Y-140522440D01*
X107738000Y-141813446D01*
X107727560Y-141865000D01*
X107727560Y-143135000D01*
X107771838Y-143370317D01*
X107910910Y-143586441D01*
X108123110Y-143731431D01*
X108375000Y-143782440D01*
X109345000Y-143782440D01*
X109505690Y-143752204D01*
X109655000Y-143782440D01*
X110625000Y-143782440D01*
X110860317Y-143738162D01*
X111076441Y-143599090D01*
X111221431Y-143386890D01*
X111272440Y-143135000D01*
X111272440Y-141865000D01*
X111228162Y-141629683D01*
X111089090Y-141413559D01*
X110876890Y-141268569D01*
X110625000Y-141217560D01*
X109655000Y-141217560D01*
X109494310Y-141247796D01*
X109345000Y-141217560D01*
X109262000Y-141217560D01*
X109262000Y-140522440D01*
X110375000Y-140522440D01*
X110610317Y-140478162D01*
X110826441Y-140339090D01*
X110971431Y-140126890D01*
X111022440Y-139875000D01*
X111022440Y-136125000D01*
X110978162Y-135889683D01*
X110839090Y-135673559D01*
X110626890Y-135528569D01*
X110375000Y-135477560D01*
X106625000Y-135477560D01*
X106389683Y-135521838D01*
X106173559Y-135660910D01*
X106028569Y-135873110D01*
X105977560Y-136125000D01*
X105752631Y-136125000D01*
X106038816Y-135838815D01*
X106157688Y-135660910D01*
X106203996Y-135591605D01*
X106262000Y-135300000D01*
X106262000Y-133656422D01*
X106370885Y-133919943D01*
X107076343Y-134626634D01*
X107998540Y-135009564D01*
X108997080Y-135010435D01*
X109919943Y-134629115D01*
X110626634Y-133923657D01*
X111009564Y-133001460D01*
X111010435Y-132002920D01*
X110629115Y-131080057D01*
X109923657Y-130373366D01*
X109001460Y-129990436D01*
X108002920Y-129989565D01*
X107080057Y-130370885D01*
X106373366Y-131076343D01*
X106262000Y-131344542D01*
X106262000Y-130315630D01*
X107038816Y-129538815D01*
X107203997Y-129291604D01*
X107262000Y-129000000D01*
X107262000Y-128145820D01*
X107270000Y-128147440D01*
X108270000Y-128147440D01*
X108505317Y-128103162D01*
X108721441Y-127964090D01*
X108866431Y-127751890D01*
X108917440Y-127500000D01*
X108917440Y-126500000D01*
X108873162Y-126264683D01*
X108734090Y-126048559D01*
X108521890Y-125903569D01*
X108270000Y-125852560D01*
X107270000Y-125852560D01*
X107262000Y-125854065D01*
X107262000Y-125500000D01*
X107203996Y-125208395D01*
X107038815Y-124961184D01*
X105538815Y-123461185D01*
X105291605Y-123296004D01*
X105000000Y-123238000D01*
X102315631Y-123238000D01*
X101253688Y-122176057D01*
X105610846Y-122176057D01*
X105745903Y-122502920D01*
X105995764Y-122753218D01*
X106322391Y-122888846D01*
X106676057Y-122889154D01*
X106983793Y-122762000D01*
X110016913Y-122762000D01*
X110322391Y-122888846D01*
X110676057Y-122889154D01*
X111002920Y-122754097D01*
X111253218Y-122504236D01*
X111388846Y-122177609D01*
X111389154Y-121823943D01*
X111254097Y-121497080D01*
X111004236Y-121246782D01*
X110677609Y-121111154D01*
X110323943Y-121110846D01*
X110016207Y-121238000D01*
X106983087Y-121238000D01*
X106677609Y-121111154D01*
X106323943Y-121110846D01*
X105997080Y-121245903D01*
X105746782Y-121495764D01*
X105611154Y-121822391D01*
X105610846Y-122176057D01*
X101253688Y-122176057D01*
X99880409Y-120802779D01*
X99754097Y-120497080D01*
X99504236Y-120246782D01*
X99177609Y-120111154D01*
X98823943Y-120110846D01*
X98497080Y-120245903D01*
X98246782Y-120495764D01*
X98111154Y-120822391D01*
X98110846Y-121176057D01*
X76127000Y-121176057D01*
X76127000Y-118127000D01*
X88000000Y-118127000D01*
X88049410Y-118116994D01*
X88091035Y-118088553D01*
X88118315Y-118046159D01*
X88127000Y-118000000D01*
X88127000Y-107262000D01*
X93500000Y-107262000D01*
X93791605Y-107203996D01*
X94038815Y-107038815D01*
X98538815Y-102538815D01*
X98703996Y-102291605D01*
X98762000Y-102000000D01*
X98762000Y-100983087D01*
X98888846Y-100677609D01*
X98889154Y-100323943D01*
X98754097Y-99997080D01*
X98504236Y-99746782D01*
X98177609Y-99611154D01*
X97823943Y-99610846D01*
X97497080Y-99745903D01*
X97246782Y-99995764D01*
X97111154Y-100322391D01*
X97110846Y-100676057D01*
X97238000Y-100983793D01*
X97238000Y-101684370D01*
X93184370Y-105738000D01*
X88127000Y-105738000D01*
X88127000Y-105000000D01*
X88116994Y-104950590D01*
X88088553Y-104908965D01*
X88046159Y-104881685D01*
X88000000Y-104873000D01*
X76127000Y-104873000D01*
X76127000Y-87620854D01*
X76864457Y-87620854D01*
X77340727Y-88773515D01*
X78221847Y-89656174D01*
X79373674Y-90134454D01*
X80620854Y-90135543D01*
X81773515Y-89659273D01*
X82656174Y-88778153D01*
X83134454Y-87626326D01*
X83135543Y-86379146D01*
X82659273Y-85226485D01*
X81778153Y-84343826D01*
X80626326Y-83865546D01*
X79379146Y-83864457D01*
X78226485Y-84340727D01*
X77343826Y-85221847D01*
X76865546Y-86373674D01*
X76864457Y-87620854D01*
X76127000Y-87620854D01*
X76127000Y-30620854D01*
X76864457Y-30620854D01*
X77340727Y-31773515D01*
X78221847Y-32656174D01*
X79373674Y-33134454D01*
X80620854Y-33135543D01*
X81773515Y-32659273D01*
X82656174Y-31778153D01*
X83134454Y-30626326D01*
X83135543Y-29379146D01*
X82659273Y-28226485D01*
X81778153Y-27343826D01*
X80626326Y-26865546D01*
X79379146Y-26864457D01*
X78226485Y-27340727D01*
X77343826Y-28221847D01*
X76865546Y-29373674D01*
X76864457Y-30620854D01*
X76127000Y-30620854D01*
X76127000Y-26127000D01*
X110873000Y-26127000D01*
X110873000Y-28873000D01*
G36*
X146873000Y-107373000D02*
X137500000Y-107373000D01*
X137450590Y-107383006D01*
X137408965Y-107411447D01*
X137381685Y-107453841D01*
X137373000Y-107500000D01*
X137373000Y-117500000D01*
X137383006Y-117549410D01*
X137411447Y-117591035D01*
X137453841Y-117618315D01*
X137500000Y-117627000D01*
X146873000Y-117627000D01*
X146873000Y-147873000D01*
X123627000Y-147873000D01*
X123627000Y-145722815D01*
X128014630Y-145722815D01*
X128338980Y-146507800D01*
X128939041Y-147108909D01*
X129723459Y-147434628D01*
X130572815Y-147435370D01*
X131357800Y-147111020D01*
X131958909Y-146510959D01*
X132284628Y-145726541D01*
X132285370Y-144877185D01*
X132179456Y-144620854D01*
X139864457Y-144620854D01*
X140340727Y-145773515D01*
X141221847Y-146656174D01*
X142373674Y-147134454D01*
X143620854Y-147135543D01*
X144773515Y-146659273D01*
X145656174Y-145778153D01*
X146134454Y-144626326D01*
X146135543Y-143379146D01*
X145659273Y-142226485D01*
X144778153Y-141343826D01*
X143626326Y-140865546D01*
X142379146Y-140864457D01*
X141226485Y-141340727D01*
X140343826Y-142221847D01*
X139865546Y-143373674D01*
X139864457Y-144620854D01*
X132179456Y-144620854D01*
X131961020Y-144092200D01*
X131360959Y-143491091D01*
X130576541Y-143165372D01*
X129727185Y-143164630D01*
X128942200Y-143488980D01*
X128341091Y-144089041D01*
X128015372Y-144873459D01*
X128014630Y-145722815D01*
X123627000Y-145722815D01*
X123627000Y-132997080D01*
X124789565Y-132997080D01*
X125170885Y-133919943D01*
X125876343Y-134626634D01*
X126798540Y-135009564D01*
X127797080Y-135010435D01*
X128719943Y-134629115D01*
X129426634Y-133923657D01*
X129809564Y-133001460D01*
X129809567Y-132997080D01*
X130489565Y-132997080D01*
X130870885Y-133919943D01*
X131576343Y-134626634D01*
X132498540Y-135009564D01*
X133497080Y-135010435D01*
X134419943Y-134629115D01*
X135126634Y-133923657D01*
X135509564Y-133001460D01*
X135510435Y-132002920D01*
X135129115Y-131080057D01*
X134423657Y-130373366D01*
X133501460Y-129990436D01*
X132502920Y-129989565D01*
X131580057Y-130370885D01*
X130873366Y-131076343D01*
X130490436Y-131998540D01*
X130489565Y-132997080D01*
X129809567Y-132997080D01*
X129810435Y-132002920D01*
X129429115Y-131080057D01*
X128723657Y-130373366D01*
X127801460Y-129990436D01*
X126802920Y-129989565D01*
X125880057Y-130370885D01*
X125173366Y-131076343D01*
X124790436Y-131998540D01*
X124789565Y-132997080D01*
X123627000Y-132997080D01*
X123627000Y-127000000D01*
X123616994Y-126950590D01*
X123588553Y-126908965D01*
X123546159Y-126881685D01*
X123500000Y-126873000D01*
X117127000Y-126873000D01*
X117127000Y-108127000D01*
X119000000Y-108127000D01*
X119049410Y-108116994D01*
X119091035Y-108088553D01*
X119118315Y-108046159D01*
X119127000Y-108000000D01*
X119127000Y-87620854D01*
X139864457Y-87620854D01*
X140340727Y-88773515D01*
X141221847Y-89656174D01*
X142373674Y-90134454D01*
X143620854Y-90135543D01*
X144773515Y-89659273D01*
X145656174Y-88778153D01*
X146134454Y-87626326D01*
X146135543Y-86379146D01*
X145659273Y-85226485D01*
X144778153Y-84343826D01*
X143626326Y-83865546D01*
X142379146Y-83864457D01*
X141226485Y-84340727D01*
X140343826Y-85221847D01*
X139865546Y-86373674D01*
X139864457Y-87620854D01*
X119127000Y-87620854D01*
X119127000Y-79292724D01*
X119430839Y-79597093D01*
X120123405Y-79884672D01*
X120873305Y-79885326D01*
X121566372Y-79598957D01*
X122097093Y-79069161D01*
X122384672Y-78376595D01*
X122385326Y-77626695D01*
X122098957Y-76933628D01*
X121569161Y-76402907D01*
X120876595Y-76115328D01*
X120126695Y-76114674D01*
X119433628Y-76401043D01*
X119127000Y-76707137D01*
X119127000Y-72127000D01*
X130000000Y-72127000D01*
X130049410Y-72116994D01*
X130091035Y-72088553D01*
X130118315Y-72046159D01*
X130127000Y-72000000D01*
X130127000Y-65000000D01*
X130116994Y-64950590D01*
X130088553Y-64908965D01*
X130046159Y-64881685D01*
X130000000Y-64873000D01*
X97127000Y-64873000D01*
X97127000Y-60127000D01*
X119000000Y-60127000D01*
X119049410Y-60116994D01*
X119091035Y-60088553D01*
X119118315Y-60046159D01*
X119127000Y-60000000D01*
X119127000Y-50292724D01*
X119430839Y-50597093D01*
X120123405Y-50884672D01*
X120873305Y-50885326D01*
X121566372Y-50598957D01*
X122097093Y-50069161D01*
X122384672Y-49376595D01*
X122385326Y-48626695D01*
X122098957Y-47933628D01*
X121569161Y-47402907D01*
X120876595Y-47115328D01*
X120126695Y-47114674D01*
X119433628Y-47401043D01*
X119127000Y-47707137D01*
X119127000Y-34292724D01*
X119430839Y-34597093D01*
X120123405Y-34884672D01*
X120873305Y-34885326D01*
X121566372Y-34598957D01*
X122097093Y-34069161D01*
X122384672Y-33376595D01*
X122385326Y-32626695D01*
X122098957Y-31933628D01*
X121569161Y-31402907D01*
X120876595Y-31115328D01*
X120126695Y-31114674D01*
X119433628Y-31401043D01*
X119127000Y-31707137D01*
X119127000Y-30620854D01*
X139864457Y-30620854D01*
X140340727Y-31773515D01*
X141221847Y-32656174D01*
X142373674Y-33134454D01*
X143620854Y-33135543D01*
X144773515Y-32659273D01*
X145656174Y-31778153D01*
X146134454Y-30626326D01*
X146135543Y-29379146D01*
X145659273Y-28226485D01*
X144778153Y-27343826D01*
X143626326Y-26865546D01*
X142379146Y-26864457D01*
X141226485Y-27340727D01*
X140343826Y-28221847D01*
X139865546Y-29373674D01*
X139864457Y-30620854D01*
X119127000Y-30620854D01*
X119127000Y-29000000D01*
X119116994Y-28950590D01*
X119088553Y-28908965D01*
X119046159Y-28881685D01*
X119000000Y-28873000D01*
X112127000Y-28873000D01*
X112127000Y-26127000D01*
X146873000Y-26127000D01*
X146873000Y-107373000D01*
X146873000Y-107373000D01*
G37*
X146873000Y-107373000D02*
X137500000Y-107373000D01*
X137450590Y-107383006D01*
X137408965Y-107411447D01*
X137381685Y-107453841D01*
X137373000Y-107500000D01*
X137373000Y-117500000D01*
X137383006Y-117549410D01*
X137411447Y-117591035D01*
X137453841Y-117618315D01*
X137500000Y-117627000D01*
X146873000Y-117627000D01*
X146873000Y-147873000D01*
X123627000Y-147873000D01*
X123627000Y-145722815D01*
X128014630Y-145722815D01*
X128338980Y-146507800D01*
X128939041Y-147108909D01*
X129723459Y-147434628D01*
X130572815Y-147435370D01*
X131357800Y-147111020D01*
X131958909Y-146510959D01*
X132284628Y-145726541D01*
X132285370Y-144877185D01*
X132179456Y-144620854D01*
X139864457Y-144620854D01*
X140340727Y-145773515D01*
X141221847Y-146656174D01*
X142373674Y-147134454D01*
X143620854Y-147135543D01*
X144773515Y-146659273D01*
X145656174Y-145778153D01*
X146134454Y-144626326D01*
X146135543Y-143379146D01*
X145659273Y-142226485D01*
X144778153Y-141343826D01*
X143626326Y-140865546D01*
X142379146Y-140864457D01*
X141226485Y-141340727D01*
X140343826Y-142221847D01*
X139865546Y-143373674D01*
X139864457Y-144620854D01*
X132179456Y-144620854D01*
X131961020Y-144092200D01*
X131360959Y-143491091D01*
X130576541Y-143165372D01*
X129727185Y-143164630D01*
X128942200Y-143488980D01*
X128341091Y-144089041D01*
X128015372Y-144873459D01*
X128014630Y-145722815D01*
X123627000Y-145722815D01*
X123627000Y-132997080D01*
X124789565Y-132997080D01*
X125170885Y-133919943D01*
X125876343Y-134626634D01*
X126798540Y-135009564D01*
X127797080Y-135010435D01*
X128719943Y-134629115D01*
X129426634Y-133923657D01*
X129809564Y-133001460D01*
X129809567Y-132997080D01*
X130489565Y-132997080D01*
X130870885Y-133919943D01*
X131576343Y-134626634D01*
X132498540Y-135009564D01*
X133497080Y-135010435D01*
X134419943Y-134629115D01*
X135126634Y-133923657D01*
X135509564Y-133001460D01*
X135510435Y-132002920D01*
X135129115Y-131080057D01*
X134423657Y-130373366D01*
X133501460Y-129990436D01*
X132502920Y-129989565D01*
X131580057Y-130370885D01*
X130873366Y-131076343D01*
X130490436Y-131998540D01*
X130489565Y-132997080D01*
X129809567Y-132997080D01*
X129810435Y-132002920D01*
X129429115Y-131080057D01*
X128723657Y-130373366D01*
X127801460Y-129990436D01*
X126802920Y-129989565D01*
X125880057Y-130370885D01*
X125173366Y-131076343D01*
X124790436Y-131998540D01*
X124789565Y-132997080D01*
X123627000Y-132997080D01*
X123627000Y-127000000D01*
X123616994Y-126950590D01*
X123588553Y-126908965D01*
X123546159Y-126881685D01*
X123500000Y-126873000D01*
X117127000Y-126873000D01*
X117127000Y-108127000D01*
X119000000Y-108127000D01*
X119049410Y-108116994D01*
X119091035Y-108088553D01*
X119118315Y-108046159D01*
X119127000Y-108000000D01*
X119127000Y-87620854D01*
X139864457Y-87620854D01*
X140340727Y-88773515D01*
X141221847Y-89656174D01*
X142373674Y-90134454D01*
X143620854Y-90135543D01*
X144773515Y-89659273D01*
X145656174Y-88778153D01*
X146134454Y-87626326D01*
X146135543Y-86379146D01*
X145659273Y-85226485D01*
X144778153Y-84343826D01*
X143626326Y-83865546D01*
X142379146Y-83864457D01*
X141226485Y-84340727D01*
X140343826Y-85221847D01*
X139865546Y-86373674D01*
X139864457Y-87620854D01*
X119127000Y-87620854D01*
X119127000Y-79292724D01*
X119430839Y-79597093D01*
X120123405Y-79884672D01*
X120873305Y-79885326D01*
X121566372Y-79598957D01*
X122097093Y-79069161D01*
X122384672Y-78376595D01*
X122385326Y-77626695D01*
X122098957Y-76933628D01*
X121569161Y-76402907D01*
X120876595Y-76115328D01*
X120126695Y-76114674D01*
X119433628Y-76401043D01*
X119127000Y-76707137D01*
X119127000Y-72127000D01*
X130000000Y-72127000D01*
X130049410Y-72116994D01*
X130091035Y-72088553D01*
X130118315Y-72046159D01*
X130127000Y-72000000D01*
X130127000Y-65000000D01*
X130116994Y-64950590D01*
X130088553Y-64908965D01*
X130046159Y-64881685D01*
X130000000Y-64873000D01*
X97127000Y-64873000D01*
X97127000Y-60127000D01*
X119000000Y-60127000D01*
X119049410Y-60116994D01*
X119091035Y-60088553D01*
X119118315Y-60046159D01*
X119127000Y-60000000D01*
X119127000Y-50292724D01*
X119430839Y-50597093D01*
X120123405Y-50884672D01*
X120873305Y-50885326D01*
X121566372Y-50598957D01*
X122097093Y-50069161D01*
X122384672Y-49376595D01*
X122385326Y-48626695D01*
X122098957Y-47933628D01*
X121569161Y-47402907D01*
X120876595Y-47115328D01*
X120126695Y-47114674D01*
X119433628Y-47401043D01*
X119127000Y-47707137D01*
X119127000Y-34292724D01*
X119430839Y-34597093D01*
X120123405Y-34884672D01*
X120873305Y-34885326D01*
X121566372Y-34598957D01*
X122097093Y-34069161D01*
X122384672Y-33376595D01*
X122385326Y-32626695D01*
X122098957Y-31933628D01*
X121569161Y-31402907D01*
X120876595Y-31115328D01*
X120126695Y-31114674D01*
X119433628Y-31401043D01*
X119127000Y-31707137D01*
X119127000Y-30620854D01*
X139864457Y-30620854D01*
X140340727Y-31773515D01*
X141221847Y-32656174D01*
X142373674Y-33134454D01*
X143620854Y-33135543D01*
X144773515Y-32659273D01*
X145656174Y-31778153D01*
X146134454Y-30626326D01*
X146135543Y-29379146D01*
X145659273Y-28226485D01*
X144778153Y-27343826D01*
X143626326Y-26865546D01*
X142379146Y-26864457D01*
X141226485Y-27340727D01*
X140343826Y-28221847D01*
X139865546Y-29373674D01*
X139864457Y-30620854D01*
X119127000Y-30620854D01*
X119127000Y-29000000D01*
X119116994Y-28950590D01*
X119088553Y-28908965D01*
X119046159Y-28881685D01*
X119000000Y-28873000D01*
X112127000Y-28873000D01*
X112127000Y-26127000D01*
X146873000Y-26127000D01*
X146873000Y-107373000D01*
G36*
X86873000Y-116873000D02*
X76127000Y-116873000D01*
X76127000Y-116118632D01*
X77060973Y-116118632D01*
X77147121Y-116374897D01*
X77719841Y-116584359D01*
X78329122Y-116558707D01*
X78772879Y-116374897D01*
X78859027Y-116118632D01*
X82140973Y-116118632D01*
X82227121Y-116374897D01*
X82799841Y-116584359D01*
X83409122Y-116558707D01*
X83852879Y-116374897D01*
X83939027Y-116118632D01*
X83040000Y-115219605D01*
X82140973Y-116118632D01*
X78859027Y-116118632D01*
X77960000Y-115219605D01*
X77060973Y-116118632D01*
X76127000Y-116118632D01*
X76127000Y-114799841D01*
X76415641Y-114799841D01*
X76441293Y-115409122D01*
X76625103Y-115852879D01*
X76881368Y-115939027D01*
X77780395Y-115040000D01*
X76881368Y-114140973D01*
X76625103Y-114227121D01*
X76415641Y-114799841D01*
X76127000Y-114799841D01*
X76127000Y-111038632D01*
X77060973Y-111038632D01*
X77147121Y-111294897D01*
X77719841Y-111504359D01*
X78329122Y-111478707D01*
X78460415Y-111424324D01*
X78204240Y-112041262D01*
X78203443Y-112954731D01*
X78467314Y-113593348D01*
X78200159Y-113495641D01*
X77590878Y-113521293D01*
X77147121Y-113705103D01*
X77060973Y-113961368D01*
X77960000Y-114860395D01*
X77974143Y-114846253D01*
X78153748Y-115025858D01*
X78139605Y-115040000D01*
X79038632Y-115939027D01*
X79294897Y-115852879D01*
X79504359Y-115280159D01*
X79478707Y-114670878D01*
X79424324Y-114539585D01*
X80041262Y-114795760D01*
X80954731Y-114796557D01*
X81593348Y-114532686D01*
X81495641Y-114799841D01*
X81521293Y-115409122D01*
X81705103Y-115852879D01*
X81961368Y-115939027D01*
X82860395Y-115040000D01*
X83219605Y-115040000D01*
X84118632Y-115939027D01*
X84374897Y-115852879D01*
X84584359Y-115280159D01*
X84558707Y-114670878D01*
X84374897Y-114227121D01*
X84118632Y-114140973D01*
X83219605Y-115040000D01*
X82860395Y-115040000D01*
X82846253Y-115025858D01*
X83025858Y-114846253D01*
X83040000Y-114860395D01*
X83939027Y-113961368D01*
X83852879Y-113705103D01*
X83280159Y-113495641D01*
X82670878Y-113521293D01*
X82539585Y-113575676D01*
X82795760Y-112958738D01*
X82796557Y-112045269D01*
X82532686Y-111406652D01*
X82799841Y-111504359D01*
X83409122Y-111478707D01*
X83852879Y-111294897D01*
X83939027Y-111038632D01*
X83040000Y-110139605D01*
X83025858Y-110153748D01*
X82846253Y-109974143D01*
X82860395Y-109960000D01*
X83219605Y-109960000D01*
X84118632Y-110859027D01*
X84374897Y-110772879D01*
X84584359Y-110200159D01*
X84558707Y-109590878D01*
X84374897Y-109147121D01*
X84118632Y-109060973D01*
X83219605Y-109960000D01*
X82860395Y-109960000D01*
X81961368Y-109060973D01*
X81705103Y-109147121D01*
X81495641Y-109719841D01*
X81521293Y-110329122D01*
X81575676Y-110460415D01*
X80958738Y-110204240D01*
X80045269Y-110203443D01*
X79406652Y-110467314D01*
X79504359Y-110200159D01*
X79478707Y-109590878D01*
X79294897Y-109147121D01*
X79038632Y-109060973D01*
X78139605Y-109960000D01*
X78153748Y-109974143D01*
X77974143Y-110153748D01*
X77960000Y-110139605D01*
X77060973Y-111038632D01*
X76127000Y-111038632D01*
X76127000Y-109719841D01*
X76415641Y-109719841D01*
X76441293Y-110329122D01*
X76625103Y-110772879D01*
X76881368Y-110859027D01*
X77780395Y-109960000D01*
X76881368Y-109060973D01*
X76625103Y-109147121D01*
X76415641Y-109719841D01*
X76127000Y-109719841D01*
X76127000Y-108881368D01*
X77060973Y-108881368D01*
X77960000Y-109780395D01*
X78859027Y-108881368D01*
X82140973Y-108881368D01*
X83040000Y-109780395D01*
X83939027Y-108881368D01*
X83852879Y-108625103D01*
X83280159Y-108415641D01*
X82670878Y-108441293D01*
X82227121Y-108625103D01*
X82140973Y-108881368D01*
X78859027Y-108881368D01*
X78772879Y-108625103D01*
X78200159Y-108415641D01*
X77590878Y-108441293D01*
X77147121Y-108625103D01*
X77060973Y-108881368D01*
X76127000Y-108881368D01*
X76127000Y-106127000D01*
X86873000Y-106127000D01*
X86873000Y-116873000D01*
X86873000Y-116873000D01*
G37*
X86873000Y-116873000D02*
X76127000Y-116873000D01*
X76127000Y-116118632D01*
X77060973Y-116118632D01*
X77147121Y-116374897D01*
X77719841Y-116584359D01*
X78329122Y-116558707D01*
X78772879Y-116374897D01*
X78859027Y-116118632D01*
X82140973Y-116118632D01*
X82227121Y-116374897D01*
X82799841Y-116584359D01*
X83409122Y-116558707D01*
X83852879Y-116374897D01*
X83939027Y-116118632D01*
X83040000Y-115219605D01*
X82140973Y-116118632D01*
X78859027Y-116118632D01*
X77960000Y-115219605D01*
X77060973Y-116118632D01*
X76127000Y-116118632D01*
X76127000Y-114799841D01*
X76415641Y-114799841D01*
X76441293Y-115409122D01*
X76625103Y-115852879D01*
X76881368Y-115939027D01*
X77780395Y-115040000D01*
X76881368Y-114140973D01*
X76625103Y-114227121D01*
X76415641Y-114799841D01*
X76127000Y-114799841D01*
X76127000Y-111038632D01*
X77060973Y-111038632D01*
X77147121Y-111294897D01*
X77719841Y-111504359D01*
X78329122Y-111478707D01*
X78460415Y-111424324D01*
X78204240Y-112041262D01*
X78203443Y-112954731D01*
X78467314Y-113593348D01*
X78200159Y-113495641D01*
X77590878Y-113521293D01*
X77147121Y-113705103D01*
X77060973Y-113961368D01*
X77960000Y-114860395D01*
X77974143Y-114846253D01*
X78153748Y-115025858D01*
X78139605Y-115040000D01*
X79038632Y-115939027D01*
X79294897Y-115852879D01*
X79504359Y-115280159D01*
X79478707Y-114670878D01*
X79424324Y-114539585D01*
X80041262Y-114795760D01*
X80954731Y-114796557D01*
X81593348Y-114532686D01*
X81495641Y-114799841D01*
X81521293Y-115409122D01*
X81705103Y-115852879D01*
X81961368Y-115939027D01*
X82860395Y-115040000D01*
X83219605Y-115040000D01*
X84118632Y-115939027D01*
X84374897Y-115852879D01*
X84584359Y-115280159D01*
X84558707Y-114670878D01*
X84374897Y-114227121D01*
X84118632Y-114140973D01*
X83219605Y-115040000D01*
X82860395Y-115040000D01*
X82846253Y-115025858D01*
X83025858Y-114846253D01*
X83040000Y-114860395D01*
X83939027Y-113961368D01*
X83852879Y-113705103D01*
X83280159Y-113495641D01*
X82670878Y-113521293D01*
X82539585Y-113575676D01*
X82795760Y-112958738D01*
X82796557Y-112045269D01*
X82532686Y-111406652D01*
X82799841Y-111504359D01*
X83409122Y-111478707D01*
X83852879Y-111294897D01*
X83939027Y-111038632D01*
X83040000Y-110139605D01*
X83025858Y-110153748D01*
X82846253Y-109974143D01*
X82860395Y-109960000D01*
X83219605Y-109960000D01*
X84118632Y-110859027D01*
X84374897Y-110772879D01*
X84584359Y-110200159D01*
X84558707Y-109590878D01*
X84374897Y-109147121D01*
X84118632Y-109060973D01*
X83219605Y-109960000D01*
X82860395Y-109960000D01*
X81961368Y-109060973D01*
X81705103Y-109147121D01*
X81495641Y-109719841D01*
X81521293Y-110329122D01*
X81575676Y-110460415D01*
X80958738Y-110204240D01*
X80045269Y-110203443D01*
X79406652Y-110467314D01*
X79504359Y-110200159D01*
X79478707Y-109590878D01*
X79294897Y-109147121D01*
X79038632Y-109060973D01*
X78139605Y-109960000D01*
X78153748Y-109974143D01*
X77974143Y-110153748D01*
X77960000Y-110139605D01*
X77060973Y-111038632D01*
X76127000Y-111038632D01*
X76127000Y-109719841D01*
X76415641Y-109719841D01*
X76441293Y-110329122D01*
X76625103Y-110772879D01*
X76881368Y-110859027D01*
X77780395Y-109960000D01*
X76881368Y-109060973D01*
X76625103Y-109147121D01*
X76415641Y-109719841D01*
X76127000Y-109719841D01*
X76127000Y-108881368D01*
X77060973Y-108881368D01*
X77960000Y-109780395D01*
X78859027Y-108881368D01*
X82140973Y-108881368D01*
X83040000Y-109780395D01*
X83939027Y-108881368D01*
X83852879Y-108625103D01*
X83280159Y-108415641D01*
X82670878Y-108441293D01*
X82227121Y-108625103D01*
X82140973Y-108881368D01*
X78859027Y-108881368D01*
X78772879Y-108625103D01*
X78200159Y-108415641D01*
X77590878Y-108441293D01*
X77147121Y-108625103D01*
X77060973Y-108881368D01*
X76127000Y-108881368D01*
X76127000Y-106127000D01*
X86873000Y-106127000D01*
X86873000Y-116873000D01*
G36*
X128873000Y-70873000D02*
X97127000Y-70873000D01*
X97127000Y-66127000D01*
X128873000Y-66127000D01*
X128873000Y-70873000D01*
X128873000Y-70873000D01*
G37*
X128873000Y-70873000D02*
X97127000Y-70873000D01*
X97127000Y-66127000D01*
X128873000Y-66127000D01*
X128873000Y-70873000D01*
G36*
X117873000Y-58873000D02*
X106127000Y-58873000D01*
X106127000Y-30127000D01*
X117873000Y-30127000D01*
X117873000Y-58873000D01*
X117873000Y-58873000D01*
G37*
X117873000Y-58873000D02*
X106127000Y-58873000D01*
X106127000Y-30127000D01*
X117873000Y-30127000D01*
X117873000Y-58873000D01*
G36*
X143205103Y-109147121D02*
X142995641Y-109719841D01*
X143021293Y-110329122D01*
X143205103Y-110772879D01*
X143461368Y-110859027D01*
X144360395Y-109960000D01*
X144346253Y-109945858D01*
X144525858Y-109766253D01*
X144540000Y-109780395D01*
X144554143Y-109766253D01*
X144733748Y-109945858D01*
X144719605Y-109960000D01*
X144733748Y-109974143D01*
X144554143Y-110153748D01*
X144540000Y-110139605D01*
X143640973Y-111038632D01*
X143727121Y-111294897D01*
X144299841Y-111504359D01*
X144909122Y-111478707D01*
X145352879Y-111294897D01*
X145373000Y-111235043D01*
X145373000Y-113764957D01*
X145352879Y-113705103D01*
X144780159Y-113495641D01*
X144170878Y-113521293D01*
X143727121Y-113705103D01*
X143640973Y-113961368D01*
X144540000Y-114860395D01*
X144554143Y-114846253D01*
X144733748Y-115025858D01*
X144719605Y-115040000D01*
X144733748Y-115054143D01*
X144554143Y-115233748D01*
X144540000Y-115219605D01*
X144525858Y-115233748D01*
X144346253Y-115054143D01*
X144360395Y-115040000D01*
X143461368Y-114140973D01*
X143205103Y-114227121D01*
X142995641Y-114799841D01*
X143021293Y-115409122D01*
X143205103Y-115852879D01*
X143264957Y-115873000D01*
X140735043Y-115873000D01*
X140794897Y-115852879D01*
X141004359Y-115280159D01*
X140978707Y-114670878D01*
X140794897Y-114227121D01*
X140538632Y-114140973D01*
X139639605Y-115040000D01*
X139653748Y-115054143D01*
X139474143Y-115233748D01*
X139460000Y-115219605D01*
X139445858Y-115233748D01*
X139266253Y-115054143D01*
X139280395Y-115040000D01*
X139266253Y-115025858D01*
X139445858Y-114846253D01*
X139460000Y-114860395D01*
X140359027Y-113961368D01*
X140272879Y-113705103D01*
X139700159Y-113495641D01*
X139090878Y-113521293D01*
X138647121Y-113705103D01*
X138627000Y-113764957D01*
X138627000Y-112803824D01*
X140465574Y-112803824D01*
X140698644Y-113367897D01*
X141129833Y-113799839D01*
X141693498Y-114033893D01*
X142303824Y-114034426D01*
X142867897Y-113801356D01*
X143299839Y-113370167D01*
X143533893Y-112806502D01*
X143534426Y-112196176D01*
X143301356Y-111632103D01*
X142870167Y-111200161D01*
X142306502Y-110966107D01*
X141696176Y-110965574D01*
X141132103Y-111198644D01*
X140700161Y-111629833D01*
X140466107Y-112193498D01*
X140465574Y-112803824D01*
X138627000Y-112803824D01*
X138627000Y-111235043D01*
X138647121Y-111294897D01*
X139219841Y-111504359D01*
X139829122Y-111478707D01*
X140272879Y-111294897D01*
X140359027Y-111038632D01*
X139460000Y-110139605D01*
X139445858Y-110153748D01*
X139266253Y-109974143D01*
X139280395Y-109960000D01*
X139266253Y-109945858D01*
X139445858Y-109766253D01*
X139460000Y-109780395D01*
X139474143Y-109766253D01*
X139653748Y-109945858D01*
X139639605Y-109960000D01*
X140538632Y-110859027D01*
X140794897Y-110772879D01*
X141004359Y-110200159D01*
X140978707Y-109590878D01*
X140794897Y-109147121D01*
X140735043Y-109127000D01*
X143264957Y-109127000D01*
X143205103Y-109147121D01*
X143205103Y-109147121D01*
G37*
X143205103Y-109147121D02*
X142995641Y-109719841D01*
X143021293Y-110329122D01*
X143205103Y-110772879D01*
X143461368Y-110859027D01*
X144360395Y-109960000D01*
X144346253Y-109945858D01*
X144525858Y-109766253D01*
X144540000Y-109780395D01*
X144554143Y-109766253D01*
X144733748Y-109945858D01*
X144719605Y-109960000D01*
X144733748Y-109974143D01*
X144554143Y-110153748D01*
X144540000Y-110139605D01*
X143640973Y-111038632D01*
X143727121Y-111294897D01*
X144299841Y-111504359D01*
X144909122Y-111478707D01*
X145352879Y-111294897D01*
X145373000Y-111235043D01*
X145373000Y-113764957D01*
X145352879Y-113705103D01*
X144780159Y-113495641D01*
X144170878Y-113521293D01*
X143727121Y-113705103D01*
X143640973Y-113961368D01*
X144540000Y-114860395D01*
X144554143Y-114846253D01*
X144733748Y-115025858D01*
X144719605Y-115040000D01*
X144733748Y-115054143D01*
X144554143Y-115233748D01*
X144540000Y-115219605D01*
X144525858Y-115233748D01*
X144346253Y-115054143D01*
X144360395Y-115040000D01*
X143461368Y-114140973D01*
X143205103Y-114227121D01*
X142995641Y-114799841D01*
X143021293Y-115409122D01*
X143205103Y-115852879D01*
X143264957Y-115873000D01*
X140735043Y-115873000D01*
X140794897Y-115852879D01*
X141004359Y-115280159D01*
X140978707Y-114670878D01*
X140794897Y-114227121D01*
X140538632Y-114140973D01*
X139639605Y-115040000D01*
X139653748Y-115054143D01*
X139474143Y-115233748D01*
X139460000Y-115219605D01*
X139445858Y-115233748D01*
X139266253Y-115054143D01*
X139280395Y-115040000D01*
X139266253Y-115025858D01*
X139445858Y-114846253D01*
X139460000Y-114860395D01*
X140359027Y-113961368D01*
X140272879Y-113705103D01*
X139700159Y-113495641D01*
X139090878Y-113521293D01*
X138647121Y-113705103D01*
X138627000Y-113764957D01*
X138627000Y-112803824D01*
X140465574Y-112803824D01*
X140698644Y-113367897D01*
X141129833Y-113799839D01*
X141693498Y-114033893D01*
X142303824Y-114034426D01*
X142867897Y-113801356D01*
X143299839Y-113370167D01*
X143533893Y-112806502D01*
X143534426Y-112196176D01*
X143301356Y-111632103D01*
X142870167Y-111200161D01*
X142306502Y-110966107D01*
X141696176Y-110965574D01*
X141132103Y-111198644D01*
X140700161Y-111629833D01*
X140466107Y-112193498D01*
X140465574Y-112803824D01*
X138627000Y-112803824D01*
X138627000Y-111235043D01*
X138647121Y-111294897D01*
X139219841Y-111504359D01*
X139829122Y-111478707D01*
X140272879Y-111294897D01*
X140359027Y-111038632D01*
X139460000Y-110139605D01*
X139445858Y-110153748D01*
X139266253Y-109974143D01*
X139280395Y-109960000D01*
X139266253Y-109945858D01*
X139445858Y-109766253D01*
X139460000Y-109780395D01*
X139474143Y-109766253D01*
X139653748Y-109945858D01*
X139639605Y-109960000D01*
X140538632Y-110859027D01*
X140794897Y-110772879D01*
X141004359Y-110200159D01*
X140978707Y-109590878D01*
X140794897Y-109147121D01*
X140735043Y-109127000D01*
X143264957Y-109127000D01*
X143205103Y-109147121D01*
M02*
