M48
;DRILL file {KiCad 4.0.6} date 2017 May 30, Tuesday 14:38:30
;FORMAT={-:-/ absolute / inch / decimal}
FMAT,2
INCH,TZ
T1C0.016
T2C0.026
T3C0.035
T4C0.071
%
G90
G05
M72
T1
X3.8583Y-2.4409
X3.8583Y-2.5197
X3.8583Y-2.6378
X3.8583Y-2.7165
X3.8583Y-3.9567
X3.8976Y-4.7638
X3.937Y-2.4409
X3.937Y-2.5197
X3.937Y-2.6378
X3.937Y-2.7165
X4.0157Y-2.4409
X4.0157Y-2.5197
X4.0157Y-2.6378
X4.0157Y-2.7165
X4.1929Y-4.8031
X4.2913Y-1.3386
X4.2913Y-1.4567
X4.2913Y-1.5748
X4.2913Y-1.6929
X4.2913Y-1.811
X4.2913Y-1.9291
X4.2913Y-2.0472
X4.2913Y-2.1654
X4.2913Y-2.9134
X4.2913Y-3.0315
X4.2913Y-3.1496
X4.2913Y-3.2677
X4.2913Y-3.3858
X4.2913Y-3.5039
X4.2913Y-3.622
X4.2913Y-3.7402
X4.2913Y-3.8583
X4.2913Y-3.9764
X4.2913Y-4.0945
X4.3504Y-4.8031
X4.4094Y-1.3386
X4.4094Y-1.4567
X4.4094Y-1.5748
X4.4094Y-1.6929
X4.4094Y-1.811
X4.4094Y-1.9291
X4.4094Y-2.0472
X4.4094Y-2.1654
X4.4094Y-2.9134
X4.4094Y-3.0315
X4.4094Y-3.1496
X4.4094Y-3.2677
X4.4094Y-3.3858
X4.4094Y-3.5039
X4.4094Y-3.622
X4.4094Y-3.7402
X4.4094Y-3.8583
X4.4094Y-3.9764
X4.4094Y-4.0945
X4.4685Y-4.3701
X4.4685Y-4.4094
X4.5276Y-1.3386
X4.5276Y-1.4567
X4.5276Y-1.5748
X4.5276Y-1.6929
X4.5276Y-1.811
X4.5276Y-1.9291
X4.5276Y-2.0472
X4.5276Y-2.1654
X4.5276Y-2.9134
X4.5276Y-3.0315
X4.5276Y-3.1496
X4.5276Y-3.2677
X4.5276Y-3.3858
X4.5276Y-3.5039
X4.5276Y-3.622
X4.5276Y-3.7402
X4.5276Y-3.8583
X4.5276Y-3.9764
X4.5276Y-4.0945
X4.8031Y-2.4409
X4.8031Y-2.5197
X4.8031Y-2.6378
X4.8031Y-2.7165
X4.8819Y-2.4409
X4.8819Y-2.5197
X4.8819Y-2.6378
X4.8819Y-2.7165
X4.9606Y-2.4409
X4.9606Y-2.5197
X4.9606Y-2.6378
X4.9606Y-2.7165
X5.0394Y-2.4409
X5.0394Y-2.5197
X5.0394Y-2.6378
X5.0394Y-2.7165
T2
X4.0929Y-5.
X4.1429Y-5.
X4.1929Y-5.
X4.2429Y-5.
T3
X3.0693Y-4.3291
X3.0693Y-4.5291
X3.1693Y-4.4291
X3.2693Y-4.3291
X3.2693Y-4.5291
X4.5457Y-5.3724
X4.5457Y-5.5724
X4.6457Y-5.4724
X4.7457Y-5.3724
X4.7457Y-5.5724
X5.4906Y-4.3291
X5.4906Y-4.5291
X5.5906Y-4.4291
X5.6906Y-4.3291
X5.6906Y-4.5291
T4
X3.4764Y-5.2165
X3.4764Y-5.4331
X3.7008Y-5.2165
X3.7008Y-5.4331
X4.0472Y-5.2165
X4.0472Y-5.4331
X4.2717Y-5.2165
X4.2717Y-5.4331
X5.0118Y-5.2165
X5.0118Y-5.4331
X5.2362Y-5.2165
X5.2362Y-5.4331
T0
M30
