G04 #@! TF.FileFunction,Soldermask,Bot*
%FSLAX46Y46*%
G04 Gerber Fmt 4.6, Leading zero omitted, Abs format (unit mm)*
G04 Created by KiCad (PCBNEW 4.0.6) date 2017 May 30, Tuesday 14:38:27*
%MOMM*%
%LPD*%
G01*
G04 APERTURE LIST*
%ADD10C,0.100000*%
%ADD11R,1.370000X1.670000*%
%ADD12R,4.150000X4.150000*%
%ADD13C,4.150000*%
%ADD14C,3.400000*%
%ADD15C,2.198320*%
%ADD16C,2.195780*%
%ADD17C,5.400000*%
%ADD18R,1.400000X1.400000*%
%ADD19O,1.400000X1.400000*%
%ADD20C,2.900000*%
%ADD21C,0.254000*%
G04 APERTURE END LIST*
D10*
D11*
X108860000Y-142500000D03*
X110140000Y-142500000D03*
D12*
X94000000Y-138000000D03*
D13*
X88300000Y-138000000D03*
X94000000Y-132500000D03*
X88300000Y-132500000D03*
D14*
X91150000Y-145300000D03*
D12*
X133000000Y-138000000D03*
D13*
X127300000Y-138000000D03*
X133000000Y-132500000D03*
X127300000Y-132500000D03*
D14*
X130150000Y-145300000D03*
D15*
X80500000Y-112500000D03*
D16*
X83040000Y-109960000D03*
X77960000Y-109960000D03*
X77960000Y-115040000D03*
X83040000Y-115040000D03*
D12*
X108500000Y-138000000D03*
D13*
X102800000Y-138000000D03*
X108500000Y-132500000D03*
X102800000Y-132500000D03*
D14*
X105650000Y-145300000D03*
D15*
X118000000Y-139000000D03*
D16*
X115460000Y-141540000D03*
X120540000Y-141540000D03*
X120540000Y-136460000D03*
X115460000Y-136460000D03*
D17*
X80000000Y-30000000D03*
X143000000Y-30000000D03*
X80000000Y-87000000D03*
X143000000Y-87000000D03*
X143000000Y-144000000D03*
X80250000Y-143750000D03*
D18*
X107770000Y-127000000D03*
D19*
X106500000Y-127000000D03*
X105230000Y-127000000D03*
X103960000Y-127000000D03*
D20*
X120500000Y-78000000D03*
X103500000Y-78000000D03*
X120500000Y-33000000D03*
X103500000Y-33000000D03*
D15*
X142000000Y-112500000D03*
D16*
X144540000Y-109960000D03*
X139460000Y-109960000D03*
X139460000Y-115040000D03*
X144540000Y-115040000D03*
D20*
X120500000Y-49000000D03*
X103500000Y-49000000D03*
D21*
G36*
X117873000Y-106873000D02*
X106127000Y-106873000D01*
X106127000Y-72127000D01*
X117873000Y-72127000D01*
X117873000Y-106873000D01*
X117873000Y-106873000D01*
G37*
X117873000Y-106873000D02*
X106127000Y-106873000D01*
X106127000Y-72127000D01*
X117873000Y-72127000D01*
X117873000Y-106873000D01*
G36*
X117873000Y-58873000D02*
X106127000Y-58873000D01*
X106127000Y-30127000D01*
X117873000Y-30127000D01*
X117873000Y-58873000D01*
X117873000Y-58873000D01*
G37*
X117873000Y-58873000D02*
X106127000Y-58873000D01*
X106127000Y-30127000D01*
X117873000Y-30127000D01*
X117873000Y-58873000D01*
M02*
