G04 #@! TF.FileFunction,Soldermask,Top*
%FSLAX46Y46*%
G04 Gerber Fmt 4.6, Leading zero omitted, Abs format (unit mm)*
G04 Created by KiCad (PCBNEW 4.0.6) date 2017 May 30, Tuesday 14:38:27*
%MOMM*%
%LPD*%
G01*
G04 APERTURE LIST*
%ADD10C,0.100000*%
%ADD11R,4.150000X4.150000*%
%ADD12C,4.150000*%
%ADD13C,3.400000*%
%ADD14C,2.198320*%
%ADD15C,2.195780*%
%ADD16R,1.900000X1.700000*%
%ADD17R,2.400000X2.900000*%
%ADD18R,2.400000X1.900000*%
%ADD19R,1.900000X0.900000*%
%ADD20R,0.900000X1.900000*%
%ADD21R,1.900000X2.400000*%
%ADD22C,5.400000*%
%ADD23R,1.400000X1.400000*%
%ADD24O,1.400000X1.400000*%
%ADD25C,2.900000*%
%ADD26C,0.254000*%
G04 APERTURE END LIST*
D10*
D11*
X94000000Y-138000000D03*
D12*
X88300000Y-138000000D03*
X94000000Y-132500000D03*
X88300000Y-132500000D03*
D13*
X91150000Y-145300000D03*
D11*
X133000000Y-138000000D03*
D12*
X127300000Y-138000000D03*
X133000000Y-132500000D03*
X127300000Y-132500000D03*
D13*
X130150000Y-145300000D03*
D14*
X80500000Y-112500000D03*
D15*
X83040000Y-109960000D03*
X77960000Y-109960000D03*
X77960000Y-115040000D03*
X83040000Y-115040000D03*
D16*
X103850000Y-123000000D03*
X101150000Y-123000000D03*
X103850000Y-119000000D03*
X101150000Y-119000000D03*
D17*
X85000000Y-100500000D03*
X81000000Y-100500000D03*
X94500000Y-100500000D03*
X90500000Y-100500000D03*
D18*
X111000000Y-109000000D03*
X113500000Y-109000000D03*
D19*
X119750000Y-85000000D03*
D20*
X116250000Y-109000000D03*
X115250000Y-109000000D03*
D21*
X104250000Y-64000000D03*
D20*
X117250000Y-109000000D03*
D21*
X119750000Y-64000000D03*
D20*
X106500000Y-109000000D03*
D19*
X104250000Y-74000000D03*
D11*
X108500000Y-138000000D03*
D12*
X102800000Y-138000000D03*
X108500000Y-132500000D03*
X102800000Y-132500000D03*
D13*
X105650000Y-145300000D03*
D14*
X118000000Y-139000000D03*
D15*
X115460000Y-141540000D03*
X120540000Y-141540000D03*
X120540000Y-136460000D03*
X115460000Y-136460000D03*
D21*
X104250000Y-67000000D03*
X119750000Y-67000000D03*
D22*
X80000000Y-30000000D03*
X143000000Y-30000000D03*
X80000000Y-87000000D03*
X143000000Y-87000000D03*
X143000000Y-144000000D03*
X80250000Y-143750000D03*
D23*
X107770000Y-127000000D03*
D24*
X106500000Y-127000000D03*
X105230000Y-127000000D03*
X103960000Y-127000000D03*
D25*
X120500000Y-78000000D03*
X103500000Y-78000000D03*
X120500000Y-33000000D03*
X103500000Y-33000000D03*
D14*
X142000000Y-112500000D03*
D15*
X144540000Y-109960000D03*
X139460000Y-109960000D03*
X139460000Y-115040000D03*
X144540000Y-115040000D03*
D19*
X120000000Y-73500000D03*
D25*
X120500000Y-49000000D03*
X103500000Y-49000000D03*
D26*
G36*
X104873000Y-64873000D02*
X103127000Y-64873000D01*
X103127000Y-60127000D01*
X104873000Y-60127000D01*
X104873000Y-64873000D01*
X104873000Y-64873000D01*
G37*
X104873000Y-64873000D02*
X103127000Y-64873000D01*
X103127000Y-60127000D01*
X104873000Y-60127000D01*
X104873000Y-64873000D01*
G36*
X104873000Y-70873000D02*
X103127000Y-70873000D01*
X103127000Y-66127000D01*
X104873000Y-66127000D01*
X104873000Y-70873000D01*
X104873000Y-70873000D01*
G37*
X104873000Y-70873000D02*
X103127000Y-70873000D01*
X103127000Y-66127000D01*
X104873000Y-66127000D01*
X104873000Y-70873000D01*
G36*
X120873000Y-70873000D02*
X119127000Y-70873000D01*
X119127000Y-66127000D01*
X120873000Y-66127000D01*
X120873000Y-70873000D01*
X120873000Y-70873000D01*
G37*
X120873000Y-70873000D02*
X119127000Y-70873000D01*
X119127000Y-66127000D01*
X120873000Y-66127000D01*
X120873000Y-70873000D01*
G36*
X120873000Y-64873000D02*
X119127000Y-64873000D01*
X119127000Y-60127000D01*
X120873000Y-60127000D01*
X120873000Y-64873000D01*
X120873000Y-64873000D01*
G37*
X120873000Y-64873000D02*
X119127000Y-64873000D01*
X119127000Y-60127000D01*
X120873000Y-60127000D01*
X120873000Y-64873000D01*
G36*
X116373000Y-105373000D02*
X107627000Y-105373000D01*
X107627000Y-31627000D01*
X116373000Y-31627000D01*
X116373000Y-105373000D01*
X116373000Y-105373000D01*
G37*
X116373000Y-105373000D02*
X107627000Y-105373000D01*
X107627000Y-31627000D01*
X116373000Y-31627000D01*
X116373000Y-105373000D01*
G36*
X118373000Y-110873000D02*
X105627000Y-110873000D01*
X105627000Y-108127000D01*
X118373000Y-108127000D01*
X118373000Y-110873000D01*
X118373000Y-110873000D01*
G37*
X118373000Y-110873000D02*
X105627000Y-110873000D01*
X105627000Y-108127000D01*
X118373000Y-108127000D01*
X118373000Y-110873000D01*
G36*
X120873000Y-85873000D02*
X119127000Y-85873000D01*
X119127000Y-84127000D01*
X120873000Y-84127000D01*
X120873000Y-85873000D01*
X120873000Y-85873000D01*
G37*
X120873000Y-85873000D02*
X119127000Y-85873000D01*
X119127000Y-84127000D01*
X120873000Y-84127000D01*
X120873000Y-85873000D01*
G36*
X104873000Y-74873000D02*
X103127000Y-74873000D01*
X103127000Y-73127000D01*
X104873000Y-73127000D01*
X104873000Y-74873000D01*
X104873000Y-74873000D01*
G37*
X104873000Y-74873000D02*
X103127000Y-74873000D01*
X103127000Y-73127000D01*
X104873000Y-73127000D01*
X104873000Y-74873000D01*
M02*
